<?xml version="1.0" standalone="no"?>
<!DOCTYPE svg PUBLIC "-//W3C//DTD SVG 20010904//EN"
 "http://www.w3.org/TR/2001/REC-SVG-20010904/DTD/svg10.dtd">
<svg version="1.0" xmlns="http://www.w3.org/2000/svg"
 width="711.000000pt" height="638.000000pt" viewBox="0 0 711.000000 638.000000"
 preserveAspectRatio="xMidYMid meet">

<g transform="translate(0.000000,638.000000) scale(0.100000,-0.100000)"
fill="#000000" stroke="none">
<path d="M477 6054 c-13 -13 -7 -24 13 -24 27 0 75 -25 92 -48 20 -28 38 -36
38 -17 0 8 -10 20 -22 25 -13 5 -19 9 -14 9 5 1 3 8 -4 16 -18 21 3 19 32 -5
23 -17 27 -18 46 -4 12 8 22 24 22 35 0 16 -7 19 -55 19 -40 0 -56 -4 -64 -17
-9 -17 -15 -16 -72 14 -3 2 -8 0 -12 -3z"/>
<path d="M720 6044 c7 -11 28 -29 48 -40 20 -10 37 -26 40 -34 2 -11 1 -11 -5
-3 -5 8 -14 9 -23 3 -17 -10 -13 -15 18 -24 16 -5 24 -3 28 9 7 18 -22 55 -43
55 -7 0 -13 6 -13 14 0 8 -5 18 -12 22 -7 5 -8 3 -3 -5 4 -7 -5 -5 -20 5 -27
18 -28 18 -15 -2z"/>
<path d="M334 6035 c3 -8 1 -15 -3 -15 -5 0 -11 4 -13 9 -4 11 -48 -5 -48 -19
0 -5 9 -10 21 -10 14 0 19 -5 16 -14 -7 -16 16 -12 42 8 9 7 13 7 9 1 -4 -6 3
-12 15 -12 17 -2 19 0 7 7 -10 6 -11 10 -3 10 10 0 10 6 1 25 -12 27 -55 37
-44 10z"/>
<path d="M445 5979 c-10 -15 1 -22 35 -21 26 1 30 -3 30 -25 0 -22 2 -24 16
-12 14 12 20 9 41 -15 19 -23 22 -31 11 -38 -9 -6 -5 -8 12 -6 17 2 30 -4 42
-21 16 -23 18 -24 24 -7 5 14 0 24 -19 38 -14 10 -41 33 -59 51 -63 63 -116
85 -133 56z"/>
<path d="M726 5979 c6 -11 31 -12 37 -1 3 4 -6 8 -19 8 -13 1 -21 -2 -18 -7z"/>
<path d="M250 5956 c0 -8 5 -18 11 -22 8 -4 7 -9 -2 -15 -10 -6 -11 -9 -1 -9
6 0 12 -5 12 -11 0 -5 -5 -7 -11 -4 -7 5 -9 -8 -7 -37 2 -28 7 -42 16 -40 6 1
12 -2 12 -8 0 -5 -7 -10 -15 -10 -12 0 -15 -14 -15 -65 0 -37 4 -65 10 -65 6
0 10 11 10 25 0 14 6 25 13 25 8 0 9 3 1 8 -14 9 -27 62 -15 62 18 0 41 -12
41 -22 0 -5 -4 -7 -9 -4 -15 10 -19 -18 -4 -32 7 -7 13 -25 13 -40 -1 -27 -23
-66 -32 -57 -14 14 -29 -26 -22 -60 11 -61 42 -87 107 -93 52 -4 57 -3 57 16
0 11 3 28 6 37 5 13 8 14 15 3 6 -8 9 3 9 30 0 50 22 88 56 96 13 4 24 10 24
15 0 5 11 19 25 32 32 31 31 39 -5 39 -16 0 -30 5 -30 12 0 6 -3 8 -6 5 -4 -3
-18 3 -32 13 -40 32 -59 26 -64 -20 -2 -22 0 -40 3 -40 4 0 12 -13 17 -29 9
-27 0 -90 -23 -158 -8 -22 -35 -2 -35 26 0 15 -6 33 -12 40 -11 11 -10 12 2 6
12 -7 13 -6 3 7 -7 8 -9 19 -5 23 4 5 0 6 -9 2 -13 -4 -16 -1 -11 15 3 14 1
19 -6 14 -13 -8 -14 -4 -17 62 -1 25 2 42 9 42 7 0 7 3 -1 8 -17 11 -25 94
-10 104 7 4 15 8 20 8 11 0 -4 -53 -17 -62 -8 -5 -7 -8 2 -8 6 0 12 -6 12 -14
0 -8 4 -17 10 -21 5 -3 12 17 16 47 5 36 9 46 14 33 6 -16 7 -16 13 -3 3 10 0
19 -9 22 -9 3 -13 10 -9 15 3 6 -6 18 -20 27 -18 11 -22 19 -15 24 9 6 9 9 1
15 -7 4 -17 2 -24 -3 -21 -17 -57 -24 -57 -12 0 6 4 9 9 5 5 -3 12 -1 16 5 3
5 -3 10 -14 10 -12 0 -21 -6 -21 -14z m50 -46 c8 -5 10 -10 4 -10 -6 0 -11 -8
-11 -17 0 -34 -3 -43 -15 -43 -6 0 -8 3 -5 7 4 3 2 12 -4 20 -9 10 -8 13 1 13
7 0 10 8 7 20 -6 22 0 25 23 10z m66 -3 c4 -3 -3 -5 -15 -2 -11 2 -21 -1 -21
-7 0 -6 -3 -9 -6 -5 -3 3 -3 10 0 15 7 11 31 10 42 -1z m102 -143 c27 -8 28
-16 2 -31 -16 -11 -18 -10 -14 2 4 9 0 15 -10 15 -9 0 -16 5 -16 10 0 11 6 12
38 4z m-184 -152 c3 -5 -1 -9 -9 -9 -8 0 -12 4 -9 9 3 4 7 8 9 8 2 0 6 -4 9
-8z"/>
<path d="M1271 5957 c-21 -26 -18 -127 4 -127 10 0 15 10 15 34 0 19 6 37 13
40 10 5 10 7 0 12 -15 7 -17 34 -3 34 6 0 10 5 10 10 0 14 -26 12 -39 -3z"/>
<path d="M1397 5964 c-8 -8 1 -24 14 -24 5 0 9 7 9 15 0 15 -12 20 -23 9z"/>
<path d="M980 5895 c0 -74 19 -91 21 -17 l1 47 16 -47 c8 -27 21 -48 27 -48 6
0 19 21 27 48 l16 47 1 -47 c1 -36 5 -48 16 -48 12 0 15 14 15 66 0 61 -1 65
-22 62 -15 -2 -26 -15 -37 -48 l-15 -45 -15 48 c-10 33 -20 47 -33 47 -16 0
-18 -9 -18 -65z"/>
<path d="M1331 5933 c-5 -10 -6 -36 -2 -58 5 -31 11 -41 29 -43 12 -2 22 1 22
7 0 6 -4 11 -10 11 -14 0 -12 47 3 54 10 5 10 7 0 12 -7 3 -13 12 -13 20 0 20
-17 18 -29 -3z"/>
<path d="M656 5893 c40 -55 41 -55 39 -36 -5 40 -25 73 -45 73 -20 0 -20 -2 6
-37z"/>
<path d="M726 5922 c-15 -3 -17 -10 -12 -35 6 -32 66 -103 66 -79 0 8 5 10 13
5 27 -17 37 -11 37 24 0 26 -7 40 -31 61 -34 28 -43 31 -73 24z"/>
<path d="M1140 5894 c0 -44 16 -62 55 -62 35 0 35 0 35 44 0 32 -4 44 -15 44
-10 0 -15 -11 -15 -35 0 -24 -5 -35 -15 -35 -10 0 -15 11 -15 35 0 24 -5 35
-15 35 -9 0 -15 -10 -15 -26z"/>
<path d="M1400 5875 c0 -25 5 -45 10 -45 6 0 10 20 10 45 0 25 -4 45 -10 45
-5 0 -10 -20 -10 -45z"/>
<path d="M412 5859 c3 -8 11 -13 18 -11 7 1 18 -3 26 -9 11 -9 14 -8 14 5 0 9
-6 16 -14 16 -8 0 -22 3 -32 7 -12 4 -15 2 -12 -8z"/>
<path d="M481 5833 c1 -17 3 -21 6 -10 2 9 9 17 14 17 6 0 7 5 4 10 -12 19
-25 10 -24 -17z"/>
<path d="M679 5817 c7 -7 7 -15 0 -24 -8 -9 -8 -13 0 -13 6 0 11 5 11 11 0 6
7 3 16 -5 25 -25 30 -19 6 7 -12 13 -20 26 -17 29 3 2 -2 5 -10 5 -11 0 -12
-4 -6 -10z"/>
<path d="M717 5819 c7 -7 15 -10 18 -7 3 3 -2 9 -12 12 -14 6 -15 5 -6 -5z"/>
<path d="M760 5779 c-24 -7 -24 -7 -2 -8 12 -1 22 -7 22 -15 0 -9 7 -13 18
-11 15 3 17 -2 14 -27 -3 -21 -1 -29 7 -24 15 10 14 63 -1 69 -10 4 -10 6 0 6
6 1 12 4 12 9 0 10 -39 11 -70 1z"/>
<path d="M606 5743 c-6 -14 -5 -15 5 -6 7 7 10 15 7 18 -3 3 -9 -2 -12 -12z"/>
<path d="M700 5745 c-9 -10 -9 -15 -1 -15 6 0 11 5 11 11 0 5 5 7 12 3 7 -4 8
-3 4 4 -9 15 -11 15 -26 -3z"/>
<path d="M643 5725 c0 -14 3 -28 8 -31 5 -3 9 6 9 20 0 14 -4 27 -9 30 -5 3
-8 -6 -8 -19z"/>
<path d="M750 5734 c0 -7 11 -19 25 -28 14 -9 25 -12 25 -6 0 6 -8 14 -17 17
-10 4 -21 11 -25 17 -5 8 -8 8 -8 0z"/>
<path d="M575 5690 c-9 -16 -13 -30 -11 -30 3 0 12 14 21 30 9 17 13 30 11 30
-3 0 -12 -13 -21 -30z"/>
<path d="M1280 5626 c0 -2 7 -7 16 -10 8 -3 12 -2 9 4 -6 10 -25 14 -25 6z"/>
<path d="M1410 5626 c0 -2 11 -6 25 -8 13 -3 22 -1 19 3 -5 9 -44 13 -44 5z"/>
<path d="M2268 5623 c7 -3 16 -2 19 1 4 3 -2 6 -13 5 -11 0 -14 -3 -6 -6z"/>
<path d="M2318 5623 c6 -2 18 -2 25 0 6 3 1 5 -13 5 -14 0 -19 -2 -12 -5z"/>
<path d="M2378 5623 c7 -3 16 -2 19 1 4 3 -2 6 -13 5 -11 0 -14 -3 -6 -6z"/>
<path d="M2550 5626 c0 -2 7 -7 16 -10 8 -3 12 -2 9 4 -6 10 -25 14 -25 6z"/>
<path d="M2600 5626 c0 -2 9 -6 20 -9 11 -3 18 -1 14 4 -5 9 -34 13 -34 5z"/>
<path d="M2768 5623 c7 -3 16 -2 19 1 4 3 -2 6 -13 5 -11 0 -14 -3 -6 -6z"/>
<path d="M2816 5621 c-4 -5 3 -7 14 -4 23 6 26 13 6 13 -8 0 -17 -4 -20 -9z"/>
<path d="M2873 5623 c9 -2 23 -2 30 0 6 3 -1 5 -18 5 -16 0 -22 -2 -12 -5z"/>
<path d="M780 5589 c-36 -32 -26 -28 24 9 16 12 25 22 19 22 -5 0 -24 -14 -43
-31z"/>
<path d="M976 5602 c-2 -4 4 -8 14 -8 10 0 16 4 14 8 -3 4 -9 8 -14 8 -5 0
-11 -4 -14 -8z"/>
<path d="M1490 5606 c0 -2 9 -6 20 -9 11 -3 18 -1 14 4 -5 9 -34 13 -34 5z"/>
<path d="M1560 5605 c0 -8 29 -12 39 -5 9 5 4 8 -13 8 -14 0 -26 -2 -26 -3z"/>
<path d="M1766 5601 c-4 -5 3 -7 14 -4 23 6 26 13 6 13 -8 0 -17 -4 -20 -9z"/>
<path d="M1817 5603 c-3 -5 5 -8 18 -8 13 0 21 3 18 8 -2 4 -10 7 -18 7 -8 0
-16 -3 -18 -7z"/>
<path d="M1915 5600 c-3 -6 1 -7 9 -4 18 7 21 14 7 14 -6 0 -13 -4 -16 -10z"/>
<path d="M1996 5591 c-4 -5 -2 -12 3 -15 5 -4 12 -2 15 3 4 5 2 12 -3 15 -5 4
-12 2 -15 -3z"/>
<path d="M2310 5596 c0 -2 9 -6 20 -9 11 -3 18 -1 14 4 -5 9 -34 13 -34 5z"/>
<path d="M2370 5596 c0 -2 9 -6 20 -9 11 -3 18 -1 14 4 -5 9 -34 13 -34 5z"/>
<path d="M2815 5590 c-3 -6 1 -7 9 -4 18 7 21 14 7 14 -6 0 -13 -4 -16 -10z"/>
<path d="M1481 5577 c-1 -21 26 -34 41 -19 8 8 5 9 -10 6 -14 -4 -22 0 -25 13
-4 17 -5 17 -6 0z"/>
<path d="M1648 5583 c7 -3 16 -2 19 1 4 3 -2 6 -13 5 -11 0 -14 -3 -6 -6z"/>
<path d="M2083 5583 c9 -2 23 -2 30 0 6 3 -1 5 -18 5 -16 0 -22 -2 -12 -5z"/>
<path d="M2630 5577 c0 -8 -8 -18 -17 -20 -17 -4 -17 -5 0 -6 18 -1 35 25 23
36 -3 4 -6 -1 -6 -10z"/>
<path d="M2690 5579 c0 -5 11 -9 25 -9 14 0 25 2 25 4 0 2 -11 6 -25 8 -14 3
-25 1 -25 -3z"/>
<path d="M1421 5570 c-9 -5 -4 -7 13 -7 29 0 32 2 13 10 -8 3 -20 2 -26 -3z"/>
<path d="M2658 5573 c7 -3 16 -2 19 1 4 3 -2 6 -13 5 -11 0 -14 -3 -6 -6z"/>
<path d="M1080 5560 c-9 -6 -10 -10 -3 -10 6 0 15 5 18 10 8 12 4 12 -15 0z"/>
<path d="M1290 5560 c-9 -6 -10 -10 -3 -10 6 0 15 5 18 10 8 12 4 12 -15 0z"/>
<path d="M1640 5556 c7 -7 13 -7 20 0 6 6 3 10 -10 10 -13 0 -16 -4 -10 -10z"/>
<path d="M1768 5558 c5 -5 16 -8 23 -6 8 3 3 7 -10 11 -17 4 -21 3 -13 -5z"/>
<path d="M1817 5558 c2 -5 10 -8 18 -8 8 0 16 3 18 8 3 4 -5 7 -18 7 -13 0
-21 -3 -18 -7z"/>
<path d="M2265 5560 c-16 -7 -17 -9 -3 -9 9 -1 20 4 23 9 7 11 7 11 -20 0z"/>
<path d="M2325 5560 c-16 -7 -17 -9 -3 -9 9 -1 20 4 23 9 7 11 7 11 -20 0z"/>
<path d="M2385 5560 c-16 -7 -17 -9 -3 -9 9 -1 20 4 23 9 7 11 7 11 -20 0z"/>
<path d="M2765 5560 c-16 -7 -17 -9 -3 -9 9 -1 20 4 23 9 7 11 7 11 -20 0z"/>
<path d="M738 5549 c6 -9 9 -19 5 -22 -3 -4 -2 -7 4 -7 5 0 18 10 29 21 19 22
19 22 -2 11 -16 -8 -24 -8 -34 1 -12 10 -12 9 -2 -4z"/>
<path d="M2548 5553 c6 -2 18 -2 25 0 6 3 1 5 -13 5 -14 0 -19 -2 -12 -5z"/>
<path d="M1418 5543 c6 -2 18 -2 25 0 6 3 1 5 -13 5 -14 0 -19 -2 -12 -5z"/>
<path d="M720 5533 c0 -7 -9 -22 -20 -33 l-20 -20 23 0 c13 0 32 7 43 16 17
14 17 15 1 10 -10 -3 -16 -2 -13 2 2 4 1 14 -5 22 -6 10 -9 11 -9 3z"/>
<path d="M1498 5533 c7 -3 16 -2 19 1 4 3 -2 6 -13 5 -11 0 -14 -3 -6 -6z"/>
<path d="M507 5517 c-3 -8 -2 -20 3 -26 5 -9 8 -4 8 13 0 29 -3 32 -11 13z"/>
<path d="M251 5208 c1 -24 4 -33 6 -21 2 12 12 24 21 26 15 4 15 5 0 6 -10 0
-18 5 -18 10 0 5 8 12 18 14 13 4 11 5 -5 6 -21 1 -23 -3 -22 -41z"/>
<path d="M498 5239 c-6 -17 3 -69 11 -69 7 0 6 69 -2 76 -3 3 -7 0 -9 -7z"/>
<path d="M1308 5239 c-6 -17 3 -69 11 -69 7 0 6 69 -2 76 -3 3 -7 0 -9 -7z"/>
<path d="M1448 5243 c7 -3 16 -2 19 1 4 3 -2 6 -13 5 -11 0 -14 -3 -6 -6z"/>
<path d="M3021 5212 c-1 -39 1 -43 22 -40 16 2 22 10 22 28 0 16 -6 25 -15 25
-8 0 -18 7 -22 15 -4 8 -7 -4 -7 -28z m39 -12 c0 -11 -7 -20 -15 -20 -15 0
-21 21 -8 33 12 13 23 7 23 -13z"/>
<path d="M3321 5212 c-1 -39 1 -43 22 -40 16 2 22 10 22 28 0 16 -6 25 -15 25
-8 0 -18 7 -22 15 -4 8 -7 -4 -7 -28z m39 -12 c0 -11 -7 -20 -15 -20 -15 0
-21 21 -8 33 12 13 23 7 23 -13z"/>
<path d="M3891 5208 c1 -24 3 -35 6 -25 3 11 11 16 19 13 8 -3 12 -2 9 3 -3 5
-1 12 4 16 16 9 1 35 -20 35 -16 0 -19 -7 -18 -42z m31 17 c0 -5 -5 -11 -11
-13 -6 -2 -11 4 -11 13 0 9 5 15 11 13 6 -2 11 -8 11 -13z"/>
<path d="M4218 5211 c15 -21 28 -37 30 -36 5 5 -42 75 -50 75 -4 0 5 -18 20
-39z"/>
<path d="M4370 5241 c0 -5 -9 -11 -21 -14 -29 -8 -22 -51 9 -55 20 -3 22 1 22
37 0 23 -2 41 -5 41 -3 0 -5 -4 -5 -9z m0 -41 c0 -11 -7 -20 -15 -20 -8 0 -15
9 -15 20 0 11 7 20 15 20 8 0 15 -9 15 -20z"/>
<path d="M5030 5241 c0 -5 -9 -11 -21 -14 -29 -8 -22 -51 9 -55 20 -3 22 1 22
37 0 23 -2 41 -5 41 -3 0 -5 -4 -5 -9z m0 -41 c0 -11 -7 -20 -15 -20 -8 0 -15
9 -15 20 0 11 7 20 15 20 8 0 15 -9 15 -20z"/>
<path d="M5208 5239 c-6 -17 3 -69 11 -69 7 0 6 69 -2 76 -3 3 -7 0 -9 -7z"/>
<path d="M457 5223 c-11 -11 -8 -21 9 -27 14 -5 15 -4 5 8 -9 11 -9 15 1 19 7
3 8 6 2 6 -6 1 -14 -2 -17 -6z"/>
<path d="M544 5222 c18 -8 18 -9 3 -15 -24 -9 -21 -37 3 -37 11 0 20 4 20 10
0 5 -7 7 -15 4 -8 -4 -15 -1 -15 5 0 6 7 11 16 11 22 0 12 24 -12 27 -19 3
-19 3 0 -5z"/>
<path d="M591 5216 c-14 -17 -4 -46 17 -46 13 0 12 3 -4 15 -19 15 -19 15 0
30 11 8 15 15 9 15 -6 0 -16 -6 -22 -14z"/>
<path d="M647 5212 c-15 -16 -15 -19 3 -30 28 -17 34 -15 15 5 -16 16 -16 17
1 30 10 7 13 13 7 13 -5 0 -17 -8 -26 -18z"/>
<path d="M716 5215 c-8 -23 4 -45 25 -45 10 0 19 4 19 9 0 5 -8 8 -17 7 -10 0
-18 6 -18 14 0 8 8 14 18 14 9 -1 17 2 17 7 0 15 -38 10 -44 -6z"/>
<path d="M800 5221 c12 -9 11 -11 -9 -11 -17 0 -22 -4 -17 -16 3 -9 6 -18 6
-20 0 -2 10 -4 23 -3 21 0 21 1 -3 11 l-25 11 23 5 c25 4 25 23 1 30 -11 3
-11 2 1 -7z"/>
<path d="M884 5215 c-9 -23 3 -45 23 -44 17 1 17 2 1 6 -25 6 -22 21 5 26 21
4 21 4 -3 6 -23 2 -24 3 -5 11 18 8 18 9 2 9 -10 1 -20 -6 -23 -14z"/>
<path d="M964 5215 c-13 -32 23 -63 40 -36 4 5 -3 7 -14 4 -16 -4 -20 0 -20
17 0 17 4 21 20 17 11 -3 18 -1 14 4 -8 14 -34 11 -40 -6z"/>
<path d="M1031 5221 c-10 -7 -7 -9 12 -8 15 1 27 5 27 10 0 10 -22 9 -39 -2z"/>
<path d="M1110 5221 c12 -9 11 -11 -9 -11 -17 0 -22 -4 -17 -16 3 -9 6 -18 6
-20 0 -2 10 -4 23 -3 21 0 21 1 -3 11 l-25 11 23 5 c25 4 25 23 1 30 -11 3
-11 2 1 -7z"/>
<path d="M1142 5200 c0 -19 2 -27 5 -17 2 9 2 25 0 35 -3 9 -5 1 -5 -18z"/>
<path d="M1230 5221 c0 -5 5 -13 10 -16 6 -3 10 -2 10 4 0 5 -4 13 -10 16 -5
3 -10 2 -10 -4z"/>
<path d="M1351 5221 c-10 -7 -7 -9 12 -8 14 1 23 5 20 10 -6 9 -15 9 -32 -2z"/>
<path d="M1708 5223 c7 -3 16 -2 19 1 4 3 -2 6 -13 5 -11 0 -14 -3 -6 -6z"/>
<path d="M1750 5220 c0 -5 7 -7 15 -4 8 4 15 2 15 -4 0 -5 7 -13 16 -16 14 -5
15 -4 5 8 -9 11 -9 15 1 18 7 3 -2 5 -19 6 -18 0 -33 -3 -33 -8z"/>
<path d="M1880 5221 c12 -9 11 -11 -9 -11 -17 0 -22 -4 -17 -16 3 -9 6 -18 6
-20 0 -2 10 -4 23 -3 21 0 21 1 -3 11 l-25 11 23 5 c25 4 25 23 1 30 -11 3
-11 2 1 -7z"/>
<path d="M1913 5197 c0 -18 2 -26 5 -19 3 10 7 10 18 1 12 -10 13 -8 7 7 -4
10 -12 24 -18 31 -9 8 -12 3 -12 -20z"/>
<path d="M1960 5186 c0 -22 4 -36 8 -30 4 6 15 13 25 17 27 10 19 52 -10 53
-20 1 -23 -3 -23 -40z m40 14 c0 -11 -7 -20 -15 -20 -15 0 -21 21 -8 33 12 13
23 7 23 -13z"/>
<path d="M2024 5215 c-9 -23 3 -45 23 -44 17 1 17 2 1 6 -25 6 -22 21 5 26 21
4 21 4 -3 6 -23 2 -24 3 -5 11 18 8 18 9 2 9 -10 1 -20 -6 -23 -14z"/>
<path d="M2085 5220 c-3 -6 1 -7 9 -4 18 7 21 14 7 14 -6 0 -13 -4 -16 -10z"/>
<path d="M2201 5221 c-10 -7 -7 -9 12 -8 14 1 23 5 20 10 -6 9 -15 9 -32 -2z"/>
<path d="M2254 5215 c-9 -23 3 -45 23 -44 17 1 17 2 1 6 -10 2 -18 13 -18 23
0 10 8 21 18 23 16 4 16 5 -1 6 -10 0 -20 -6 -23 -14z"/>
<path d="M2304 5215 c-9 -23 3 -45 23 -44 17 1 17 2 1 6 -25 6 -22 21 5 26 21
4 21 4 -3 6 -23 2 -24 3 -5 11 18 8 18 9 2 9 -10 1 -20 -6 -23 -14z"/>
<path d="M2396 5221 c-4 -5 3 -7 15 -4 17 5 20 2 17 -13 -2 -11 -11 -18 -21
-18 -9 1 -17 -2 -17 -7 0 -5 9 -9 19 -9 20 0 37 32 26 50 -8 12 -32 13 -39 1z"/>
<path d="M2566 5222 c-2 -4 4 -8 15 -8 10 0 19 4 19 8 0 4 -6 8 -14 8 -8 0
-17 -4 -20 -8z"/>
<path d="M2651 5221 c-10 -7 -7 -9 12 -8 14 1 23 5 20 10 -6 9 -15 9 -32 -2z"/>
<path d="M2707 5223 c-15 -15 -6 -45 16 -51 22 -6 22 -6 -3 -13 l-25 -8 25 2
c21 2 25 8 28 40 3 31 0 37 -16 37 -10 0 -22 -3 -25 -7z m33 -23 c0 -11 -7
-20 -15 -20 -8 0 -15 9 -15 20 0 11 7 20 15 20 8 0 15 -9 15 -20z"/>
<path d="M2797 5223 c-11 -11 -8 -21 9 -27 14 -5 15 -4 5 8 -9 11 -9 15 1 19
7 3 8 6 2 6 -6 1 -14 -2 -17 -6z"/>
<path d="M2846 5221 c-4 -5 3 -7 14 -4 23 6 26 13 6 13 -8 0 -17 -4 -20 -9z"/>
<path d="M2898 5223 c7 -3 16 -2 19 1 4 3 -2 6 -13 5 -11 0 -14 -3 -6 -6z"/>
<path d="M2978 5223 c7 -3 16 -2 19 1 4 3 -2 6 -13 5 -11 0 -14 -3 -6 -6z"/>
<path d="M3130 5221 c12 -9 11 -11 -9 -11 -17 0 -22 -4 -17 -16 3 -9 6 -18 6
-20 0 -2 10 -4 23 -3 21 0 21 1 -3 11 l-25 11 23 5 c25 4 25 23 1 30 -11 3
-11 2 1 -7z"/>
<path d="M3290 5221 c12 -9 11 -11 -9 -11 -17 0 -22 -4 -17 -16 3 -9 6 -18 6
-20 0 -2 10 -4 23 -3 21 0 21 1 -3 11 l-25 11 23 5 c25 4 25 23 1 30 -11 3
-11 2 1 -7z"/>
<path d="M3424 5222 c18 -8 18 -9 3 -15 -24 -9 -21 -37 3 -37 11 0 20 4 20 10
0 5 -7 7 -15 4 -8 -4 -15 -1 -15 5 0 6 7 11 16 11 22 0 12 24 -12 27 -19 3
-19 3 0 -5z"/>
<path d="M3476 5221 c-4 -5 3 -7 15 -4 17 5 20 2 17 -13 -2 -11 -11 -18 -21
-18 -9 1 -17 -2 -17 -7 0 -5 9 -9 19 -9 20 0 37 32 26 50 -8 12 -32 13 -39 1z"/>
<path d="M3536 5221 c-4 -5 3 -7 15 -4 17 5 20 2 17 -13 -2 -11 -11 -18 -21
-18 -9 1 -17 -2 -17 -7 0 -5 9 -9 19 -9 20 0 37 32 26 50 -8 12 -32 13 -39 1z"/>
<path d="M3598 5223 c7 -3 16 -2 19 1 4 3 -2 6 -13 5 -11 0 -14 -3 -6 -6z"/>
<path d="M3768 5223 c7 -3 16 -2 19 1 4 3 -2 6 -13 5 -11 0 -14 -3 -6 -6z"/>
<path d="M3800 5222 c0 -4 9 -8 20 -8 11 0 20 4 20 8 0 4 -9 8 -20 8 -11 0
-20 -4 -20 -8z"/>
<path d="M3970 5221 c12 -9 11 -11 -9 -11 -17 0 -22 -4 -17 -16 3 -9 6 -18 6
-20 0 -2 10 -4 23 -3 21 0 21 1 -3 11 l-25 11 23 5 c25 4 25 23 1 30 -11 3
-11 2 1 -7z"/>
<path d="M4014 5222 c18 -8 18 -9 3 -15 -24 -9 -21 -37 3 -37 11 0 20 4 20 10
0 5 -7 7 -15 4 -8 -4 -15 -1 -15 5 0 6 7 11 16 11 22 0 12 24 -12 27 -19 3
-19 3 0 -5z"/>
<path d="M4061 5216 c-14 -17 -4 -46 17 -46 13 0 12 3 -4 14 -23 18 -12 33 31
39 l30 4 -31 2 c-17 0 -37 -5 -43 -13z"/>
<path d="M4276 5221 c-3 -5 3 -7 14 -4 16 4 20 0 20 -17 0 -18 -4 -21 -21 -17
-16 4 -19 3 -11 -5 17 -17 44 -1 40 24 -3 24 -32 36 -42 19z"/>
<path d="M4408 5223 c7 -3 16 -2 19 1 4 3 -2 6 -13 5 -11 0 -14 -3 -6 -6z"/>
<path d="M4496 5221 c-3 -5 1 -15 10 -22 14 -12 14 -14 -3 -20 -16 -7 -16 -8
-1 -8 25 -1 33 20 12 32 -17 10 -17 11 1 18 16 6 17 8 3 8 -9 1 -19 -3 -22 -8z"/>
<path d="M4604 5222 c18 -8 18 -9 3 -15 -24 -9 -21 -37 3 -37 11 0 20 4 20 10
0 5 -7 7 -15 4 -8 -4 -15 -1 -15 5 0 6 7 11 16 11 22 0 12 24 -12 27 -19 3
-19 3 0 -5z"/>
<path d="M4656 5222 c-2 -4 4 -8 15 -8 10 0 19 4 19 8 0 4 -6 8 -14 8 -8 0
-17 -4 -20 -8z"/>
<path d="M4706 5215 c-8 -23 4 -45 25 -45 10 0 19 4 19 9 0 5 -8 8 -17 7 -10
0 -18 6 -18 14 0 8 8 14 18 14 9 -1 17 2 17 7 0 15 -38 10 -44 -6z"/>
<path d="M4801 5216 c-14 -17 -4 -46 17 -46 13 0 12 3 -4 15 -19 15 -19 15 0
30 11 8 15 15 9 15 -6 0 -16 -6 -22 -14z"/>
<path d="M4876 5221 c-3 -5 3 -7 14 -4 16 4 20 0 20 -17 0 -18 -4 -21 -21 -17
-16 4 -19 3 -11 -5 17 -17 44 -1 40 24 -3 24 -32 36 -42 19z"/>
<path d="M5101 5221 c-10 -7 -7 -9 12 -8 14 1 23 5 20 10 -6 9 -15 9 -32 -2z"/>
<path d="M5168 5223 c7 -3 16 -2 19 1 4 3 -2 6 -13 5 -11 0 -14 -3 -6 -6z"/>
<path d="M5407 5223 c-11 -11 -8 -21 9 -27 14 -5 15 -4 5 8 -9 11 -9 15 1 19
7 3 8 6 2 6 -6 1 -14 -2 -17 -6z"/>
<path d="M5470 5221 c12 -9 11 -11 -9 -11 -17 0 -22 -4 -17 -16 3 -9 6 -18 6
-20 0 -2 10 -4 23 -3 21 0 21 1 -3 11 l-25 11 23 5 c25 4 25 23 1 30 -11 3
-11 2 1 -7z"/>
<path d="M5502 5200 c0 -19 2 -27 5 -17 2 9 2 25 0 35 -3 9 -5 1 -5 -18z"/>
<path d="M5614 5215 c-9 -23 3 -45 23 -44 17 1 17 2 1 6 -10 2 -18 13 -18 23
0 10 8 21 18 23 16 4 16 5 -1 6 -10 0 -20 -6 -23 -14z"/>
<path d="M5664 5215 c-9 -23 3 -45 23 -44 17 1 17 2 1 6 -26 7 -22 20 7 25 30
6 56 -18 28 -25 -16 -4 -16 -5 -1 -6 25 -2 34 20 12 32 -17 10 -17 11 1 18 16
6 17 8 3 8 -9 1 -20 -3 -23 -9 -3 -5 -16 -10 -28 -9 -21 0 -21 1 -2 9 18 8 18
9 2 9 -10 1 -20 -6 -23 -14z"/>
<path d="M1430 5216 c0 -2 9 -6 20 -9 11 -3 20 -1 20 4 0 5 -9 9 -20 9 -11 0
-20 -2 -20 -4z"/>
<path d="M1503 5203 c9 -2 23 -2 30 0 6 3 -1 5 -18 5 -16 0 -22 -2 -12 -5z"/>
<path d="M1648 5203 c6 -2 18 -2 25 0 6 3 1 5 -13 5 -14 0 -19 -2 -12 -5z"/>
<path d="M1695 5200 c-3 -5 -3 -14 0 -20 8 -13 35 -13 35 0 0 5 -7 7 -15 4 -8
-4 -15 -1 -15 4 0 6 8 13 18 15 15 4 15 5 0 6 -9 0 -20 -3 -23 -9z"/>
<path d="M2148 5203 c6 -2 18 -2 25 0 6 3 1 5 -13 5 -14 0 -19 -2 -12 -5z"/>
<path d="M2895 5200 c-3 -6 1 -7 9 -4 9 3 16 1 16 -4 0 -6 -8 -13 -17 -15 -14
-4 -12 -5 5 -6 16 -1 22 5 22 19 0 21 -24 28 -35 10z"/>
<path d="M2978 5203 c6 -2 18 -2 25 0 6 3 1 5 -13 5 -14 0 -19 -2 -12 -5z"/>
<path d="M3597 5199 c7 -7 15 -10 18 -7 3 3 -2 9 -12 12 -14 6 -15 5 -6 -5z"/>
<path d="M4392 5193 c2 -10 12 -19 23 -20 16 -1 16 -1 3 3 -25 8 -22 22 5 27
18 4 17 5 -6 6 -22 1 -28 -3 -25 -16z"/>
<path d="M5155 5200 c-3 -5 -3 -14 0 -20 8 -13 35 -13 35 0 0 5 -7 7 -15 4 -8
-4 -15 -1 -15 4 0 6 8 13 18 15 15 4 15 5 0 6 -9 0 -20 -3 -23 -9z"/>
<path d="M5328 5203 c6 -2 18 -2 25 0 6 3 1 5 -13 5 -14 0 -19 -2 -12 -5z"/>
<path d="M418 5193 c7 -3 16 -2 19 1 4 3 -2 6 -13 5 -11 0 -14 -3 -6 -6z"/>
<path d="M1210 5191 c0 -5 5 -13 10 -16 6 -3 10 -2 10 4 0 5 -4 13 -10 16 -5
3 -10 2 -10 -4z"/>
<path d="M1603 5183 c-4 -10 -11 -22 -17 -26 -7 -6 -6 -7 3 -5 13 4 37 48 25
48 -2 0 -8 -8 -11 -17z"/>
<path d="M5058 5193 c7 -3 16 -2 19 1 4 3 -2 6 -13 5 -11 0 -14 -3 -6 -6z"/>
<path d="M310 5176 c4 -4 16 -4 26 2 16 9 14 10 -8 9 -15 -1 -23 -6 -18 -11z"/>
<path d="M1027 5178 c2 -5 10 -8 18 -8 8 0 16 3 18 8 3 4 -5 7 -18 7 -13 0
-21 -3 -18 -7z"/>
<path d="M1445 5180 c-16 -7 -17 -9 -3 -9 9 -1 20 4 23 9 7 11 7 11 -20 0z"/>
<path d="M1648 5178 c5 -5 16 -8 23 -6 8 3 3 7 -10 11 -17 4 -21 3 -13 -5z"/>
<path d="M2148 5178 c5 -5 16 -8 23 -6 8 3 3 7 -10 11 -17 4 -21 3 -13 -5z"/>
<path d="M2450 5178 c0 -4 9 -8 20 -8 11 0 20 4 20 8 0 4 -9 8 -20 8 -11 0
-20 -4 -20 -8z"/>
<path d="M2560 5178 c0 -4 9 -8 20 -8 11 0 20 4 20 8 0 4 -9 8 -20 8 -11 0
-20 -4 -20 -8z"/>
<path d="M2848 5178 c5 -5 16 -8 23 -6 8 3 3 7 -10 11 -17 4 -21 3 -13 -5z"/>
<path d="M2967 5178 c2 -5 10 -8 18 -8 8 0 16 3 18 8 3 4 -5 7 -18 7 -13 0
-21 -3 -18 -7z"/>
<path d="M3235 5180 c3 -5 8 -10 11 -10 2 0 4 5 4 10 0 6 -5 10 -11 10 -5 0
-7 -4 -4 -10z"/>
<path d="M3705 5180 c3 -5 8 -10 11 -10 2 0 4 5 4 10 0 6 -5 10 -11 10 -5 0
-7 -4 -4 -10z"/>
<path d="M4940 5176 c4 -4 16 -4 26 2 16 9 14 10 -8 9 -15 -1 -23 -6 -18 -11z"/>
<path d="M5328 5178 c5 -5 16 -8 23 -6 8 3 3 7 -10 11 -17 4 -21 3 -13 -5z"/>
<path d="M458 5173 c7 -3 16 -2 19 1 4 3 -2 6 -13 5 -11 0 -14 -3 -6 -6z"/>
<path d="M1788 5173 c7 -3 16 -2 19 1 4 3 -2 6 -13 5 -11 0 -14 -3 -6 -6z"/>
<path d="M2798 5173 c7 -3 16 -2 19 1 4 3 -2 6 -13 5 -11 0 -14 -3 -6 -6z"/>
<path d="M3598 5173 c7 -3 16 -2 19 1 4 3 -2 6 -13 5 -11 0 -14 -3 -6 -6z"/>
<path d="M5408 5173 c7 -3 16 -2 19 1 4 3 -2 6 -13 5 -11 0 -14 -3 -6 -6z"/>
<path d="M4460 5160 c-9 -6 -10 -10 -3 -10 6 0 15 5 18 10 8 12 4 12 -15 0z"/>
<path d="M250 4780 l0 -50 33 1 c23 1 26 3 10 6 -27 5 -31 39 -5 46 16 4 16 5
0 6 -10 0 -18 7 -18 15 0 8 8 17 18 19 10 3 6 5 -10 6 -27 1 -28 -1 -28 -49z"/>
<path d="M370 4812 c0 -13 -7 -18 -22 -18 -19 1 -23 -4 -23 -29 0 -26 4 -30
28 -31 26 -1 27 1 27 47 0 27 -2 49 -5 49 -3 0 -5 -8 -5 -18z m-3 -38 c8 -21
-13 -42 -28 -27 -13 13 -5 43 11 43 6 0 13 -7 17 -16z"/>
<path d="M618 4808 c-6 -19 5 -71 17 -75 13 -4 11 65 -2 78 -7 7 -12 6 -15 -3z"/>
<path d="M403 4770 c2 -31 5 -35 30 -36 25 -1 27 2 26 35 -1 36 -1 36 -8 6 -3
-17 -13 -30 -21 -30 -8 0 -18 13 -22 30 -6 29 -6 29 -5 -5z"/>
<path d="M492 4791 c-23 -14 -10 -56 18 -58 25 -3 25 -3 3 7 -13 5 -23 16 -23
25 0 9 10 20 23 25 12 5 15 9 7 9 -8 0 -21 -3 -28 -8z"/>
<path d="M563 4794 c23 -7 22 -20 -4 -27 -22 -6 -22 -28 -1 -35 7 -2 10 2 6
12 -3 9 -1 16 5 16 6 0 11 -7 11 -15 0 -8 5 -15 11 -15 6 0 9 14 7 33 -2 26
-8 32 -28 34 -14 1 -18 0 -7 -3z"/>
<path d="M660 4765 c0 -19 5 -35 10 -35 6 0 10 16 10 35 0 19 -4 35 -10 35 -5
0 -10 -16 -10 -35z"/>
<path d="M701 4782 c-12 -23 4 -52 29 -52 25 0 41 30 29 53 -13 22 -46 22 -58
-1z m46 -8 c8 -21 -13 -42 -28 -27 -13 13 -5 43 11 43 6 0 13 -7 17 -16z"/>
<path d="M781 4761 c1 -36 1 -36 8 -6 3 17 13 30 21 30 8 0 18 -13 22 -30 6
-29 6 -29 5 5 -2 31 -5 35 -29 36 -26 1 -28 -2 -27 -35z"/>
<path d="M250 4500 c0 -37 2 -41 23 -38 18 2 22 9 22 38 -1 28 -5 36 -23 38
-20 3 -22 -1 -22 -38z m30 20 c0 -5 -4 -10 -10 -10 -5 0 -10 5 -10 10 0 6 5
10 10 10 6 0 10 -4 10 -10z m10 -35 c0 -8 -7 -15 -15 -15 -8 0 -15 7 -15 15 0
8 7 15 15 15 8 0 15 -7 15 -15z"/>
<path d="M422 4500 c1 -28 3 -34 5 -17 2 15 8 27 13 27 5 0 11 -12 13 -27 4
-26 4 -26 6 5 1 22 -4 32 -13 32 -8 0 -17 6 -19 13 -3 6 -5 -8 -5 -33z"/>
<path d="M533 4500 c0 -25 2 -35 4 -22 2 12 2 32 0 45 -2 12 -4 2 -4 -23z"/>
<path d="M886 4524 c-19 -18 -19 -20 -6 -45 6 -10 21 -19 33 -18 l22 0 -22 9
c-14 6 -23 18 -23 30 0 12 9 24 23 30 16 6 17 9 5 9 -9 1 -24 -6 -32 -15z"/>
<path d="M1384 4528 c-4 -6 2 -19 14 -29 28 -22 28 -29 0 -30 -19 -1 -20 -2
-4 -6 29 -8 43 13 23 35 -21 23 -21 29 1 35 13 4 12 5 -5 6 -12 0 -25 -4 -29
-11z"/>
<path d="M1228 4525 c-6 -7 3 -65 11 -65 7 0 7 58 -1 65 -2 3 -7 3 -10 0z"/>
<path d="M328 4511 c11 -7 11 -9 -2 -14 -23 -9 -20 -37 4 -37 16 0 20 7 20 30
0 22 -5 30 -17 30 -14 0 -15 -2 -5 -9z m12 -31 c0 -5 -4 -10 -10 -10 -5 0 -10
5 -10 10 0 6 5 10 10 10 6 0 10 -4 10 -10z"/>
<path d="M370 4505 c-10 -12 -10 -18 0 -30 7 -8 18 -15 24 -14 7 0 6 2 -1 6
-19 7 -16 41 5 46 14 4 14 5 1 6 -9 0 -22 -6 -29 -14z"/>
<path d="M481 4507 c-16 -20 -3 -47 23 -46 20 0 19 1 -4 11 l-25 11 23 5 c13
2 21 9 19 15 -5 17 -23 19 -36 4z"/>
<path d="M564 4506 c-9 -24 4 -48 23 -44 12 2 18 12 18 28 0 29 -32 41 -41 16z
m36 -16 c0 -11 -7 -20 -15 -20 -8 0 -15 9 -15 20 0 11 7 20 15 20 8 0 15 -9
15 -20z"/>
<path d="M621 4488 c1 -22 3 -26 6 -13 3 11 10 26 15 33 8 9 6 12 -6 12 -12 0
-16 -9 -15 -32z"/>
<path d="M686 4511 c-3 -5 1 -15 10 -22 14 -12 14 -14 -3 -20 -16 -7 -16 -8
-1 -8 25 -1 33 20 12 32 -17 10 -17 11 1 18 16 6 17 8 3 8 -9 1 -19 -3 -22 -8z"/>
<path d="M762 4490 c0 -19 2 -27 5 -17 2 9 2 25 0 35 -3 9 -5 1 -5 -18z"/>
<path d="M791 4488 c2 -31 2 -31 6 -5 2 15 8 27 13 27 5 0 11 -12 13 -27 4
-26 4 -26 6 5 1 26 -3 32 -19 32 -16 0 -20 -6 -19 -32z"/>
<path d="M944 4506 c-9 -24 4 -48 23 -44 12 2 18 12 18 28 0 29 -32 41 -41 16z
m36 -16 c0 -11 -7 -20 -15 -20 -8 0 -15 9 -15 20 0 11 7 20 15 20 8 0 15 -9
15 -20z"/>
<path d="M1001 4488 c1 -29 2 -30 8 -9 9 34 29 37 34 6 4 -24 4 -24 3 2 -1 21
-7 29 -23 31 -20 3 -23 -1 -22 -30z"/>
<path d="M1068 4490 c2 -16 6 -30 8 -30 2 0 4 14 4 30 0 17 -4 30 -8 30 -5 0
-7 -13 -4 -30z"/>
<path d="M1102 4480 c-1 -25 2 -40 6 -34 4 6 15 13 25 17 21 8 20 49 -1 53 -7
1 -8 0 -2 -3 15 -7 12 -43 -4 -43 -8 0 -17 12 -19 28 -3 17 -4 11 -5 -18z"/>
<path d="M1164 4490 c1 -18 7 -26 24 -28 19 -3 22 1 21 30 -1 29 -2 30 -8 9
-9 -33 -29 -38 -34 -9 -4 21 -4 21 -3 -2z"/>
<path d="M1264 4506 c-9 -23 3 -46 23 -45 17 1 17 2 1 6 -22 6 -24 23 -2 23 9
0 14 5 12 12 -7 19 -27 21 -34 4z"/>
<path d="M1321 4488 c2 -28 2 -29 6 -8 3 14 10 28 17 32 7 5 5 8 -6 8 -14 0
-18 -8 -17 -32z"/>
<path d="M1444 4505 c-9 -23 3 -45 23 -44 17 1 17 2 1 6 -10 2 -18 11 -18 18
0 8 8 19 18 24 16 10 16 10 -1 11 -10 0 -20 -7 -23 -15z"/>
<path d="M1492 4490 c0 -19 2 -27 5 -17 2 9 2 25 0 35 -3 9 -5 1 -5 -18z"/>
<path d="M1521 4507 c-16 -20 -3 -47 23 -46 20 0 19 1 -4 11 l-25 11 23 5 c13
2 21 9 19 15 -5 17 -23 19 -36 4z"/>
<path d="M1571 4488 c1 -29 2 -30 8 -9 9 34 29 37 34 6 4 -24 4 -24 3 2 -1 21
-7 29 -23 31 -20 3 -23 -1 -22 -30z"/>
<path d="M1634 4505 c-9 -22 3 -45 23 -45 15 0 15 2 -3 15 -19 15 -19 15 0 30
18 13 18 15 3 15 -10 0 -20 -7 -23 -15z"/>
<path d="M1684 4506 c-9 -23 3 -46 23 -45 17 1 17 2 1 6 -25 6 -22 23 3 23 12
0 19 5 17 13 -7 18 -37 21 -44 3z m33 -2 c-3 -3 -12 -4 -19 -1 -8 3 -5 6 6 6
11 1 17 -2 13 -5z"/>
<path d="M268 4383 c7 -3 16 -2 19 1 4 3 -2 6 -13 5 -11 0 -14 -3 -6 -6z"/>
<path d="M1078 4383 c7 -3 16 -2 19 1 4 3 -2 6 -13 5 -11 0 -14 -3 -6 -6z"/>
<path d="M1138 4383 c7 -3 16 -2 19 1 4 3 -2 6 -13 5 -11 0 -14 -3 -6 -6z"/>
<path d="M1190 4380 c-9 -6 -10 -10 -3 -10 6 0 15 5 18 10 8 12 4 12 -15 0z"/>
<path d="M1245 4380 c-3 -6 1 -7 9 -4 18 7 21 14 7 14 -6 0 -13 -4 -16 -10z"/>
<path d="M1460 4386 c0 -2 7 -7 16 -10 8 -3 12 -2 9 4 -6 10 -25 14 -25 6z"/>
<path d="M1518 4383 c7 -3 16 -2 19 1 4 3 -2 6 -13 5 -11 0 -14 -3 -6 -6z"/>
<path d="M1578 4383 c7 -3 16 -2 19 1 4 3 -2 6 -13 5 -11 0 -14 -3 -6 -6z"/>
<path d="M250 4366 c0 -2 8 -10 18 -17 15 -13 16 -12 3 4 -13 16 -21 21 -21
13z"/>
<path d="M348 4363 c7 -3 16 -2 19 1 4 3 -2 6 -13 5 -11 0 -14 -3 -6 -6z"/>
<path d="M818 4363 c7 -3 16 -2 19 1 4 3 -2 6 -13 5 -11 0 -14 -3 -6 -6z"/>
<path d="M878 4363 c7 -3 16 -2 19 1 4 3 -2 6 -13 5 -11 0 -14 -3 -6 -6z"/>
<path d="M1000 4344 c0 -8 5 -12 10 -9 6 4 8 11 5 16 -9 14 -15 11 -15 -7z"/>
<path d="M1236 4351 c-4 -5 3 -7 14 -4 23 6 26 13 6 13 -8 0 -17 -4 -20 -9z"/>
<path d="M1409 4343 c-13 -16 -12 -17 4 -4 16 13 21 21 13 21 -2 0 -10 -8 -17
-17z"/>
<path d="M438 4343 c6 -2 18 -2 25 0 6 3 1 5 -13 5 -14 0 -19 -2 -12 -5z"/>
<path d="M728 4343 c6 -2 18 -2 25 0 6 3 1 5 -13 5 -14 0 -19 -2 -12 -5z"/>
<path d="M510 4332 c0 -18 29 -27 43 -13 9 9 8 11 -7 5 -11 -4 -21 -2 -27 7
-6 10 -9 11 -9 1z"/>
<path d="M1328 4333 c7 -3 16 -2 19 1 4 3 -2 6 -13 5 -11 0 -14 -3 -6 -6z"/>
<path d="M438 4318 c5 -5 16 -8 23 -6 8 3 3 7 -10 11 -17 4 -21 3 -13 -5z"/>
<path d="M728 4318 c5 -5 16 -8 23 -6 8 3 3 7 -10 11 -17 4 -21 3 -13 -5z"/>
<path d="M1470 4320 c-9 -6 -10 -10 -3 -10 6 0 15 5 18 10 8 12 4 12 -15 0z"/>
<path d="M258 4313 c7 -3 16 -2 19 1 4 3 -2 6 -13 5 -11 0 -14 -3 -6 -6z"/>
<path d="M1078 4313 c6 -2 18 -2 25 0 6 3 1 5 -13 5 -14 0 -19 -2 -12 -5z"/>
<path d="M1248 4313 c7 -3 16 -2 19 1 4 3 -2 6 -13 5 -11 0 -14 -3 -6 -6z"/>
<path d="M1398 4313 c6 -2 18 -2 25 0 6 3 1 5 -13 5 -14 0 -19 -2 -12 -5z"/>
<path d="M1513 4313 c9 -2 23 -2 30 0 6 3 -1 5 -18 5 -16 0 -22 -2 -12 -5z"/>
<path d="M243 4093 c3 -5 10 -27 16 -50 14 -50 27 -55 36 -13 4 17 10 30 15
30 4 0 10 -13 14 -30 8 -43 22 -37 35 14 14 55 14 59 1 51 -5 -3 -10 -17 -10
-30 0 -38 -17 -38 -24 0 -8 43 -22 45 -31 5 -9 -43 -22 -45 -29 -5 -4 19 -11
35 -17 35 -6 0 -8 -3 -6 -7z"/>
<path d="M512 4050 c0 -32 2 -47 7 -37 6 17 8 17 20 3 7 -9 18 -16 24 -16 5 0
2 9 -7 19 -11 12 -14 21 -7 26 6 3 11 11 11 17 0 6 -9 3 -19 -6 -19 -17 -20
-17 -24 16 -2 21 -4 13 -5 -22z"/>
<path d="M620 4050 c0 -48 1 -50 28 -49 23 2 24 2 5 6 -14 3 -23 12 -23 23 0
11 9 20 23 23 l22 4 -22 2 c-13 0 -23 7 -23 15 0 8 10 17 23 19 19 4 18 4 -5
6 -27 1 -28 -1 -28 -49z"/>
<path d="M381 4052 c-12 -23 4 -52 29 -52 25 0 41 30 29 53 -13 22 -46 22 -58
-1z m46 -8 c8 -21 -13 -42 -28 -27 -13 13 -5 43 11 43 6 0 13 -7 17 -16z"/>
<path d="M461 4030 c1 -27 3 -29 6 -10 2 14 11 30 20 37 13 10 13 12 -6 10
-17 -1 -21 -7 -20 -37z"/>
<path d="M692 4051 c9 -15 9 -23 -1 -35 -8 -9 -9 -16 -3 -16 6 0 13 6 16 13 5
10 7 10 12 0 3 -7 10 -13 15 -13 6 0 6 7 0 18 -6 11 -6 24 2 37 10 19 9 19 -8
5 -14 -11 -19 -12 -22 -2 -3 6 -9 12 -14 12 -5 0 -4 -9 3 -19z"/>
<path d="M750 4019 c0 -27 5 -49 10 -49 6 0 10 8 10 18 0 13 7 18 23 18 18 -1
22 4 22 29 0 27 -3 30 -32 32 -33 1 -33 1 -33 -48z m57 25 c8 -21 -13 -42 -28
-27 -13 13 -5 43 11 43 6 0 13 -7 17 -16z"/>
<path d="M840 4055 c-16 -19 -3 -49 21 -51 9 -1 10 0 2 3 -21 7 -15 23 8 23
14 0 19 5 17 17 -4 24 -32 28 -48 8z m35 -5 c3 -5 -1 -10 -9 -10 -9 0 -16 5
-16 10 0 6 4 10 9 10 6 0 13 -4 16 -10z"/>
<path d="M911 4030 c1 -27 3 -29 6 -10 2 14 11 30 20 37 13 10 13 12 -6 10
-17 -1 -21 -7 -20 -37z"/>
<path d="M963 4035 c0 -22 2 -30 4 -17 2 12 2 30 0 40 -3 9 -5 -1 -4 -23z"/>
<path d="M1000 4055 c-17 -20 -2 -49 26 -52 13 -2 11 1 -6 9 l-25 12 28 4 c20
2 27 8 25 20 -4 23 -32 26 -48 7z m35 -5 c3 -5 -3 -10 -15 -10 -12 0 -18 5
-15 10 3 6 10 10 15 10 5 0 12 -4 15 -10z"/>
<path d="M1060 4034 c0 -40 17 -46 22 -7 4 39 28 42 28 4 0 -17 5 -31 10 -31
12 0 13 40 2 56 -4 7 -19 12 -34 12 -25 0 -28 -4 -28 -34z"/>
<path d="M1149 4054 c-16 -19 -2 -47 27 -53 16 -3 15 0 -5 16 l-24 20 24 16
c17 12 19 17 7 17 -8 0 -21 -7 -29 -16z"/>
<path d="M1210 4055 c-16 -19 -3 -49 21 -51 9 -1 10 0 2 3 -21 7 -15 23 8 23
14 0 19 5 17 17 -4 24 -32 28 -48 8z m35 -5 c3 -5 -1 -10 -9 -10 -9 0 -16 5
-16 10 0 6 4 10 9 10 6 0 13 -4 16 -10z"/>
<path d="M253 3794 c-4 -10 0 -20 10 -26 22 -12 22 -25 0 -31 -17 -4 -17 -5 0
-6 24 -1 34 29 14 41 -22 12 -22 25 1 31 16 4 16 5 -1 6 -10 0 -20 -6 -24 -15z"/>
<path d="M580 3770 c0 -22 5 -40 10 -40 6 0 10 9 10 20 0 11 6 20 13 20 8 0 7
4 -3 10 -13 9 -13 11 0 20 12 8 11 10 -7 10 -20 0 -23 -5 -23 -40z"/>
<path d="M799 3799 c-2 -24 2 -54 10 -61 3 -4 6 9 5 28 -2 35 -13 60 -15 33z"/>
<path d="M990 3801 c0 -5 -9 -11 -21 -14 -29 -8 -22 -51 9 -55 20 -3 22 1 22
37 0 23 -2 41 -5 41 -3 0 -5 -4 -5 -9z m-5 -41 c0 -7 -6 -15 -12 -17 -8 -3
-13 4 -13 17 0 13 5 20 13 18 6 -3 12 -11 12 -18z"/>
<path d="M1040 3770 c0 -37 2 -40 28 -39 16 1 20 3 10 6 -20 5 -25 33 -5 33 8
0 7 4 -3 10 -13 9 -13 11 0 20 12 8 11 10 -7 10 -20 0 -23 -5 -23 -40z"/>
<path d="M311 3777 c-16 -20 -3 -47 23 -46 20 0 19 1 -4 11 l-25 11 23 5 c13
2 21 9 19 15 -5 17 -23 19 -36 4z"/>
<path d="M361 3758 c1 -29 2 -30 8 -9 9 34 29 37 34 6 4 -24 4 -24 3 2 -1 21
-7 29 -23 31 -20 3 -23 -1 -22 -30z"/>
<path d="M422 3760 c0 -19 2 -27 5 -17 2 9 2 25 0 35 -3 9 -5 1 -5 -18z"/>
<path d="M454 3776 c-9 -24 4 -48 23 -44 12 2 18 12 18 28 0 29 -32 41 -41 16z
m36 -16 c0 -11 -7 -20 -15 -20 -8 0 -15 9 -15 20 0 11 7 20 15 20 8 0 15 -9
15 -20z"/>
<path d="M511 3758 c1 -22 3 -26 6 -13 3 11 10 26 15 33 8 9 6 12 -6 12 -12 0
-16 -9 -15 -32z"/>
<path d="M631 3758 c1 -22 3 -26 6 -13 3 11 10 26 15 33 8 9 6 12 -6 12 -12 0
-16 -9 -15 -32z"/>
<path d="M674 3776 c-9 -24 4 -48 23 -44 12 2 18 12 18 28 0 29 -32 41 -41 16z
m36 -16 c0 -11 -7 -20 -15 -20 -8 0 -15 9 -15 20 0 11 7 20 15 20 8 0 15 -9
15 -20z"/>
<path d="M731 3758 c1 -29 2 -30 8 -9 9 34 29 37 34 6 4 -24 4 -24 3 2 -1 21
-7 29 -23 31 -20 3 -23 -1 -22 -30z"/>
<path d="M834 3776 c-9 -23 3 -46 23 -45 17 1 17 2 1 6 -25 6 -22 23 3 23 12
0 19 5 17 13 -7 18 -37 21 -44 3z m33 -2 c-3 -3 -12 -4 -19 -1 -8 3 -5 6 6 6
11 1 17 -2 13 -5z"/>
<path d="M891 3758 c2 -32 2 -32 6 -5 5 33 25 31 34 -4 4 -14 7 -17 8 -7 2 28
-10 48 -30 48 -15 0 -19 -7 -18 -32z"/>
<path d="M1101 3758 c2 -31 2 -31 6 -5 2 15 8 27 13 27 5 0 11 -12 13 -27 4
-26 4 -26 6 5 1 26 -3 32 -19 32 -16 0 -20 -6 -19 -32z"/>
<path d="M1167 3783 c-13 -12 -7 -42 11 -52 12 -8 13 -10 3 -11 -8 0 -11 -3
-8 -6 13 -13 37 19 37 47 0 21 -5 29 -18 29 -10 0 -22 -3 -25 -7z m28 -23 c0
-7 -6 -15 -12 -17 -8 -3 -13 4 -13 17 0 13 5 20 13 18 6 -3 12 -11 12 -18z"/>
<path d="M1222 3760 c0 -19 2 -27 5 -17 2 9 2 25 0 35 -3 9 -5 1 -5 -18z"/>
<path d="M1251 3758 c2 -32 2 -32 6 -5 5 33 25 31 34 -4 4 -14 7 -17 8 -7 2
28 -10 48 -30 48 -15 0 -19 -7 -18 -32z"/>
<path d="M1314 3776 c-9 -23 3 -46 23 -45 17 1 17 2 1 6 -22 6 -24 23 -2 23 9
0 14 5 12 12 -7 19 -27 21 -34 4z"/>
<path d="M1371 3777 c-16 -20 -3 -47 23 -46 20 0 19 1 -4 11 l-25 11 23 5 c13
2 21 9 19 15 -5 17 -23 19 -36 4z"/>
<path d="M1421 3758 c1 -22 3 -26 6 -13 3 11 10 26 15 33 8 9 6 12 -6 12 -12
0 -16 -9 -15 -32z"/>
<path d="M270 3651 c0 -6 4 -13 10 -16 6 -3 7 1 4 9 -7 18 -14 21 -14 7z"/>
<path d="M568 3653 c7 -3 16 -2 19 1 4 3 -2 6 -13 5 -11 0 -14 -3 -6 -6z"/>
<path d="M878 3653 c7 -3 16 -2 19 1 4 3 -2 6 -13 5 -11 0 -14 -3 -6 -6z"/>
<path d="M938 3653 c7 -3 16 -2 19 1 4 3 -2 6 -13 5 -11 0 -14 -3 -6 -6z"/>
<path d="M990 3656 c0 -2 7 -7 16 -10 8 -3 12 -2 9 4 -6 10 -25 14 -25 6z"/>
<path d="M1048 3653 c7 -3 16 -2 19 1 4 3 -2 6 -13 5 -11 0 -14 -3 -6 -6z"/>
<path d="M1200 3656 c0 -2 9 -6 20 -9 11 -3 18 -1 14 4 -5 9 -34 13 -34 5z"/>
<path d="M325 3630 c-3 -6 1 -7 9 -4 18 7 21 14 7 14 -6 0 -13 -4 -16 -10z"/>
<path d="M380 3635 c0 -8 29 -12 39 -5 9 5 4 8 -13 8 -14 0 -26 -2 -26 -3z"/>
<path d="M610 3636 c0 -2 9 -6 20 -9 11 -3 18 -1 14 4 -5 9 -34 13 -34 5z"/>
<path d="M720 3636 c0 -2 7 -7 16 -10 8 -3 12 -2 9 4 -6 10 -25 14 -25 6z"/>
<path d="M1255 3630 c-3 -6 1 -7 9 -4 18 7 21 14 7 14 -6 0 -13 -4 -16 -10z"/>
<path d="M1446 3631 c-4 -5 3 -7 14 -4 23 6 26 13 6 13 -8 0 -17 -4 -20 -9z"/>
<path d="M1498 3633 c7 -3 16 -2 19 1 4 3 -2 6 -13 5 -11 0 -14 -3 -6 -6z"/>
<path d="M800 3614 c0 -8 5 -12 10 -9 6 4 8 11 5 16 -9 14 -15 11 -15 -7z"/>
<path d="M1215 3620 c-16 -7 -17 -9 -3 -9 9 -1 20 4 23 9 7 11 7 11 -20 0z"/>
<path d="M468 3613 c6 -2 18 -2 25 0 6 3 1 5 -13 5 -14 0 -19 -2 -12 -5z"/>
<path d="M1298 3613 c6 -2 18 -2 25 0 6 3 1 5 -13 5 -14 0 -19 -2 -12 -5z"/>
<path d="M1398 3613 c6 -2 18 -2 25 0 6 3 1 5 -13 5 -14 0 -19 -2 -12 -5z"/>
<path d="M263 3603 c9 -2 23 -2 30 0 6 3 -1 5 -18 5 -16 0 -22 -2 -12 -5z"/>
<path d="M327 3589 c7 -7 15 -10 18 -7 3 3 -2 9 -12 12 -14 6 -15 5 -6 -5z"/>
<path d="M468 3588 c5 -5 16 -8 23 -6 8 3 3 7 -10 11 -17 4 -21 3 -13 -5z"/>
<path d="M548 3588 c5 -5 16 -8 23 -6 8 3 3 7 -10 11 -17 4 -21 3 -13 -5z"/>
<path d="M625 3590 c-16 -7 -17 -9 -3 -9 9 -1 20 4 23 9 7 11 7 11 -20 0z"/>
<path d="M707 3588 c2 -5 10 -8 18 -8 8 0 16 3 18 8 3 4 -5 7 -18 7 -13 0 -21
-3 -18 -7z"/>
<path d="M1298 3588 c5 -5 16 -8 23 -6 8 3 3 7 -10 11 -17 4 -21 3 -13 -5z"/>
<path d="M1398 3588 c5 -5 16 -8 23 -6 8 3 3 7 -10 11 -17 4 -21 3 -13 -5z"/>
<path d="M873 3583 c9 -2 23 -2 30 0 6 3 -1 5 -18 5 -16 0 -22 -2 -12 -5z"/>
<path d="M988 3583 c6 -2 18 -2 25 0 6 3 1 5 -13 5 -14 0 -19 -2 -12 -5z"/>
<path d="M1038 3583 c7 -3 16 -2 19 1 4 3 -2 6 -13 5 -11 0 -14 -3 -6 -6z"/>
<path d="M1348 3583 c7 -3 16 -2 19 1 4 3 -2 6 -13 5 -11 0 -14 -3 -6 -6z"/>
<path d="M252 3343 c-2 -39 0 -43 21 -42 16 1 17 3 5 6 -11 3 -18 17 -21 41
l-4 37 -1 -42z"/>
<path d="M390 3371 c0 -5 -9 -11 -21 -14 -29 -8 -22 -51 9 -55 20 -3 22 1 22
37 0 23 -2 41 -5 41 -3 0 -5 -4 -5 -9z m0 -41 c0 -11 -7 -20 -15 -20 -8 0 -15
9 -15 20 0 11 7 20 15 20 8 0 15 -9 15 -20z"/>
<path d="M2288 3369 c-6 -17 3 -69 11 -69 7 0 6 69 -2 76 -3 3 -7 0 -9 -7z"/>
<path d="M3800 3371 c0 -5 -9 -11 -21 -14 -29 -8 -22 -51 9 -55 20 -3 22 1 22
37 0 23 -2 41 -5 41 -3 0 -5 -4 -5 -9z m0 -41 c0 -11 -7 -20 -15 -20 -8 0 -15
9 -15 20 0 11 7 20 15 20 8 0 15 -9 15 -20z"/>
<path d="M451 3350 c-7 -3 6 -6 28 -6 21 1 37 4 35 7 -5 9 -49 8 -63 -1z"/>
<path d="M566 3352 c-2 -4 4 -8 15 -8 10 0 19 4 19 8 0 4 -6 8 -14 8 -8 0 -17
-4 -20 -8z"/>
<path d="M622 3330 c0 -19 2 -27 5 -17 2 9 2 25 0 35 -3 9 -5 1 -5 -18z"/>
<path d="M668 3353 c7 -3 16 -2 19 1 4 3 -2 6 -13 5 -11 0 -14 -3 -6 -6z"/>
<path d="M718 3353 c7 -3 16 -2 19 1 4 3 -2 6 -13 5 -11 0 -14 -3 -6 -6z"/>
<path d="M774 3345 c-13 -32 23 -63 40 -36 4 5 -3 7 -14 4 -16 -4 -20 0 -20
17 0 17 4 21 20 17 11 -3 18 -1 14 4 -8 14 -34 11 -40 -6z"/>
<path d="M841 3351 c-10 -7 -7 -9 12 -8 14 1 23 5 20 10 -6 9 -15 9 -32 -2z"/>
<path d="M928 3353 c7 -3 16 -2 19 1 4 3 -2 6 -13 5 -11 0 -14 -3 -6 -6z"/>
<path d="M966 3351 c-3 -5 3 -7 14 -4 16 4 20 0 20 -17 0 -18 -4 -21 -21 -17
-16 4 -19 3 -11 -5 17 -17 44 -1 40 24 -3 24 -32 36 -42 19z"/>
<path d="M1050 3351 c0 -6 6 -8 14 -5 10 4 16 -3 19 -20 4 -26 4 -26 3 1 -1
18 -7 29 -18 31 -10 2 -18 -1 -18 -7z"/>
<path d="M1105 3350 c3 -5 8 -10 11 -10 2 0 4 5 4 10 0 6 -5 10 -11 10 -5 0
-7 -4 -4 -10z"/>
<path d="M1146 3351 c-3 -5 3 -7 14 -4 16 4 20 0 20 -17 0 -18 -4 -21 -21 -17
-16 4 -19 3 -11 -5 17 -17 44 -1 40 24 -3 24 -32 36 -42 19z"/>
<path d="M1206 3352 c-2 -4 4 -8 15 -8 10 0 19 4 19 8 0 4 -6 8 -14 8 -8 0
-17 -4 -20 -8z"/>
<path d="M1264 3345 c-9 -23 3 -45 23 -44 17 1 17 2 1 6 -25 6 -22 21 5 26 21
4 21 4 -3 6 -23 2 -24 3 -5 11 18 8 18 9 2 9 -10 1 -20 -6 -23 -14z"/>
<path d="M1326 3351 c-3 -3 13 -6 34 -6 21 0 36 2 34 5 -8 7 -64 9 -68 1z"/>
<path d="M1448 3353 c7 -3 16 -2 19 1 4 3 -2 6 -13 5 -11 0 -14 -3 -6 -6z"/>
<path d="M1481 3346 c-15 -18 -3 -46 20 -46 10 0 19 4 19 9 0 5 -8 8 -17 7
-10 0 -18 6 -18 14 0 8 8 14 18 14 9 -1 17 2 17 7 0 14 -26 11 -39 -5z"/>
<path d="M1546 3351 c-3 -5 3 -7 14 -4 16 4 20 0 20 -17 0 -18 -4 -21 -21 -17
-16 4 -19 3 -11 -5 17 -17 44 -1 40 24 -3 24 -32 36 -42 19z"/>
<path d="M1652 3330 c0 -19 2 -27 5 -17 2 9 2 25 0 35 -3 9 -5 1 -5 -18z"/>
<path d="M1670 3356 c0 -2 7 -7 16 -10 8 -3 12 -2 9 4 -6 10 -25 14 -25 6z"/>
<path d="M1717 3353 c-15 -15 -6 -45 16 -51 22 -6 22 -6 -3 -13 l-25 -8 25 2
c21 2 25 8 28 40 3 31 0 37 -16 37 -10 0 -22 -3 -25 -7z m33 -23 c0 -11 -7
-20 -15 -20 -8 0 -15 9 -15 20 0 11 7 20 15 20 8 0 15 -9 15 -20z"/>
<path d="M1850 3351 c0 -6 6 -8 14 -5 10 4 16 -3 19 -20 4 -26 4 -26 3 1 -1
18 -7 29 -18 31 -10 2 -18 -1 -18 -7z"/>
<path d="M1905 3350 c3 -5 8 -10 11 -10 2 0 4 5 4 10 0 6 -5 10 -11 10 -5 0
-7 -4 -4 -10z"/>
<path d="M1946 3351 c-3 -5 3 -7 14 -4 16 4 20 0 20 -17 0 -17 -4 -21 -20 -17
-11 3 -20 1 -20 -5 0 -5 10 -8 23 -6 16 2 22 10 22 28 0 25 -27 40 -39 21z"/>
<path d="M2050 3351 c12 -9 11 -11 -9 -11 -17 0 -22 -4 -17 -16 3 -9 6 -18 6
-20 0 -2 10 -4 23 -3 21 0 21 1 -3 11 l-25 11 23 5 c25 4 25 23 1 30 -11 3
-11 2 1 -7z"/>
<path d="M2082 3330 c0 -19 2 -27 5 -17 2 9 2 25 0 35 -3 9 -5 1 -5 -18z"/>
<path d="M2105 3351 c9 -8 55 -9 50 0 -3 3 -16 7 -30 7 -14 0 -23 -3 -20 -7z"/>
<path d="M2174 3345 c-9 -23 3 -45 23 -44 17 1 17 2 1 6 -25 6 -22 21 5 26 21
4 21 4 -3 6 -23 2 -24 3 -5 11 18 8 18 9 2 9 -10 1 -20 -6 -23 -14z"/>
<path d="M2236 3352 c-2 -4 4 -8 15 -8 10 0 19 4 19 8 0 4 -6 8 -14 8 -8 0
-17 -4 -20 -8z"/>
<path d="M2324 3345 c-9 -23 3 -45 23 -44 17 1 17 2 1 6 -25 6 -23 23 2 23 11
0 23 -7 26 -15 6 -16 44 -21 44 -6 0 5 -8 8 -17 7 -10 0 -18 6 -18 14 0 8 8
14 18 14 9 -1 17 2 17 7 0 5 -9 9 -20 9 -11 0 -20 -4 -20 -10 0 -5 -12 -10
-27 -9 -25 0 -26 1 -8 9 18 8 18 9 2 9 -10 1 -20 -6 -23 -14z"/>
<path d="M2466 3345 c-8 -23 4 -45 25 -45 10 0 19 4 19 9 0 5 -8 8 -17 7 -10
0 -18 6 -18 14 0 8 8 14 18 14 9 -1 17 2 17 7 0 15 -38 10 -44 -6z"/>
<path d="M2587 3353 c-11 -11 -8 -21 9 -27 14 -5 15 -4 5 8 -9 11 -9 15 1 19
7 3 8 6 2 6 -6 1 -14 -2 -17 -6z"/>
<path d="M2657 3353 c-15 -15 -6 -45 16 -51 22 -6 22 -6 -3 -13 l-25 -8 25 2
c21 2 25 8 28 40 3 31 0 37 -16 37 -10 0 -22 -3 -25 -7z m33 -23 c0 -11 -7
-20 -15 -20 -8 0 -15 9 -15 20 0 11 7 20 15 20 8 0 15 -9 15 -20z"/>
<path d="M2726 3352 c-2 -4 4 -8 15 -8 10 0 19 4 19 8 0 4 -6 8 -14 8 -8 0
-17 -4 -20 -8z"/>
<path d="M2807 3353 c-11 -11 -8 -21 9 -27 14 -5 15 -4 5 8 -9 11 -9 15 1 19
7 3 8 6 2 6 -6 1 -14 -2 -17 -6z"/>
<path d="M2908 3353 c7 -3 16 -2 19 1 4 3 -2 6 -13 5 -11 0 -14 -3 -6 -6z"/>
<path d="M2948 3353 c7 -3 16 -2 19 1 4 3 -2 6 -13 5 -11 0 -14 -3 -6 -6z"/>
<path d="M3041 3350 c-7 -3 6 -6 28 -6 21 1 37 4 35 7 -5 9 -49 8 -63 -1z"/>
<path d="M3188 3353 c7 -3 16 -2 19 1 4 3 -2 6 -13 5 -11 0 -14 -3 -6 -6z"/>
<path d="M3230 3352 c0 -4 9 -8 20 -8 11 0 20 4 20 8 0 4 -9 8 -20 8 -11 0
-20 -4 -20 -8z"/>
<path d="M3296 3352 c-2 -4 4 -8 15 -8 10 0 19 4 19 8 0 4 -6 8 -14 8 -8 0
-17 -4 -20 -8z"/>
<path d="M3414 3349 c-3 -5 2 -6 10 -3 10 4 16 -3 19 -23 l4 -28 2 29 c1 21 5
27 16 22 8 -3 15 -1 15 4 0 11 -59 10 -66 -1z"/>
<path d="M3506 3351 c-4 -5 3 -7 15 -4 17 5 20 2 17 -13 -2 -11 -11 -18 -21
-18 -9 1 -17 -2 -17 -7 0 -5 9 -9 19 -9 20 0 37 32 26 50 -8 12 -32 13 -39 1z"/>
<path d="M3564 3349 c-3 -5 2 -6 10 -3 12 4 16 0 16 -15 0 -25 26 -39 42 -23
8 8 5 9 -11 5 -17 -4 -21 -1 -21 17 0 17 4 21 20 17 11 -3 18 -1 15 3 -7 11
-64 10 -71 -1z"/>
<path d="M3730 3351 c12 -9 11 -11 -9 -11 -17 0 -22 -4 -17 -16 3 -9 6 -18 6
-20 0 -2 10 -4 23 -3 21 0 21 1 -3 11 l-25 11 23 5 c25 4 25 23 1 30 -11 3
-11 2 1 -7z"/>
<path d="M3850 3316 c0 -22 4 -36 8 -30 4 6 15 13 25 17 27 10 19 52 -10 53
-20 1 -23 -3 -23 -40z m40 14 c0 -11 -7 -20 -15 -20 -15 0 -21 21 -8 33 12 13
23 7 23 -13z"/>
<path d="M3928 3353 c7 -3 16 -2 19 1 4 3 -2 6 -13 5 -11 0 -14 -3 -6 -6z"/>
<path d="M3970 3352 c0 -5 14 -7 30 -4 17 2 30 6 30 8 0 2 -13 4 -30 4 -16 0
-30 -4 -30 -8z"/>
<path d="M4041 3346 c-15 -18 -3 -46 20 -46 10 0 19 4 19 9 0 5 -8 8 -17 7
-10 0 -18 6 -18 14 0 8 8 14 18 14 9 -1 17 2 17 7 0 14 -26 11 -39 -5z"/>
<path d="M4100 3350 c0 -5 7 -7 15 -4 8 4 15 8 15 10 0 2 -7 4 -15 4 -8 0 -15
-4 -15 -10z"/>
<path d="M4144 3349 c-3 -5 2 -6 10 -3 10 4 16 -3 19 -23 l4 -28 2 29 c1 21 5
27 16 22 8 -3 15 -1 15 4 0 11 -59 10 -66 -1z"/>
<path d="M4238 3353 c7 -3 16 -2 19 1 4 3 -2 6 -13 5 -11 0 -14 -3 -6 -6z"/>
<path d="M4280 3352 c0 -4 9 -8 20 -8 11 0 20 4 20 8 0 4 -9 8 -20 8 -11 0
-20 -4 -20 -8z"/>
<path d="M4346 3351 c-4 -5 3 -7 14 -4 23 6 26 13 6 13 -8 0 -17 -4 -20 -9z"/>
<path d="M4410 3351 c12 -9 11 -11 -9 -11 -17 0 -22 -4 -17 -16 3 -9 6 -18 6
-20 0 -2 10 -4 23 -3 21 0 21 1 -3 11 l-25 11 23 5 c25 4 25 23 1 30 -11 3
-11 2 1 -7z"/>
<path d="M308 3333 c6 -2 18 -2 25 0 6 3 1 5 -13 5 -14 0 -19 -2 -12 -5z"/>
<path d="M665 3330 c-3 -6 1 -7 9 -4 9 3 16 1 16 -4 0 -6 -8 -13 -17 -15 -14
-4 -12 -5 5 -6 16 -1 22 5 22 19 0 21 -24 28 -35 10z"/>
<path d="M2538 3333 c6 -2 18 -2 25 0 6 3 1 5 -13 5 -14 0 -19 -2 -12 -5z"/>
<path d="M2907 3329 c7 -7 15 -10 18 -7 3 3 -2 9 -12 12 -14 6 -15 5 -6 -5z"/>
<path d="M2988 3333 c6 -2 18 -2 25 0 6 3 1 5 -13 5 -14 0 -19 -2 -12 -5z"/>
<path d="M3188 3333 c6 -2 18 -2 25 0 6 3 1 5 -13 5 -14 0 -19 -2 -12 -5z"/>
<path d="M3912 3323 c2 -10 12 -19 23 -20 16 -1 16 -1 3 3 -25 8 -22 22 5 27
18 4 17 5 -6 6 -22 1 -28 -3 -25 -16z"/>
<path d="M4238 3333 c6 -2 18 -2 25 0 6 3 1 5 -13 5 -14 0 -19 -2 -12 -5z"/>
<path d="M2863 3313 c-4 -10 -11 -22 -17 -26 -7 -6 -6 -7 3 -5 13 4 37 48 25
48 -2 0 -8 -8 -11 -17z"/>
<path d="M3666 3317 c3 -10 9 -15 12 -12 3 3 0 11 -7 18 -10 9 -11 8 -5 -6z"/>
<path d="M308 3308 c5 -5 16 -8 23 -6 8 3 3 7 -10 11 -17 4 -21 3 -13 -5z"/>
<path d="M560 3308 c0 -4 8 -8 18 -9 15 0 14 -2 -3 -10 -20 -9 -20 -9 0 -6 27
3 32 33 5 33 -11 0 -20 -4 -20 -8z"/>
<path d="M1200 3308 c0 -4 9 -8 20 -8 11 0 20 4 20 8 0 4 -9 8 -20 8 -11 0
-20 -4 -20 -8z"/>
<path d="M2538 3308 c5 -5 16 -8 23 -6 8 3 3 7 -10 11 -17 4 -21 3 -13 -5z"/>
<path d="M2988 3308 c5 -5 16 -8 23 -6 8 3 3 7 -10 11 -17 4 -21 3 -13 -5z"/>
<path d="M3177 3308 c2 -5 10 -8 18 -8 8 0 16 3 18 8 3 4 -5 7 -18 7 -13 0
-21 -3 -18 -7z"/>
<path d="M3290 3308 c0 -4 9 -8 20 -8 11 0 20 4 20 8 0 4 -9 8 -20 8 -11 0
-20 -4 -20 -8z"/>
<path d="M4227 3308 c2 -5 10 -8 18 -8 8 0 16 3 18 8 3 4 -5 7 -18 7 -13 0
-21 -3 -18 -7z"/>
<path d="M4348 3308 c5 -5 16 -8 23 -6 8 3 3 7 -10 11 -17 4 -21 3 -13 -5z"/>
<path d="M2588 3303 c7 -3 16 -2 19 1 4 3 -2 6 -13 5 -11 0 -14 -3 -6 -6z"/>
<path d="M2808 3303 c7 -3 16 -2 19 1 4 3 -2 6 -13 5 -11 0 -14 -3 -6 -6z"/>
<path d="M2908 3303 c7 -3 16 -2 19 1 4 3 -2 6 -13 5 -11 0 -14 -3 -6 -6z"/>
<path d="M251 3078 c1 -24 4 -33 6 -21 2 12 12 24 21 26 15 4 15 5 0 6 -10 0
-18 5 -18 10 0 5 8 12 18 14 13 4 11 5 -5 6 -21 1 -23 -3 -22 -41z"/>
<path d="M468 3109 c-6 -17 3 -69 11 -69 7 0 6 69 -2 76 -3 3 -7 0 -9 -7z"/>
<path d="M660 3111 c0 -5 -9 -11 -21 -14 -29 -8 -22 -51 9 -55 20 -3 22 1 22
37 0 23 -2 41 -5 41 -3 0 -5 -4 -5 -9z m-5 -41 c0 -7 -6 -15 -12 -17 -8 -3
-13 4 -13 17 0 13 5 20 13 18 6 -3 12 -11 12 -18z"/>
<path d="M710 3080 c0 -35 3 -40 23 -39 16 1 18 2 5 6 -10 2 -18 11 -18 18 0
7 8 16 18 18 16 4 16 5 0 6 -10 0 -18 5 -18 10 0 5 8 12 18 14 13 4 11 5 -5 6
-20 1 -23 -4 -23 -39z"/>
<path d="M301 3068 c1 -22 3 -26 6 -13 3 11 10 26 15 33 8 9 6 12 -6 12 -12 0
-16 -9 -15 -32z"/>
<path d="M344 3086 c-9 -24 4 -48 23 -44 12 2 18 12 18 28 0 29 -32 41 -41 16z
m31 -16 c0 -7 -6 -15 -12 -17 -8 -3 -13 4 -13 17 0 13 5 20 13 18 6 -3 12 -11
12 -18z"/>
<path d="M401 3068 c1 -29 2 -30 8 -9 9 34 29 37 34 6 4 -24 4 -24 3 2 -1 21
-7 29 -23 31 -20 3 -23 -1 -22 -30z"/>
<path d="M504 3085 c-9 -23 3 -45 23 -44 17 1 17 2 1 6 -25 6 -22 21 5 26 21
4 21 4 -3 6 -23 2 -24 3 -5 11 18 8 18 9 2 9 -10 1 -20 -6 -23 -14z"/>
<path d="M561 3068 c2 -31 2 -31 6 -5 2 15 8 27 13 27 5 0 11 -12 13 -27 4
-26 4 -26 6 5 1 26 -3 32 -19 32 -16 0 -20 -6 -19 -32z"/>
<path d="M761 3068 c1 -29 2 -30 8 -9 9 34 29 37 34 6 4 -24 4 -24 3 2 -1 21
-7 29 -23 31 -20 3 -23 -1 -22 -30z"/>
<path d="M826 3085 c-8 -22 3 -45 23 -46 13 0 12 -2 -4 -10 l-20 -9 20 3 c15
2 21 11 23 40 3 31 0 37 -16 37 -11 0 -22 -7 -26 -15z m34 -15 c0 -11 -4 -20
-10 -20 -5 0 -10 9 -10 20 0 11 5 20 10 20 6 0 10 -9 10 -20z"/>
<path d="M892 3070 c0 -19 2 -27 5 -17 2 9 2 25 0 35 -3 9 -5 1 -5 -18z"/>
<path d="M921 3068 c2 -31 2 -31 6 -5 2 15 8 27 13 27 5 0 11 -12 13 -27 4
-26 4 -26 6 5 1 26 -3 32 -19 32 -16 0 -20 -6 -19 -32z"/>
<path d="M981 3087 c-16 -20 -3 -47 23 -46 20 0 19 1 -4 11 l-25 11 23 5 c13
2 21 9 19 15 -5 17 -23 19 -36 4z"/>
<path d="M1034 3086 c-9 -23 3 -46 23 -45 17 1 17 2 1 6 -25 6 -22 23 3 23 12
0 19 5 17 13 -7 18 -37 21 -44 3z m33 -2 c-3 -3 -12 -4 -19 -1 -8 3 -5 6 6 6
11 1 17 -2 13 -5z"/>
<path d="M1091 3068 c2 -28 2 -29 6 -8 3 14 10 28 17 32 7 5 5 8 -6 8 -14 0
-18 -8 -17 -32z"/>
<path d="M278 2963 c7 -3 16 -2 19 1 4 3 -2 6 -13 5 -11 0 -14 -3 -6 -6z"/>
<path d="M688 2963 c7 -3 16 -2 19 1 4 3 -2 6 -13 5 -11 0 -14 -3 -6 -6z"/>
<path d="M740 2966 c0 -2 7 -7 16 -10 8 -3 12 -2 9 4 -6 10 -25 14 -25 6z"/>
<path d="M798 2963 c7 -3 16 -2 19 1 4 3 -2 6 -13 5 -11 0 -14 -3 -6 -6z"/>
<path d="M858 2963 c7 -3 16 -2 19 1 4 3 -2 6 -13 5 -11 0 -14 -3 -6 -6z"/>
<path d="M1010 2966 c0 -2 7 -7 16 -10 8 -3 12 -2 9 4 -6 10 -25 14 -25 6z"/>
<path d="M1070 2966 c0 -2 7 -7 16 -10 8 -3 12 -2 9 4 -6 10 -25 14 -25 6z"/>
<path d="M1170 2966 c0 -2 9 -6 20 -9 11 -3 18 -1 14 4 -5 9 -34 13 -34 5z"/>
<path d="M356 2941 c-4 -5 3 -7 14 -4 23 6 26 13 6 13 -8 0 -17 -4 -20 -9z"/>
<path d="M436 2943 c6 -4 14 -15 17 -23 5 -11 6 -9 4 4 -1 11 -9 21 -17 23
-10 3 -11 2 -4 -4z"/>
<path d="M606 2931 c-4 -5 -2 -12 3 -15 5 -4 12 -2 15 3 4 5 2 12 -3 15 -5 4
-12 2 -15 -3z"/>
<path d="M1129 2923 c-13 -16 -12 -17 4 -4 9 7 17 15 17 17 0 8 -8 3 -21 -13z"/>
<path d="M1180 2936 c0 -2 7 -7 16 -10 8 -3 12 -2 9 4 -6 10 -25 14 -25 6z"/>
<path d="M288 2923 c7 -3 16 -2 19 1 4 3 -2 6 -13 5 -11 0 -14 -3 -6 -6z"/>
<path d="M478 2923 c6 -2 18 -2 25 0 6 3 1 5 -13 5 -14 0 -19 -2 -12 -5z"/>
<path d="M530 2920 c0 -5 5 -10 10 -10 6 0 10 5 10 10 0 6 -4 10 -10 10 -5 0
-10 -4 -10 -10z"/>
<path d="M258 2898 c6 -6 18 -8 28 -6 14 3 12 5 -9 10 -19 3 -25 2 -19 -4z"/>
<path d="M357 2899 c7 -7 15 -10 18 -7 3 3 -2 9 -12 12 -14 6 -15 5 -6 -5z"/>
<path d="M418 2898 c5 -5 16 -8 23 -6 8 3 3 7 -10 11 -17 4 -21 3 -13 -5z"/>
<path d="M478 2898 c5 -5 16 -8 23 -6 8 3 3 7 -10 11 -17 4 -21 3 -13 -5z"/>
<path d="M750 2900 c-9 -6 -10 -10 -3 -10 6 0 15 5 18 10 8 12 4 12 -15 0z"/>
<path d="M1080 2900 c-9 -6 -10 -10 -3 -10 6 0 15 5 18 10 8 12 4 12 -15 0z"/>
<path d="M1185 2900 c-16 -7 -17 -9 -3 -9 9 -1 20 4 23 9 7 11 7 11 -20 0z"/>
<path d="M683 2893 c9 -2 23 -2 30 0 6 3 -1 5 -18 5 -16 0 -22 -2 -12 -5z"/>
<path d="M798 2893 c6 -2 18 -2 25 0 6 3 1 5 -13 5 -14 0 -19 -2 -12 -5z"/>
<path d="M858 2893 c7 -3 16 -2 19 1 4 3 -2 6 -13 5 -11 0 -14 -3 -6 -6z"/>
<path d="M1008 2893 c6 -2 18 -2 25 0 6 3 1 5 -13 5 -14 0 -19 -2 -12 -5z"/>
<path d="M1118 2893 c6 -2 18 -2 25 0 6 3 1 5 -13 5 -14 0 -19 -2 -12 -5z"/>
<path d="M250 2650 c0 -35 3 -40 23 -39 16 1 18 2 5 6 -22 5 -24 29 -3 37 22
8 18 36 -5 36 -17 0 -20 -7 -20 -40z m30 20 c0 -5 -4 -10 -10 -10 -5 0 -10 5
-10 10 0 6 5 10 10 10 6 0 10 -4 10 -10z"/>
<path d="M419 2679 c-2 -24 2 -54 10 -61 3 -4 6 9 5 28 -2 35 -13 60 -15 33z"/>
<path d="M520 2681 c0 -5 -9 -11 -21 -14 -29 -8 -22 -51 9 -55 20 -3 22 1 22
37 0 23 -2 41 -5 41 -3 0 -5 -4 -5 -9z m0 -41 c0 -11 -7 -20 -15 -20 -8 0 -15
9 -15 20 0 11 7 20 15 20 8 0 15 -9 15 -20z"/>
<path d="M1197 2676 c-4 -9 -14 -12 -25 -9 -11 2 -23 0 -26 -5 -4 -6 2 -8 15
-5 17 5 20 2 17 -13 -2 -11 -11 -18 -21 -18 -9 1 -17 -2 -17 -7 0 -22 39 -7
48 19 l10 27 1 -27 c1 -16 4 -28 9 -28 8 0 7 68 -1 76 -2 3 -7 -2 -10 -10z"/>
<path d="M3278 2679 c-6 -17 3 -69 11 -69 7 0 6 69 -2 76 -3 3 -7 0 -9 -7z"/>
<path d="M558 2663 c7 -3 16 -2 19 1 4 3 -2 6 -13 5 -11 0 -14 -3 -6 -6z"/>
<path d="M608 2663 c7 -3 16 -2 19 1 4 3 -2 6 -13 5 -11 0 -14 -3 -6 -6z"/>
<path d="M651 2661 c-10 -7 -7 -9 12 -8 14 1 23 5 20 10 -6 9 -15 9 -32 -2z"/>
<path d="M711 2661 c-10 -7 -7 -9 12 -8 15 1 27 5 27 10 0 10 -22 9 -39 -2z"/>
<path d="M764 2655 c-13 -32 23 -63 40 -36 4 5 -3 7 -14 4 -16 -4 -20 0 -20
17 0 17 4 21 20 17 11 -3 18 -1 14 4 -8 14 -34 11 -40 -6z"/>
<path d="M838 2663 c7 -3 16 -2 19 1 4 3 -2 6 -13 5 -11 0 -14 -3 -6 -6z"/>
<path d="M880 2660 c0 -5 7 -7 15 -4 8 4 15 8 15 10 0 2 -7 4 -15 4 -8 0 -15
-4 -15 -10z"/>
<path d="M916 2655 c-8 -23 4 -45 25 -45 10 0 19 4 19 9 0 5 -8 8 -17 7 -10 0
-18 6 -18 14 0 8 8 14 18 14 9 -1 17 2 17 7 0 15 -38 10 -44 -6z"/>
<path d="M988 2663 c7 -3 16 -2 19 1 4 3 -2 6 -13 5 -11 0 -14 -3 -6 -6z"/>
<path d="M1074 2655 c-13 -32 23 -63 40 -36 4 5 -3 7 -14 4 -16 -4 -20 0 -20
17 0 17 4 21 20 17 11 -3 18 -1 14 4 -8 14 -34 11 -40 -6z"/>
<path d="M1260 2661 c0 -6 6 -8 14 -5 10 4 16 -3 19 -20 4 -26 4 -26 3 1 -1
18 -7 29 -18 31 -10 2 -18 -1 -18 -7z"/>
<path d="M1315 2660 c3 -5 8 -10 11 -10 2 0 4 5 4 10 0 6 -5 10 -11 10 -5 0
-7 -4 -4 -10z"/>
<path d="M1378 2663 c6 -2 18 -2 25 0 6 3 1 5 -13 5 -14 0 -19 -2 -12 -5z"/>
<path d="M1424 2655 c-9 -23 3 -45 23 -44 17 1 17 2 1 6 -25 6 -23 23 2 23 11
0 23 -7 26 -15 6 -16 44 -21 44 -6 0 5 -8 8 -17 7 -10 0 -18 6 -18 14 0 8 8
14 18 14 9 -1 17 2 17 7 0 5 -9 9 -20 9 -11 0 -20 -4 -20 -10 0 -5 -12 -10
-27 -9 -25 0 -26 1 -8 9 18 8 18 9 2 9 -10 1 -20 -6 -23 -14z"/>
<path d="M1576 2661 c-4 -5 3 -7 15 -4 17 5 20 2 17 -13 -2 -11 -11 -18 -21
-18 -9 1 -17 -2 -17 -7 0 -5 9 -9 19 -9 20 0 37 32 26 50 -8 12 -32 13 -39 1z"/>
<path d="M1690 2662 c0 -4 9 -8 20 -8 11 0 20 4 20 8 0 4 -9 8 -20 8 -11 0
-20 -4 -20 -8z"/>
<path d="M1756 2662 c-2 -4 4 -8 15 -8 10 0 19 4 19 8 0 4 -6 8 -14 8 -8 0
-17 -4 -20 -8z"/>
<path d="M1848 2663 c7 -3 16 -2 19 1 4 3 -2 6 -13 5 -11 0 -14 -3 -6 -6z"/>
<path d="M1928 2663 c7 -3 16 -2 19 1 4 3 -2 6 -13 5 -11 0 -14 -3 -6 -6z"/>
<path d="M1990 2666 c0 -9 30 -14 35 -6 4 6 -3 10 -14 10 -12 0 -21 -2 -21 -4z"/>
<path d="M2060 2661 c12 -9 11 -11 -9 -11 -17 0 -22 -4 -17 -16 3 -9 6 -18 6
-20 0 -2 10 -4 23 -3 21 0 21 1 -3 11 l-25 11 23 5 c25 4 25 23 1 30 -11 3
-11 2 1 -7z"/>
<path d="M2154 2662 c18 -8 18 -9 3 -15 -24 -9 -21 -37 3 -37 11 0 20 4 20 10
0 5 -7 7 -15 4 -8 -4 -15 -1 -15 5 0 6 7 11 16 11 22 0 12 24 -12 27 -19 3
-19 3 0 -5z"/>
<path d="M2206 2662 c-2 -4 4 -8 15 -8 10 0 19 4 19 8 0 4 -6 8 -14 8 -8 0
-17 -4 -20 -8z"/>
<path d="M2256 2655 c-8 -23 4 -45 25 -45 10 0 19 4 19 9 0 5 -8 8 -17 7 -10
0 -18 6 -18 14 0 8 8 14 18 14 9 -1 17 2 17 7 0 15 -38 10 -44 -6z"/>
<path d="M2372 2640 c0 -19 2 -27 5 -17 2 9 2 25 0 35 -3 9 -5 1 -5 -18z"/>
<path d="M2395 2661 c9 -8 55 -9 50 0 -3 3 -16 7 -30 7 -14 0 -23 -3 -20 -7z"/>
<path d="M2460 2626 c0 -22 4 -36 8 -30 4 6 15 13 25 17 27 10 19 52 -10 53
-20 1 -23 -3 -23 -40z m40 14 c0 -11 -7 -20 -15 -20 -15 0 -21 21 -8 33 12 13
23 7 23 -13z"/>
<path d="M2530 2660 c-9 -6 -10 -10 -3 -10 6 0 15 5 18 10 8 12 4 12 -15 0z"/>
<path d="M2566 2661 c-3 -5 3 -7 14 -4 16 4 20 0 20 -17 0 -18 -4 -21 -21 -17
-16 4 -19 3 -11 -5 17 -17 44 -1 40 24 -3 24 -32 36 -42 19z"/>
<path d="M2674 2655 c-9 -23 3 -45 23 -44 17 1 17 2 1 6 -25 6 -23 23 2 23 11
0 23 -7 26 -15 6 -16 44 -21 44 -6 0 5 -8 8 -17 7 -10 0 -18 6 -18 14 0 8 8
14 18 14 9 -1 17 2 17 7 0 5 -9 9 -20 9 -11 0 -20 -4 -20 -10 0 -5 -12 -10
-27 -9 -25 0 -26 1 -8 9 18 8 18 9 2 9 -10 1 -20 -6 -23 -14z"/>
<path d="M2828 2663 c7 -3 16 -2 19 1 4 3 -2 6 -13 5 -11 0 -14 -3 -6 -6z"/>
<path d="M2874 2655 c-9 -23 3 -45 23 -44 17 1 17 2 1 6 -10 2 -18 13 -18 23
0 10 8 21 18 23 16 4 16 5 -1 6 -10 0 -20 -6 -23 -14z"/>
<path d="M2926 2661 c-4 -5 3 -7 14 -4 23 6 26 13 6 13 -8 0 -17 -4 -20 -9z"/>
<path d="M3027 2663 c-11 -11 -8 -21 9 -27 14 -5 15 -4 5 8 -9 11 -9 15 1 19
7 3 8 6 2 6 -6 1 -14 -2 -17 -6z"/>
<path d="M3066 2661 c-3 -5 1 -15 10 -22 14 -12 14 -14 -3 -20 -16 -7 -16 -8
-1 -8 25 -1 33 20 12 32 -17 10 -17 11 1 18 16 6 17 8 3 8 -9 1 -19 -3 -22 -8z"/>
<path d="M3146 2661 c-4 -5 3 -7 15 -4 17 5 20 2 17 -13 -2 -11 -11 -18 -21
-18 -9 1 -17 -2 -17 -7 0 -5 9 -9 19 -9 20 0 37 32 26 50 -8 12 -32 13 -39 1z"/>
<path d="M558 2643 c6 -2 18 -2 25 0 6 3 1 5 -13 5 -14 0 -19 -2 -12 -5z"/>
<path d="M607 2639 c7 -7 15 -10 18 -7 3 3 -2 9 -12 12 -14 6 -15 5 -6 -5z"/>
<path d="M838 2643 c6 -2 18 -2 25 0 6 3 1 5 -13 5 -14 0 -19 -2 -12 -5z"/>
<path d="M987 2639 c7 -7 15 -10 18 -7 3 3 -2 9 -12 12 -14 6 -15 5 -6 -5z"/>
<path d="M1832 2633 c2 -10 12 -19 23 -20 16 -1 16 -1 3 3 -25 8 -22 22 5 27
18 4 17 5 -6 6 -22 1 -28 -3 -25 -16z"/>
<path d="M1927 2639 c7 -7 15 -10 18 -7 3 3 -2 9 -12 12 -14 6 -15 5 -6 -5z"/>
<path d="M2828 2643 c6 -2 18 -2 25 0 6 3 1 5 -13 5 -14 0 -19 -2 -12 -5z"/>
<path d="M2978 2643 c6 -2 18 -2 25 0 6 3 1 5 -13 5 -14 0 -19 -2 -12 -5z"/>
<path d="M310 2618 c0 -4 6 -8 14 -8 8 0 17 4 20 8 2 4 -4 8 -15 8 -10 0 -19
-4 -19 -8z"/>
<path d="M547 2618 c2 -5 10 -8 18 -8 8 0 16 3 18 8 3 4 -5 7 -18 7 -13 0 -21
-3 -18 -7z"/>
<path d="M707 2618 c2 -5 10 -8 18 -8 8 0 16 3 18 8 3 4 -5 7 -18 7 -13 0 -21
-3 -18 -7z"/>
<path d="M827 2618 c2 -5 10 -8 18 -8 8 0 16 3 18 8 3 4 -5 7 -18 7 -13 0 -21
-3 -18 -7z"/>
<path d="M1630 2618 c0 -4 6 -8 14 -8 8 0 17 4 20 8 2 4 -4 8 -15 8 -10 0 -19
-4 -19 -8z"/>
<path d="M1750 2618 c0 -4 9 -8 20 -8 11 0 20 4 20 8 0 4 -9 8 -20 8 -11 0
-20 -4 -20 -8z"/>
<path d="M1984 2619 c-3 -5 6 -9 20 -9 31 0 34 6 6 13 -11 3 -23 1 -26 -4z"/>
<path d="M2817 2618 c2 -5 10 -8 18 -8 8 0 16 3 18 8 3 4 -5 7 -18 7 -13 0
-21 -3 -18 -7z"/>
<path d="M2928 2618 c5 -5 16 -8 23 -6 8 3 3 7 -10 11 -17 4 -21 3 -13 -5z"/>
<path d="M2978 2618 c5 -5 16 -8 23 -6 8 3 3 7 -10 11 -17 4 -21 3 -13 -5z"/>
<path d="M3317 2610 c-3 -11 -3 -20 -1 -20 2 0 8 9 14 20 6 11 7 20 2 20 -6 0
-12 -9 -15 -20z"/>
<path d="M608 2613 c7 -3 16 -2 19 1 4 3 -2 6 -13 5 -11 0 -14 -3 -6 -6z"/>
<path d="M988 2613 c7 -3 16 -2 19 1 4 3 -2 6 -13 5 -11 0 -14 -3 -6 -6z"/>
<path d="M1378 2613 c6 -2 18 -2 25 0 6 3 1 5 -13 5 -14 0 -19 -2 -12 -5z"/>
<path d="M1928 2613 c7 -3 16 -2 19 1 4 3 -2 6 -13 5 -11 0 -14 -3 -6 -6z"/>
<path d="M3028 2613 c7 -3 16 -2 19 1 4 3 -2 6 -13 5 -11 0 -14 -3 -6 -6z"/>
<path d="M250 2341 c0 -28 5 -51 10 -51 6 0 10 8 10 19 0 10 9 21 21 24 32 9
22 51 -13 55 -27 3 -28 2 -28 -47z m48 16 c2 -10 -3 -17 -12 -17 -10 0 -16 9
-16 21 0 24 23 21 28 -4z"/>
<path d="M632 2363 c-8 -8 -9 -13 -2 -13 5 0 10 -13 10 -30 0 -22 5 -30 18
-29 10 0 12 3 5 6 -15 5 -18 50 -4 55 5 2 4 8 -3 14 -8 8 -15 7 -24 -3z"/>
<path d="M330 2325 c0 -19 5 -35 10 -35 6 0 10 13 10 29 0 16 6 32 13 34 6 3
2 6 -10 6 -20 1 -23 -4 -23 -34z"/>
<path d="M381 2342 c-12 -23 4 -52 29 -52 25 0 41 30 29 53 -13 22 -46 22 -58
-1z m46 -8 c8 -21 -13 -42 -28 -27 -13 13 -5 43 11 43 6 0 13 -7 17 -16z"/>
<path d="M462 2325 c-1 -23 -7 -46 -14 -53 -9 -9 -9 -12 0 -12 18 0 24 22 19
66 l-4 39 -1 -40z"/>
<path d="M500 2345 c-17 -20 -2 -49 26 -52 13 -2 11 1 -6 9 l-25 12 28 4 c20
2 27 8 25 20 -4 23 -32 26 -48 7z m35 -5 c3 -5 -3 -10 -15 -10 -12 0 -18 5
-15 10 3 6 10 10 15 10 5 0 12 -4 15 -10z"/>
<path d="M569 2344 c-16 -19 -1 -48 27 -52 18 -3 18 -2 2 8 -10 6 -18 17 -18
25 0 8 8 19 18 24 15 9 15 10 1 11 -9 0 -22 -7 -30 -16z"/>
<path d="M684 2348 c-4 -6 0 -16 9 -23 22 -16 21 -22 0 -28 -16 -4 -16 -5 -1
-6 24 -2 34 20 15 34 -22 16 -21 22 1 28 15 4 15 5 0 6 -9 0 -20 -4 -24 -11z"/>
<path d="M251 2058 c1 -24 3 -35 6 -25 2 9 8 17 13 17 5 0 14 -8 19 -17 6 -10
11 -13 11 -6 0 6 -5 15 -11 19 -8 5 -7 9 1 14 19 11 4 40 -20 40 -17 0 -20 -6
-19 -42z m31 17 c0 -5 -5 -11 -11 -13 -6 -2 -11 4 -11 13 0 9 5 15 11 13 6 -2
11 -8 11 -13z"/>
<path d="M423 2060 c0 -25 2 -35 4 -22 2 12 2 32 0 45 -2 12 -4 2 -4 -23z"/>
<path d="M448 2087 c-7 -19 6 -60 20 -63 7 -1 8 0 2 3 -12 6 -13 40 -1 45 5 2
3 8 -4 15 -10 9 -14 9 -17 0z"/>
<path d="M702 2088 c-24 -24 -6 -69 27 -67 10 0 7 4 -6 9 -14 6 -23 18 -23 30
0 12 9 24 23 30 13 5 16 9 7 9 -9 1 -21 -4 -28 -11z"/>
<path d="M823 2060 c0 -25 2 -35 4 -22 2 12 2 32 0 45 -2 12 -4 2 -4 -23z"/>
<path d="M853 2060 c0 -25 2 -35 4 -22 2 12 2 32 0 45 -2 12 -4 2 -4 -23z"/>
<path d="M932 2062 c-2 -40 0 -43 21 -40 16 2 22 10 22 27 0 13 -6 25 -13 27
-7 1 -8 0 -2 -3 15 -7 12 -43 -4 -43 -10 0 -16 13 -19 38 l-4 37 -1 -43z"/>
<path d="M1020 2060 c0 -33 3 -40 19 -40 11 0 26 7 34 15 13 13 16 13 27 0 18
-21 38 -18 45 6 10 30 -10 47 -35 31 -16 -10 -21 -9 -30 8 -6 12 -21 20 -35
20 -22 0 -25 -4 -25 -40z m45 0 c0 -16 -6 -26 -17 -28 -14 -3 -18 3 -18 28 0
25 4 31 18 28 11 -2 17 -12 17 -28z m70 -10 c0 -7 -6 -15 -12 -17 -8 -3 -13 4
-13 17 0 13 5 20 13 18 6 -3 12 -11 12 -18z"/>
<path d="M314 2065 c-9 -23 3 -45 23 -44 17 1 17 2 1 6 -25 6 -22 21 5 26 21
4 21 4 -3 6 -23 2 -24 3 -5 11 18 8 18 9 2 9 -10 1 -20 -6 -23 -14z"/>
<path d="M385 2071 c14 -7 15 -10 5 -10 -12 -1 -13 -3 -1 -10 9 -6 10 -11 2
-15 -6 -4 -16 -4 -23 0 -7 4 -8 3 -4 -4 4 -7 16 -12 27 -12 29 0 23 54 -6 57
l-20 3 20 -9z"/>
<path d="M492 2050 c0 -19 2 -27 5 -17 2 9 2 25 0 35 -3 9 -5 1 -5 -18z"/>
<path d="M511 2048 c1 -29 2 -30 8 -9 9 34 29 37 34 6 4 -24 4 -24 3 2 -1 21
-7 29 -23 31 -20 3 -23 -1 -22 -30z"/>
<path d="M578 2050 c2 -16 6 -30 8 -30 2 0 4 14 4 30 0 17 -4 30 -8 30 -5 0
-7 -13 -4 -30z"/>
<path d="M614 2066 c-9 -23 3 -46 23 -45 17 1 17 2 1 6 -22 6 -24 23 -2 23 9
0 14 5 12 12 -7 19 -27 21 -34 4z"/>
<path d="M764 2066 c-9 -24 4 -48 23 -44 12 2 18 12 18 28 0 29 -32 41 -41 16z
m31 -16 c0 -7 -6 -15 -12 -17 -8 -3 -13 4 -13 17 0 13 5 20 13 18 6 -3 12 -11
12 -18z"/>
<path d="M895 2071 c14 -7 15 -10 5 -10 -12 -1 -13 -3 -1 -10 9 -6 10 -11 2
-15 -6 -4 -16 -4 -23 0 -7 4 -8 3 -4 -4 4 -7 16 -12 27 -12 29 0 23 54 -6 57
l-20 3 20 -9z"/>
<path d="M1164 2065 c-9 -23 3 -45 23 -44 17 1 17 2 1 6 -10 2 -18 11 -18 18
0 8 8 19 18 24 16 10 16 10 -1 11 -10 0 -20 -7 -23 -15z"/>
<path d="M1210 2066 c0 -8 5 -18 11 -22 8 -4 7 -9 -2 -15 -11 -7 -10 -9 4 -9
19 0 23 26 5 33 -10 4 -9 8 2 16 13 9 13 11 -2 11 -10 0 -18 -6 -18 -14z"/>
<path d="M255 1910 c-3 -6 1 -7 9 -4 18 7 21 14 7 14 -6 0 -13 -4 -16 -10z"/>
<path d="M298 1913 c7 -3 16 -2 19 1 4 3 -2 6 -13 5 -11 0 -14 -3 -6 -6z"/>
<path d="M365 1910 c-3 -6 1 -7 9 -4 18 7 21 14 7 14 -6 0 -13 -4 -16 -10z"/>
<path d="M550 1916 c0 -2 7 -6 15 -10 8 -3 15 -1 15 4 0 6 -7 10 -15 10 -8 0
-15 -2 -15 -4z"/>
<path d="M655 1910 c-3 -6 1 -7 9 -4 18 7 21 14 7 14 -6 0 -13 -4 -16 -10z"/>
<path d="M755 1910 c-3 -6 1 -7 9 -4 18 7 21 14 7 14 -6 0 -13 -4 -16 -10z"/>
<path d="M1160 1911 c0 -5 12 -7 26 -5 37 4 39 11 4 12 -16 0 -30 -3 -30 -7z"/>
<path d="M1245 1910 c-3 -6 1 -7 9 -4 18 7 21 14 7 14 -6 0 -13 -4 -16 -10z"/>
<path d="M1448 1913 c7 -3 16 -2 19 1 4 3 -2 6 -13 5 -11 0 -14 -3 -6 -6z"/>
<path d="M1585 1910 c-3 -6 1 -7 9 -4 18 7 21 14 7 14 -6 0 -13 -4 -16 -10z"/>
<path d="M1038 1893 c7 -3 16 -2 19 1 4 3 -2 6 -13 5 -11 0 -14 -3 -6 -6z"/>
<path d="M1128 1893 c7 -3 16 -2 19 1 4 3 -2 6 -13 5 -11 0 -14 -3 -6 -6z"/>
<path d="M1318 1893 c6 -2 18 -2 25 0 6 3 1 5 -13 5 -14 0 -19 -2 -12 -5z"/>
<path d="M360 1878 c0 -4 6 -8 14 -8 8 0 17 4 20 8 2 4 -4 8 -15 8 -10 0 -19
-4 -19 -8z"/>
<path d="M555 1874 c15 -11 15 -13 1 -17 -13 -4 -13 -5 1 -3 26 2 28 32 3 32
-19 0 -20 -2 -5 -12z"/>
<path d="M765 1880 c-16 -7 -17 -9 -3 -9 9 -1 20 4 23 9 7 11 7 11 -20 0z"/>
<path d="M827 1879 c7 -7 15 -10 18 -7 3 3 -2 9 -12 12 -14 6 -15 5 -6 -5z"/>
<path d="M867 1879 c7 -7 15 -10 18 -7 3 3 -2 9 -12 12 -14 6 -15 5 -6 -5z"/>
<path d="M1255 1880 c-16 -7 -17 -9 -3 -9 9 -1 20 4 23 9 7 11 7 11 -20 0z"/>
<path d="M1580 1878 c0 -4 6 -8 14 -8 8 0 17 4 20 8 2 4 -4 8 -15 8 -10 0 -19
-4 -19 -8z"/>
<path d="M708 1873 c7 -3 16 -2 19 1 4 3 -2 6 -13 5 -11 0 -14 -3 -6 -6z"/>
<path d="M1038 1873 c7 -3 16 -2 19 1 4 3 -2 6 -13 5 -11 0 -14 -3 -6 -6z"/>
<path d="M1128 1873 c7 -3 16 -2 19 1 4 3 -2 6 -13 5 -11 0 -14 -3 -6 -6z"/>
<path d="M1448 1873 c7 -3 16 -2 19 1 4 3 -2 6 -13 5 -11 0 -14 -3 -6 -6z"/>
<path d="M1538 1873 c7 -3 16 -2 19 1 4 3 -2 6 -13 5 -11 0 -14 -3 -6 -6z"/>
<path d="M582 1833 c192 -2 504 -2 695 0 192 1 35 2 -347 2 -382 0 -539 -1
-348 -2z"/>
<path d="M263 1663 c-7 -2 -13 -9 -13 -15 0 -7 4 -7 13 0 6 5 21 12 32 15 l20
5 -20 0 c-11 0 -26 -2 -32 -5z"/>
<path d="M1150 1661 c0 -5 -9 -11 -21 -14 -29 -8 -22 -51 9 -55 20 -3 22 1 22
37 0 23 -2 41 -5 41 -3 0 -5 -4 -5 -9z m0 -41 c0 -11 -7 -20 -15 -20 -8 0 -15
9 -15 20 0 11 7 20 15 20 8 0 15 -9 15 -20z"/>
<path d="M1650 1660 c-24 -15 -7 -18 20 -3 14 7 18 13 10 13 -8 0 -22 -4 -30
-10z"/>
<path d="M1723 1664 c20 -6 23 -31 3 -36 -10 -2 -6 -9 12 -22 14 -11 21 -13
16 -5 -5 8 -9 25 -9 39 0 17 -6 25 -20 27 -15 1 -16 1 -2 -3z"/>
<path d="M1790 1662 c18 -6 25 -15 25 -32 0 -17 -7 -26 -25 -32 -25 -7 -25 -7
-1 -5 32 3 50 31 35 55 -6 9 -22 18 -35 19 -24 2 -24 2 1 -5z"/>
<path d="M1837 1662 c6 -4 13 -23 16 -42 l4 -35 1 37 c1 20 8 39 15 41 6 3 -1
6 -18 6 -17 0 -25 -3 -18 -7z"/>
<path d="M324 1635 c-13 -32 23 -63 40 -36 4 5 -3 7 -14 4 -16 -4 -20 0 -20
17 0 17 4 21 20 17 11 -3 18 -1 14 4 -8 14 -34 11 -40 -6z"/>
<path d="M384 1635 c-13 -32 23 -63 40 -36 4 5 -3 7 -14 4 -16 -4 -20 0 -20
17 0 17 4 21 20 17 11 -3 18 -1 14 4 -8 14 -34 11 -40 -6z"/>
<path d="M447 1643 c-15 -15 -6 -45 16 -51 22 -6 22 -6 -3 -13 l-25 -8 25 2
c21 2 25 8 28 40 3 31 0 37 -16 37 -10 0 -22 -3 -25 -7z m33 -23 c0 -11 -7
-20 -15 -20 -8 0 -15 9 -15 20 0 11 7 20 15 20 8 0 15 -9 15 -20z"/>
<path d="M534 1635 c-9 -23 3 -45 23 -44 17 1 17 2 1 6 -25 6 -22 21 5 26 21
4 21 4 -3 6 -23 2 -24 3 -5 11 18 8 18 9 2 9 -10 1 -20 -6 -23 -14z"/>
<path d="M636 1642 c-2 -4 4 -8 15 -8 10 0 19 4 19 8 0 4 -6 8 -14 8 -8 0 -17
-4 -20 -8z"/>
<path d="M696 1641 c-3 -5 3 -7 14 -4 16 4 20 0 20 -17 0 -18 -4 -21 -21 -17
-16 4 -19 3 -11 -5 17 -17 44 -1 40 24 -3 24 -32 36 -42 19z"/>
<path d="M754 1635 c-9 -23 3 -45 23 -44 17 1 17 2 1 6 -10 2 -18 13 -18 23 0
10 8 21 18 23 16 4 16 5 -1 6 -10 0 -20 -6 -23 -14z"/>
<path d="M808 1643 c7 -3 16 -2 19 1 4 3 -2 6 -13 5 -11 0 -14 -3 -6 -6z"/>
<path d="M937 1632 c-15 -16 -15 -19 3 -30 28 -17 34 -15 15 5 -16 16 -16 17
1 30 10 7 13 13 7 13 -5 0 -17 -8 -26 -18z"/>
<path d="M1000 1641 c12 -9 11 -11 -9 -11 -17 0 -22 -4 -17 -16 3 -9 6 -18 6
-20 0 -2 10 -4 23 -3 21 0 21 1 -3 11 l-25 11 23 5 c25 4 25 23 1 30 -11 3
-11 2 1 -7z"/>
<path d="M1208 1643 c7 -3 16 -2 19 1 4 3 -2 6 -13 5 -11 0 -14 -3 -6 -6z"/>
<path d="M1271 1641 c-10 -7 -7 -9 12 -8 14 1 23 5 20 10 -6 9 -15 9 -32 -2z"/>
<path d="M1327 1643 c-15 -15 -6 -45 16 -51 22 -6 22 -6 -3 -13 l-25 -8 25 2
c21 2 25 8 28 40 3 31 0 37 -16 37 -10 0 -22 -3 -25 -7z m33 -23 c0 -11 -7
-20 -15 -20 -8 0 -15 9 -15 20 0 11 7 20 15 20 8 0 15 -9 15 -20z"/>
<path d="M1518 1643 c7 -3 16 -2 19 1 4 3 -2 6 -13 5 -11 0 -14 -3 -6 -6z"/>
<path d="M1550 1642 c0 -4 9 -8 20 -8 11 0 20 4 20 8 0 4 -9 8 -20 8 -11 0
-20 -4 -20 -8z"/>
<path d="M1887 1643 c-11 -11 -8 -21 9 -27 14 -5 15 -4 5 8 -9 11 -9 15 1 19
7 3 8 6 2 6 -6 1 -14 -2 -17 -6z"/>
<path d="M288 1623 c6 -2 12 -9 12 -14 0 -12 -37 -11 -43 1 -3 6 -4 5 -3 -2 4
-20 50 -16 54 5 2 11 -3 17 -15 16 -10 0 -13 -3 -5 -6z"/>
<path d="M807 1619 c7 -7 15 -10 18 -7 3 3 -2 9 -12 12 -14 6 -15 5 -6 -5z"/>
<path d="M1068 1623 c6 -2 18 -2 25 0 6 3 1 5 -13 5 -14 0 -19 -2 -12 -5z"/>
<path d="M1643 1610 c2 -8 14 -16 28 -17 19 -1 20 -1 4 4 -11 3 -24 10 -28 17
-6 7 -7 6 -4 -4z"/>
<path d="M630 1598 c0 -4 9 -8 20 -8 11 0 20 4 20 8 0 4 -9 8 -20 8 -11 0 -20
-4 -20 -8z"/>
<path d="M1068 1598 c5 -5 16 -8 23 -6 8 3 3 7 -10 11 -17 4 -21 3 -13 -5z"/>
<path d="M808 1593 c7 -3 16 -2 19 1 4 3 -2 6 -13 5 -11 0 -14 -3 -6 -6z"/>
<path d="M1888 1593 c7 -3 16 -2 19 1 4 3 -2 6 -13 5 -11 0 -14 -3 -6 -6z"/>
<path d="M253 1353 c-4 -10 2 -23 15 -34 28 -22 29 -43 2 -36 -11 3 -20 1 -20
-4 0 -15 37 -10 51 7 11 13 8 19 -17 39 l-29 24 25 10 c25 10 25 10 2 10 -12
1 -25 -6 -29 -16z"/>
<path d="M320 1320 c0 -27 5 -50 10 -50 6 0 10 8 10 18 1 16 1 16 14 0 18 -24
29 -23 14 1 -9 15 -9 23 1 35 8 10 9 16 3 16 -6 0 -16 -8 -21 -17 -9 -15 -10
-12 -11 15 0 17 -4 32 -10 32 -5 0 -10 -22 -10 -50z"/>
<path d="M430 1320 c0 -27 5 -50 10 -50 6 0 10 23 10 50 0 28 -4 50 -10 50 -5
0 -10 -22 -10 -50z"/>
<path d="M473 1320 c0 -30 2 -43 4 -27 2 15 2 39 0 55 -2 15 -4 2 -4 -28z"/>
<path d="M403 1305 c0 -22 2 -30 4 -17 2 12 2 30 0 40 -3 9 -5 -1 -4 -23z"/>
<path d="M504 1328 c-4 -6 0 -16 9 -23 22 -16 21 -22 0 -29 -14 -4 -14 -4 2
-3 24 3 34 37 11 37 -22 0 -20 17 2 23 15 4 15 5 0 6 -9 0 -20 -4 -24 -11z"/>
<path d="M268 1063 c7 -3 16 -2 19 1 4 3 -2 6 -13 5 -11 0 -14 -3 -6 -6z"/>
<path d="M560 1061 c0 -6 4 -13 10 -16 6 -3 7 1 4 9 -7 18 -14 21 -14 7z"/>
<path d="M1035 1049 c-17 -17 -17 -19 -2 -14 12 5 17 2 17 -10 0 -11 -5 -15
-15 -11 -8 3 -15 1 -15 -4 0 -6 9 -10 20 -10 16 0 20 7 20 35 0 40 1 40 -25
14z"/>
<path d="M1288 1063 c6 -2 18 -2 25 0 6 3 1 5 -13 5 -14 0 -19 -2 -12 -5z"/>
<path d="M1626 1061 c-4 -5 3 -7 14 -4 23 6 26 13 6 13 -8 0 -17 -4 -20 -9z"/>
<path d="M1688 1063 c7 -3 16 -2 19 1 4 3 -2 6 -13 5 -11 0 -14 -3 -6 -6z"/>
<path d="M1738 1063 c7 -3 16 -2 19 1 4 3 -2 6 -13 5 -11 0 -14 -3 -6 -6z"/>
<path d="M1850 1066 c0 -2 9 -6 20 -9 11 -3 18 -1 14 4 -5 9 -34 13 -34 5z"/>
<path d="M2207 1063 c-3 -5 5 -8 18 -8 13 0 21 3 18 8 -2 4 -10 7 -18 7 -8 0
-16 -3 -18 -7z"/>
<path d="M2390 1066 c0 -2 11 -6 25 -8 13 -3 22 -1 19 3 -5 9 -44 13 -44 5z"/>
<path d="M318 1043 c7 -3 16 -2 19 1 4 3 -2 6 -13 5 -11 0 -14 -3 -6 -6z"/>
<path d="M368 1042 c11 -7 11 -10 -3 -16 -19 -7 -11 -26 11 -26 20 0 15 42 -6
47 -12 4 -12 3 -2 -5z"/>
<path d="M405 1040 c-3 -6 1 -7 9 -4 18 7 21 14 7 14 -6 0 -13 -4 -16 -10z"/>
<path d="M762 1025 c0 -16 2 -22 5 -12 2 9 2 23 0 30 -3 6 -5 -1 -5 -18z"/>
<path d="M788 1043 c7 -3 16 -2 19 1 4 3 -2 6 -13 5 -11 0 -14 -3 -6 -6z"/>
<path d="M978 1043 c7 -3 16 -2 19 1 4 3 -2 6 -13 5 -11 0 -14 -3 -6 -6z"/>
<path d="M1142 1025 c0 -16 2 -22 5 -12 2 9 2 23 0 30 -3 6 -5 -1 -5 -18z"/>
<path d="M1329 1041 c11 -7 11 -9 0 -14 -11 -4 -11 -6 1 -6 13 -1 13 -2 0 -11
-13 -8 -12 -10 3 -10 12 0 17 8 17 25 0 17 -5 25 -17 25 -14 0 -15 -2 -4 -9z"/>
<path d="M1362 1025 c0 -16 2 -22 5 -12 2 9 2 23 0 30 -3 6 -5 -1 -5 -18z"/>
<path d="M1472 1025 c0 -16 2 -22 5 -12 2 9 2 23 0 30 -3 6 -5 -1 -5 -18z"/>
<path d="M1492 1025 c0 -16 2 -22 5 -12 2 9 2 23 0 30 -3 6 -5 -1 -5 -18z"/>
<path d="M1518 1023 c5 -21 7 -23 10 -9 2 10 0 22 -6 28 -6 6 -7 0 -4 -19z"/>
<path d="M1546 1042 c-2 -4 4 -8 15 -8 10 0 19 4 19 8 0 10 -27 10 -34 0z"/>
<path d="M1906 1042 c-2 -4 4 -8 14 -8 10 0 16 4 14 8 -3 4 -9 8 -14 8 -5 0
-11 -4 -14 -8z"/>
<path d="M1958 1043 c7 -3 16 -2 19 1 4 3 -2 6 -13 5 -11 0 -14 -3 -6 -6z"/>
<path d="M2025 1040 c-3 -6 1 -7 9 -4 11 4 16 0 16 -11 0 -11 -5 -15 -15 -11
-8 3 -15 1 -15 -4 0 -6 8 -10 18 -11 15 0 14 -2 -3 -10 l-20 -9 20 3 c25 3 36
67 11 67 -8 0 -18 -4 -21 -10z"/>
<path d="M2080 1039 c0 -5 5 -7 10 -4 6 3 10 8 10 11 0 2 -4 4 -10 4 -5 0 -10
-5 -10 -11z"/>
<path d="M2157 1039 c7 -7 15 -10 18 -7 3 3 -2 9 -12 12 -14 6 -15 5 -6 -5z"/>
<path d="M2456 1041 c-4 -5 3 -7 14 -4 23 6 26 13 6 13 -8 0 -17 -4 -20 -9z"/>
<path d="M2518 1043 c7 -3 16 -2 19 1 4 3 -2 6 -13 5 -11 0 -14 -3 -6 -6z"/>
<path d="M2561 1036 c-9 -10 -7 -17 6 -27 16 -12 17 -12 6 2 -10 12 -10 18 -1
27 7 7 9 12 6 12 -3 0 -11 -6 -17 -14z"/>
<path d="M2640 1025 c0 -14 2 -25 4 -25 2 0 6 11 8 25 3 14 1 25 -3 25 -5 0
-9 -11 -9 -25z"/>
<path d="M260 1036 c0 -2 7 -6 15 -10 8 -3 15 -1 15 4 0 6 -7 10 -15 10 -8 0
-15 -2 -15 -4z"/>
<path d="M1865 1030 c-16 -7 -17 -9 -3 -9 9 -1 20 4 23 9 7 11 7 11 -20 0z"/>
<path d="M318 1023 c7 -3 16 -2 19 1 4 3 -2 6 -13 5 -11 0 -14 -3 -6 -6z"/>
<path d="M628 1023 c6 -2 18 -2 25 0 6 3 1 5 -13 5 -14 0 -19 -2 -12 -5z"/>
<path d="M1072 1018 c2 -6 11 -13 19 -16 12 -3 12 -2 0 6 -11 8 -10 11 5 15
16 4 15 5 -4 6 -14 1 -22 -4 -20 -11z"/>
<path d="M2108 1023 c6 -2 18 -2 25 0 6 3 1 5 -13 5 -14 0 -19 -2 -12 -5z"/>
<path d="M2592 1018 c2 -6 11 -13 19 -16 12 -3 12 -2 0 6 -11 8 -10 11 5 15
16 4 15 5 -4 6 -14 1 -22 -4 -20 -11z"/>
<path d="M407 1009 c7 -7 15 -10 18 -7 3 3 -2 9 -12 12 -14 6 -15 5 -6 -5z"/>
<path d="M670 1016 c0 -2 7 -7 16 -10 8 -3 12 -2 9 4 -6 10 -25 14 -25 6z"/>
<path d="M1546 1008 c3 -4 12 -8 20 -8 8 0 14 4 14 8 0 4 -9 8 -19 8 -11 0
-17 -4 -15 -8z"/>
<path d="M1628 1008 c5 -5 16 -8 23 -6 8 3 3 7 -10 11 -17 4 -21 3 -13 -5z"/>
<path d="M1910 1006 c7 -7 13 -7 20 0 6 6 3 10 -10 10 -13 0 -16 -4 -10 -10z"/>
<path d="M2165 1010 c-16 -7 -17 -9 -3 -9 9 -1 20 4 23 9 7 11 7 11 -20 0z"/>
<path d="M2207 1008 c2 -5 10 -8 18 -8 8 0 16 3 18 8 3 4 -5 7 -18 7 -13 0
-21 -3 -18 -7z"/>
<path d="M2410 1010 c-23 -7 -23 -8 -3 -9 12 -1 25 4 28 9 3 6 5 10 3 9 -2 -1
-14 -5 -28 -9z"/>
<path d="M2457 1009 c7 -7 15 -10 18 -7 3 3 -2 9 -12 12 -14 6 -15 5 -6 -5z"/>
<path d="M318 1003 c7 -3 16 -2 19 1 4 3 -2 6 -13 5 -11 0 -14 -3 -6 -6z"/>
<path d="M978 1003 c7 -3 16 -2 19 1 4 3 -2 6 -13 5 -11 0 -14 -3 -6 -6z"/>
<path d="M1688 1003 c7 -3 16 -2 19 1 4 3 -2 6 -13 5 -11 0 -14 -3 -6 -6z"/>
<path d="M1728 1003 c6 -2 18 -2 25 0 6 3 1 5 -13 5 -14 0 -19 -2 -12 -5z"/>
<path d="M2118 1003 c7 -3 16 -2 19 1 4 3 -2 6 -13 5 -11 0 -14 -3 -6 -6z"/>
<path d="M2278 1003 c7 -3 16 -2 19 1 4 3 -2 6 -13 5 -11 0 -14 -3 -6 -6z"/>
<path d="M2518 1003 c7 -3 16 -2 19 1 4 3 -2 6 -13 5 -11 0 -14 -3 -6 -6z"/>
<path d="M250 750 c0 -27 5 -50 10 -50 6 0 10 12 10 26 0 20 4 25 22 22 14 -2
25 -13 29 -28 5 -17 7 -7 7 30 -1 30 -3 45 -5 33 -6 -31 -53 -33 -53 -3 0 11
-4 20 -10 20 -5 0 -10 -22 -10 -50z"/>
<path d="M430 750 c0 -27 5 -50 10 -50 6 0 10 23 10 50 0 28 -4 50 -10 50 -5
0 -10 -22 -10 -50z"/>
<path d="M510 750 c0 -27 5 -50 10 -50 6 0 10 23 10 50 0 28 -4 50 -10 50 -5
0 -10 -22 -10 -50z"/>
<path d="M354 756 c-11 -28 1 -51 25 -51 32 0 49 28 32 49 -17 20 -50 21 -57
2z m43 -12 c8 -21 -13 -42 -28 -27 -13 13 -5 43 11 43 6 0 13 -7 17 -16z"/>
<path d="M470 763 c14 -7 13 -36 -2 -51 -8 -8 -8 -12 -1 -12 6 0 16 7 24 16
14 17 3 46 -19 50 -7 1 -8 0 -2 -3z"/>
<path d="M550 763 c14 -7 13 -36 -2 -51 -8 -8 -8 -12 -1 -12 6 0 16 7 24 16
14 17 3 46 -19 50 -7 1 -8 0 -2 -3z"/>
<path d="M590 735 c0 -19 5 -35 10 -35 6 0 10 16 10 35 0 19 -4 35 -10 35 -5
0 -10 -16 -10 -35z"/>
<path d="M631 752 c-13 -24 4 -52 32 -51 21 0 21 1 -3 12 l-25 11 28 4 c29 4
33 12 15 30 -17 17 -36 15 -47 -6z m39 -2 c0 -5 -7 -10 -16 -10 -8 0 -12 5 -9
10 3 6 10 10 16 10 5 0 9 -4 9 -10z"/>
<path d="M704 758 c-4 -6 0 -16 9 -23 22 -16 21 -22 0 -29 -14 -4 -14 -4 2 -3
24 3 34 37 11 37 -22 0 -20 17 2 23 15 4 15 5 0 6 -9 0 -20 -4 -24 -11z"/>
<path d="M253 470 c0 -25 2 -35 4 -22 3 13 12 22 23 22 11 0 20 -9 23 -22 2
-13 4 -3 4 22 1 25 -1 37 -4 28 -2 -10 -13 -18 -23 -18 -10 0 -21 8 -23 18 -3
9 -5 -3 -4 -28z"/>
<path d="M601 468 c1 -24 3 -35 6 -25 2 9 11 17 19 17 8 0 14 4 14 10 0 5 -7
7 -15 4 -10 -4 -15 0 -15 11 0 12 6 16 20 12 11 -3 18 -1 14 4 -3 5 -14 9 -25
9 -16 0 -19 -7 -18 -42z"/>
<path d="M779 499 c-2 -24 2 -54 10 -61 3 -4 6 9 5 28 -2 35 -13 60 -15 33z"/>
<path d="M1262 498 c-24 -24 -6 -69 28 -67 9 0 6 4 -8 10 -32 12 -26 51 8 60
21 6 22 7 5 8 -12 1 -26 -4 -33 -11z"/>
<path d="M366 475 c-11 -8 -18 -16 -15 -18 2 -1 13 -9 24 -17 19 -14 19 -14 6
3 -11 14 -11 20 -1 32 16 19 11 19 -14 0z"/>
<path d="M436 482 c-2 -4 4 -8 15 -8 10 0 19 4 19 8 0 4 -6 8 -14 8 -8 0 -17
-4 -20 -8z"/>
<path d="M486 475 c-8 -22 3 -45 23 -46 13 0 12 -2 -4 -10 -20 -9 -20 -9 0 -6
25 3 33 36 8 33 -10 0 -18 6 -18 14 0 8 8 14 18 14 9 -1 17 2 17 7 0 15 -38
10 -44 -6z"/>
<path d="M660 482 c0 -4 9 -8 20 -8 11 0 20 4 20 8 0 4 -9 8 -20 8 -11 0 -20
-4 -20 -8z"/>
<path d="M721 476 c-15 -18 -3 -46 20 -46 10 0 19 4 19 9 0 5 -8 8 -17 7 -10
0 -18 6 -18 14 0 8 8 14 18 14 9 -1 17 2 17 7 0 14 -26 11 -39 -5z"/>
<path d="M814 475 c-13 -32 23 -63 40 -36 4 5 -3 7 -14 4 -16 -4 -20 0 -20 17
0 17 4 21 20 17 11 -3 18 -1 14 4 -8 14 -34 11 -40 -6z"/>
<path d="M876 475 c-8 -22 3 -45 23 -46 13 0 12 -2 -4 -10 -20 -9 -20 -9 0 -6
25 3 33 36 8 33 -10 0 -18 6 -18 14 0 8 8 14 18 14 9 -1 17 2 17 7 0 15 -38
10 -44 -6z"/>
<path d="M940 480 c0 -5 7 -7 15 -4 8 4 15 8 15 10 0 2 -7 4 -15 4 -8 0 -15
-4 -15 -10z"/>
<path d="M988 483 c7 -3 16 -2 19 1 4 3 -2 6 -13 5 -11 0 -14 -3 -6 -6z"/>
<path d="M1036 481 c-3 -5 3 -7 14 -4 16 4 20 0 20 -17 0 -17 -4 -21 -20 -17
-11 3 -20 1 -20 -5 0 -5 10 -8 23 -6 16 2 22 10 22 28 0 25 -27 40 -39 21z"/>
<path d="M1090 482 c0 -4 9 -8 20 -8 11 0 20 4 20 8 0 4 -9 8 -20 8 -11 0 -20
-4 -20 -8z"/>
<path d="M1326 482 c-2 -4 4 -8 15 -8 10 0 19 4 19 8 0 4 -6 8 -14 8 -8 0 -17
-4 -20 -8z"/>
<path d="M1400 481 c12 -9 11 -11 -9 -11 -17 0 -22 -4 -17 -16 3 -9 6 -18 6
-20 0 -2 10 -4 23 -3 21 0 21 1 -3 11 l-25 11 23 5 c25 4 25 23 1 30 -11 3
-11 2 1 -7z"/>
<path d="M1437 483 c-11 -11 -8 -21 9 -27 14 -5 15 -4 5 8 -9 11 -9 15 1 19 7
3 8 6 2 6 -6 1 -14 -2 -17 -6z"/>
<path d="M1476 481 c-3 -5 1 -15 10 -22 14 -12 14 -14 -3 -20 -16 -7 -16 -8
-1 -8 25 -1 33 20 12 32 -17 10 -17 11 1 18 16 6 17 8 3 8 -9 1 -19 -3 -22 -8z"/>
<path d="M975 460 c-3 -5 -3 -14 0 -20 8 -13 35 -13 35 0 0 5 -7 7 -15 4 -8
-4 -15 -1 -15 4 0 6 8 13 18 15 15 4 15 5 0 6 -9 0 -20 -3 -23 -9z"/>
<path d="M1163 443 c-4 -10 -11 -22 -17 -26 -7 -6 -6 -7 3 -5 13 4 37 48 25
48 -2 0 -8 -8 -11 -17z"/>
<path d="M1438 433 c7 -3 16 -2 19 1 4 3 -2 6 -13 5 -11 0 -14 -3 -6 -6z"/>
<path d="M0 10 c0 -5 10 -10 23 -10 18 0 19 2 7 10 -19 13 -30 13 -30 0z"/>
<path d="M7090 10 c-13 -8 -12 -10 3 -10 9 0 17 5 17 10 0 12 -1 12 -20 0z"/>
</g>
</svg>
