<?xml version="1.0" standalone="no"?>
<!DOCTYPE svg PUBLIC "-//W3C//DTD SVG 20010904//EN"
 "http://www.w3.org/TR/2001/REC-SVG-20010904/DTD/svg10.dtd">
<svg version="1.0" xmlns="http://www.w3.org/2000/svg"
 width="684.000000pt" height="604.000000pt" viewBox="0 0 684.000000 604.000000"
 preserveAspectRatio="xMidYMid meet">

<g transform="translate(0.000000,604.000000) scale(0.100000,-0.100000)"
fill="#000000" stroke="none">
<path d="M0 3020 l0 -3020 3420 0 3420 0 0 3020 0 3020 -3420 0 -3420 0 0
-3020z m364 2805 c-5 -11 -11 -12 -25 -4 -26 13 -24 19 6 19 17 0 23 -4 19
-15z m-7 -26 c17 -11 34 -26 37 -35 3 -8 11 -12 17 -9 7 5 0 18 -18 37 l-28
30 34 -17 c27 -13 39 -15 53 -6 14 9 24 5 53 -20 28 -25 33 -34 24 -45 -6 -8
-17 -14 -24 -14 -19 0 -6 -45 19 -69 20 -19 24 -21 46 -21 6 0 10 -4 10 -9 0
-6 -20 -9 -44 -8 -24 1 -42 -1 -39 -5 2 -5 13 -8 24 -8 22 0 49 -22 49 -40 0
-7 -7 -7 -22 1 -21 11 -22 11 -9 -4 7 -10 20 -17 27 -17 20 0 -8 -65 -44 -104
-53 -56 -166 -86 -237 -63 -38 13 -39 13 -29 29 5 7 14 31 19 53 8 31 17 43
42 54 18 8 35 23 39 33 3 10 10 18 15 18 5 0 9 7 9 15 0 8 -6 12 -15 9 -8 -3
-28 4 -44 15 -42 30 -69 28 -73 -6 -2 -16 3 -40 11 -54 13 -22 13 -33 0 -78
-17 -61 -31 -69 -40 -24 -3 18 -12 39 -19 48 -6 8 -9 19 -5 25 3 5 -1 10 -9
10 -8 0 -17 8 -19 18 -4 13 -5 12 -6 -4 0 -12 -7 -24 -15 -27 -11 -4 -15 7
-18 50 -3 61 7 80 17 32 8 -37 27 -25 28 18 0 15 2 22 4 16 7 -19 29 -16 29 5
1 9 4 29 7 44 4 18 0 35 -12 50 -20 24 -17 58 5 58 8 0 14 4 14 10 0 16 54 39
80 33 14 -3 39 -14 57 -24z m406 -69 c6 -16 14 -30 17 -30 3 0 11 14 17 30 6
17 18 30 27 30 13 0 16 -11 16 -55 0 -42 -3 -55 -15 -55 -9 0 -15 9 -16 23 l0
22 -9 -22 c-13 -32 -28 -29 -44 10 l-14 32 -1 -32 c-2 -57 -21 -36 -21 22 0
44 3 55 16 55 9 0 21 -13 27 -30z m227 21 c0 -5 -6 -12 -12 -14 -8 -3 -6 -6 5
-6 9 -1 17 4 17 9 0 11 29 14 31 3 1 -5 2 -27 3 -51 2 -34 -1 -42 -13 -40 -9
2 -18 16 -21 33 -7 39 -24 38 -28 -2 -4 -41 -22 -44 -22 -4 0 17 -4 33 -10 36
-6 4 -10 -8 -10 -29 0 -34 -2 -36 -34 -36 -36 0 -46 12 -46 56 0 15 6 24 15
24 10 0 15 -10 15 -30 0 -16 5 -30 10 -30 6 0 10 14 10 30 0 25 4 30 24 30 13
0 26 7 30 15 6 16 36 21 36 6z m90 -1 c0 -5 -7 -10 -15 -10 -8 0 -15 5 -15 10
0 6 7 10 15 10 8 0 15 -4 15 -10z m0 -60 c0 -29 -4 -40 -15 -40 -11 0 -15 11
-15 40 0 29 4 40 15 40 11 0 15 -11 15 -40z m-894 1 c-4 -5 0 -11 6 -14 9 -3
7 -9 -7 -20 -18 -14 -20 -14 -23 5 -2 11 2 25 10 29 17 11 20 11 14 0z m112
-110 c3 -8 -1 -12 -9 -9 -7 2 -15 10 -17 17 -3 8 1 12 9 9 7 -2 15 -10 17 -17z
m652 -121 c0 -5 -5 -10 -11 -10 -5 0 -7 5 -4 10 3 6 8 10 11 10 2 0 4 -4 4
-10z m55 0 c3 -6 -1 -7 -9 -4 -18 7 -21 14 -7 14 6 0 13 -4 16 -10z m44 -27
c-1 -37 -1 -37 -8 -8 -7 28 -5 45 5 45 2 0 3 -17 3 -37z m84 30 c3 -5 -8 -8
-23 -8 -15 0 -26 3 -23 8 2 4 13 7 23 7 10 0 21 -3 23 -7z m607 -3 c0 -5 -5
-10 -11 -10 -5 0 -7 5 -4 10 3 6 8 10 11 10 2 0 4 -4 4 -10z m107 4 c-3 -3
-12 -4 -19 -1 -8 3 -5 6 6 6 11 1 17 -2 13 -5z m50 0 c-3 -3 -12 -4 -19 -1 -8
3 -5 6 6 6 11 1 17 -2 13 -5z m50 0 c-3 -3 -12 -4 -19 -1 -8 3 -5 6 6 6 11 1
17 -2 13 -5z m93 -4 c0 -5 -5 -10 -11 -10 -5 0 -7 5 -4 10 3 6 8 10 11 10 2 0
4 -4 4 -10z m97 4 c-3 -3 -12 -4 -19 -1 -8 3 -5 6 6 6 11 1 17 -2 13 -5z m93
-4 c0 -5 -5 -10 -11 -10 -5 0 -7 5 -4 10 3 6 8 10 11 10 2 0 4 -4 4 -10z m47
4 c-3 -3 -12 -4 -19 -1 -8 3 -5 6 6 6 11 1 17 -2 13 -5z m50 0 c-3 -3 -12 -4
-19 -1 -8 3 -5 6 6 6 11 1 17 -2 13 -5z m46 -1 c-7 -2 -19 -2 -25 0 -7 3 -2 5
12 5 14 0 19 -2 13 -5z m-1593 -23 c0 -3 -13 -6 -30 -6 -16 0 -30 3 -30 7 0 4
14 7 30 7 17 -1 30 -4 30 -8z m108 3 c-10 -2 -26 -2 -35 0 -10 3 -2 5 17 5 19
0 27 -2 18 -5z m306 -2 c4 -5 -3 -7 -14 -4 -23 6 -26 13 -6 13 8 0 17 -4 20
-9z m65 -2 c-7 -4 -18 -5 -25 -2 -7 3 -14 -5 -17 -19 -4 -21 -4 -21 -6 4 -1
24 3 27 30 26 18 -1 25 -4 18 -9z m61 -14 c0 -17 -5 -25 -17 -25 -15 0 -16 2
-3 10 13 9 13 10 0 11 -12 0 -12 2 -1 6 11 5 11 7 0 14 -11 7 -10 9 4 9 12 0
17 -8 17 -25z m107 19 c-3 -3 -12 -4 -19 -1 -8 3 -5 6 6 6 11 1 17 -2 13 -5z
m47 -2 c2 -4 -4 -8 -14 -8 -10 0 -16 4 -14 8 3 4 9 8 14 8 5 0 11 -4 14 -8z
m68 -1 c-5 -3 -12 -15 -15 -26 -4 -18 -5 -18 -6 3 0 12 -5 22 -10 22 -5 0 -12
-10 -14 -22 -4 -20 -4 -20 -6 4 -1 24 3 27 30 26 16 -1 26 -4 21 -7z m783 -1
c3 -6 -1 -7 -9 -4 -11 4 -16 0 -16 -11 0 -12 5 -15 18 -10 13 5 14 3 5 -6 -15
-15 -33 -3 -33 22 0 20 24 26 35 9z m-705 -10 c0 -5 -4 -10 -10 -10 -5 0 -10
5 -10 10 0 6 5 10 10 10 6 0 10 -4 10 -10z m227 4 c-3 -3 -12 -4 -19 -1 -8 3
-5 6 6 6 11 1 17 -2 13 -5z m234 -8 c-10 -11 -8 -15 6 -19 14 -4 13 -5 -4 -6
-25 -1 -29 9 -11 27 17 17 23 15 9 -2z m64 4 c3 -6 -1 -7 -9 -4 -18 7 -21 14
-7 14 6 0 13 -4 16 -10z m-452 -7 c-7 -2 -19 -2 -25 0 -7 3 -2 5 12 5 14 0 19
-2 13 -5z m-688 -13 c-3 -5 -12 -10 -18 -10 -7 0 -6 4 3 10 19 12 23 12 15 0z
m110 0 c-28 -7 -29 -8 -5 -10 14 -1 19 -4 12 -7 -18 -7 -44 5 -37 17 3 5 18 9
33 9 l27 -1 -30 -8z m80 0 c-3 -5 -14 -10 -23 -9 -14 0 -13 2 3 9 27 11 27 11
20 0z m275 -4 c-7 -7 -13 -7 -20 0 -6 6 -3 10 10 10 13 0 16 -4 10 -10z m425
4 c-3 -5 -12 -10 -18 -10 -7 0 -6 4 3 10 19 12 23 12 15 0z m50 0 c-3 -5 -12
-10 -18 -10 -7 0 -6 4 3 10 19 12 23 12 15 0z m278 3 c-7 -2 -19 -2 -25 0 -7
3 -2 5 12 5 14 0 19 -2 13 -5z m52 -3 c-3 -5 -12 -10 -18 -10 -7 0 -6 4 3 10
19 12 23 12 15 0z m-1448 -6 c-3 -3 -12 -4 -19 -1 -8 3 -5 6 6 6 11 1 17 -2
13 -5z m600 0 c-3 -3 -12 -4 -19 -1 -8 3 -5 6 6 6 11 1 17 -2 13 -5z m420 0
c-3 -3 -12 -4 -19 -1 -8 3 -5 6 6 6 11 1 17 -2 13 -5z m290 0 c-3 -3 -12 -4
-19 -1 -8 3 -5 6 6 6 11 1 17 -2 13 -5z m-950 -20 c-3 -3 -12 -4 -19 -1 -8 3
-5 6 6 6 11 1 17 -2 13 -5z m-1039 -261 c-10 -2 -18 -9 -18 -14 0 -5 8 -10 18
-10 15 -1 15 -2 0 -6 -9 -2 -19 -14 -21 -26 -2 -12 -5 -3 -6 21 -1 38 1 42 22
41 16 -1 18 -2 5 -6z m89 -55 c-2 -13 -4 -3 -4 22 0 25 2 35 4 23 2 -13 2 -33
0 -45z m33 22 c0 -22 -4 -40 -10 -40 -5 0 -10 18 -10 40 0 22 5 40 10 40 6 0
10 -18 10 -40z m141 20 c16 0 29 -5 29 -12 0 -9 3 -9 12 0 7 7 20 12 30 12 10
0 18 5 18 10 0 6 5 10 10 10 6 0 10 -7 10 -15 0 -10 6 -12 18 -8 15 6 15 5 3
-10 -10 -13 -11 -20 -2 -30 9 -12 -5 -14 -79 -15 -90 -2 -90 -2 -90 23 0 19
-5 25 -22 25 -22 -1 -22 -1 -4 -15 22 -17 13 -35 -17 -34 -20 0 -20 1 -4 8 17
6 17 8 3 20 -20 17 -12 31 20 31 13 0 24 6 25 13 0 10 2 10 6 0 2 -7 18 -13
34 -13z m229 7 c0 -9 10 -12 31 -9 20 3 34 0 40 -9 8 -12 11 -12 19 1 7 12 12
12 22 2 6 -6 17 -12 22 -12 6 0 4 5 -4 11 -12 9 -11 10 8 6 15 -3 22 0 22 9 0
8 5 14 10 14 6 0 10 -18 10 -40 0 -39 -1 -40 -34 -40 -19 0 -37 6 -39 13 -4 9
-8 8 -16 -3 -10 -13 -13 -13 -22 3 -5 9 -19 17 -29 17 -25 0 -26 -17 -2 -23 9
-2 -8 -4 -38 -3 -50 1 -55 3 -58 24 -3 17 2 25 17 29 12 3 21 9 21 14 0 5 5 9
10 9 6 0 10 -6 10 -13z m571 3 c8 11 12 12 16 3 2 -7 11 -13 19 -13 9 0 14
-11 13 -32 -1 -22 -3 -26 -6 -13 -8 34 -23 41 -23 12 0 -22 -5 -27 -25 -27
-20 0 -25 5 -25 25 0 34 -20 32 -21 -2 l-1 -28 -8 25 c-8 24 -8 24 -9 3 -1
-24 -15 -30 -27 -12 -4 8 -9 7 -15 -2 -10 -17 -16 -11 -25 26 -7 27 -6 29 9
16 11 -9 17 -10 17 -2 0 18 20 12 21 -6 1 -17 2 -17 6 0 3 10 14 17 29 17 13
0 24 6 24 13 0 8 4 7 10 -3 9 -13 11 -13 21 0z m127 3 c-22 -6 -23 -12 -1 -28
22 -16 10 -45 -19 -44 -17 1 -18 2 -5 6 21 5 23 33 2 33 -8 0 -15 9 -15 20 0
15 6 20 28 19 16 -1 20 -3 10 -6z m934 -4 c2 -6 16 -11 31 -11 22 0 27 -5 27
-25 0 -14 4 -21 10 -18 6 3 10 15 10 26 0 12 7 19 20 19 15 0 20 -7 20 -29 l0
-30 -70 1 -70 0 0 39 c0 36 14 53 22 28z m135 -51 c-2 -13 -4 -3 -4 22 0 25 2
35 4 23 2 -13 2 -33 0 -45z m86 55 c-7 -2 -13 -20 -13 -39 0 -33 -2 -35 -27
-32 -36 4 -46 46 -14 55 12 3 21 9 21 14 0 5 10 9 23 8 12 0 16 -3 10 -6z
m324 -55 c-2 -13 -4 -3 -4 22 0 25 2 35 4 23 2 -13 2 -33 0 -45z m110 40 c15
-4 23 -1 26 11 3 9 5 -4 6 -29 0 -32 -2 -41 -9 -30 -6 10 -10 11 -10 3 0 -7
-11 -13 -25 -13 -23 0 -25 4 -25 43 0 23 4 37 8 31 4 -6 17 -13 29 -16z m293
2 c24 0 33 -15 25 -40 -8 -24 -55 -28 -55 -5 0 8 -9 15 -20 15 -25 0 -26 -17
-2 -23 14 -4 13 -5 -3 -6 -12 0 -26 4 -33 11 -9 9 -12 9 -12 0 0 -19 -20 -14
-21 6 -1 16 -2 16 -6 0 -6 -26 -22 -22 -33 8 -12 32 -12 34 0 34 6 0 11 -8 11
-17 1 -15 2 -15 6 -2 3 12 17 16 58 15 42 -1 55 2 56 14 0 10 2 11 6 3 2 -7
13 -13 23 -13z m430 8 c0 -9 4 -8 10 2 7 10 12 11 18 4 4 -6 15 -13 25 -17 18
-7 25 -57 7 -57 -5 0 -10 12 -10 26 0 14 -4 23 -10 19 -5 -3 -10 -15 -10 -26
0 -30 -42 -21 -51 11 -7 24 -7 24 -9 -5 l-2 -30 -7 30 -7 30 -7 -27 c-8 -31
-26 -38 -28 -10 -1 16 -2 16 -6 0 -6 -26 -22 -22 -33 8 -12 32 -12 34 0 34 6
0 11 -8 11 -17 1 -14 2 -15 6 -2 2 10 16 15 41 16 20 1 38 6 40 12 5 15 22 14
22 -1z m156 -2 c3 -8 15 -11 30 -8 14 2 24 0 24 -7 0 -6 10 -11 23 -10 21 0
21 1 2 9 -19 8 -19 9 3 9 12 1 22 -4 22 -11 0 -9 3 -9 12 0 7 7 20 12 29 12
10 0 20 6 22 13 9 21 25 -11 19 -39 -3 -17 0 -24 12 -24 17 0 22 -15 7 -24 -5
-4 -11 -1 -13 6 -3 8 -34 11 -100 10 -76 -1 -99 2 -109 14 -12 14 -14 14 -20
-3 -5 -12 -8 -4 -8 25 -1 36 2 42 19 42 11 0 23 -6 26 -14z m287 -8 l16 -23 0
23 c1 23 21 32 21 8 0 -9 7 -12 20 -9 11 3 27 0 35 -7 10 -9 15 -9 15 -1 0 6
9 11 19 11 11 0 22 6 24 13 3 6 6 1 6 -12 1 -20 3 -21 16 -11 16 13 45 7 45
-10 0 -5 -9 -10 -21 -10 -12 0 -17 -4 -13 -11 3 -6 17 -8 30 -5 14 4 24 2 24
-4 0 -14 -53 -13 -68 2 -9 9 -12 9 -12 0 0 -7 -11 -12 -25 -12 -14 0 -25 5
-25 11 0 8 -4 8 -13 1 -21 -18 -77 -11 -93 12 l-14 20 0 -22 c0 -12 -4 -22
-10 -22 -5 0 -10 18 -10 40 0 45 10 51 33 18z m537 -18 l0 -40 -40 2 c-35 1
-40 4 -40 25 0 12 -4 23 -10 23 -5 0 -10 -11 -10 -25 0 -22 -4 -25 -33 -25
-19 0 -36 3 -40 6 -10 10 4 34 22 35 12 0 12 2 -4 9 -19 8 -19 9 3 9 12 1 22
-5 22 -11 0 -10 2 -10 8 -1 4 7 26 11 52 10 27 -1 45 3 48 11 8 26 22 10 22
-28z m100 27 c0 -7 12 -13 28 -12 22 0 27 -4 27 -25 0 -24 -3 -25 -60 -25 -57
0 -60 1 -60 25 0 18 6 26 23 28 12 2 22 8 22 13 0 5 5 9 10 9 6 0 10 -6 10
-13z m180 -27 c0 -36 -2 -40 -25 -40 -14 0 -25 6 -26 13 0 10 -2 10 -6 0 -2
-7 -16 -13 -29 -13 -21 0 -24 4 -23 33 1 21 3 25 6 12 8 -34 23 -41 23 -12 0
26 19 40 21 15 0 -10 2 -10 6 0 2 6 13 12 24 12 10 0 19 5 19 10 0 6 2 10 5
10 3 0 5 -18 5 -40z m211 20 c21 0 29 -5 29 -17 1 -16 2 -16 10 -2 6 10 22 16
41 15 35 -1 54 -26 20 -26 -25 0 -28 -17 -3 -23 13 -4 12 -5 -5 -6 -12 0 -27
7 -32 17 -10 16 -10 16 -11 0 0 -25 -19 -22 -30 5 l-9 22 0 -22 c-1 -17 -7
-23 -25 -23 -18 0 -25 6 -28 28 -5 32 2 66 10 45 2 -7 17 -13 33 -13z m-4930
-44 c5 -6 9 1 9 17 0 15 5 27 10 27 6 0 10 -13 10 -30 0 -25 -4 -30 -25 -30
-22 0 -25 4 -24 33 1 21 3 25 6 12 3 -11 9 -24 14 -29z m845 32 c-9 -5 -17
-19 -17 -31 -1 -17 -2 -18 -6 -4 -2 9 -13 17 -24 17 -24 0 -25 -17 -1 -23 9
-2 -3 -4 -27 -3 -27 0 -46 -4 -49 -12 -5 -16 -22 -15 -22 2 0 9 -8 12 -25 8
-17 -3 -27 1 -31 12 -15 38 0 44 112 43 70 0 101 -3 90 -9z m368 -1 c11 -10
10 -15 -1 -25 -18 -18 -46 6 -29 25 14 16 15 16 30 0z m66 -4 c1 -16 1 -17 10
-2 8 14 28 17 112 17 61 0 95 -3 83 -8 -18 -7 -19 -8 -2 -15 25 -10 21 -35 -5
-35 -14 0 -18 3 -11 8 8 5 8 11 -1 24 -15 20 -26 14 -26 -14 0 -14 -8 -18 -35
-18 -39 0 -48 21 -17 39 16 10 16 10 0 11 -10 0 -18 -4 -18 -10 0 -5 -9 -10
-20 -10 -25 0 -26 -17 -2 -23 13 -4 12 -5 -5 -6 -12 0 -26 6 -31 15 -8 14 -10
12 -16 -10 -3 -14 -13 -26 -22 -26 -12 0 -14 4 -6 13 5 7 6 21 1 32 -11 28
-11 35 1 35 6 0 10 -8 10 -17z m640 5 c0 -7 5 -6 13 0 17 15 89 11 94 -5 2 -6
-6 -13 -19 -15 l-23 -5 25 -11 c23 -10 21 -11 -22 -11 -26 -1 -50 4 -54 10 -4
8 -9 7 -15 -2 -6 -10 -9 -8 -9 8 0 12 -4 25 -10 28 -6 4 -10 -5 -10 -19 0 -14
-4 -26 -10 -26 -5 0 -10 7 -10 15 0 8 -9 15 -20 15 -25 0 -26 -17 -2 -23 9 -2
0 -4 -20 -4 -33 0 -38 3 -38 24 0 12 -4 23 -10 23 -5 0 -10 -11 -10 -25 0 -24
-3 -25 -57 -24 -38 1 -59 -3 -61 -11 -4 -10 -6 -10 -12 1 -5 7 -26 12 -54 11
-34 -2 -48 2 -52 13 -16 40 -3 42 195 43 121 0 191 -4 191 -10z m387 -35 c-3
-10 -5 -2 -5 17 0 19 2 27 5 18 2 -10 2 -26 0 -35z m63 35 c0 -9 3 -9 12 0 7
7 20 12 31 12 15 0 18 -6 15 -37 -3 -32 -7 -38 -28 -40 -23 -2 -23 -2 -5 6 17
8 18 10 3 10 -10 1 -18 7 -18 14 0 8 -4 7 -10 -3 -8 -12 -10 -11 -10 7 0 12
-4 25 -10 28 -6 4 -10 -5 -10 -19 0 -14 -4 -26 -10 -26 -5 0 -10 14 -10 30 0
25 4 30 25 30 14 0 25 -5 25 -12z m178 5 c-19 -5 -25 -43 -8 -43 18 0 50 38
37 44 -7 2 -2 5 11 5 18 1 22 -4 22 -28 l0 -29 -71 0 c-40 0 -66 4 -59 8 9 5
9 9 1 14 -6 4 -11 13 -11 21 0 9 14 13 48 13 26 -1 39 -3 30 -5z m140 -25 c3
-24 0 -28 -22 -28 -30 0 -36 27 -9 37 15 6 15 7 -3 15 -16 6 -15 7 6 5 19 -1
26 -8 28 -29z m146 17 c4 -10 -1 -15 -14 -15 -25 0 -26 -17 -2 -23 12 -4 11
-5 -6 -6 -24 -1 -38 20 -28 44 3 8 14 15 25 15 10 0 21 -7 25 -15z m296 3 c0
-10 2 -10 8 -1 4 7 36 11 85 11 43 -1 73 -4 67 -8 -7 -5 -6 -11 4 -20 23 -18
10 -30 -31 -28 -20 1 -39 -4 -41 -10 -5 -17 -22 -15 -22 3 0 16 -29 10 -43 -9
-6 -8 -10 -7 -14 2 -2 6 -15 12 -27 12 -13 0 -25 3 -29 6 -10 10 4 34 22 35
12 0 12 2 -4 9 -19 8 -19 9 3 9 12 1 22 -5 22 -11z m1030 -28 c0 -32 -4 -40
-17 -39 -11 0 -13 3 -5 6 6 2 12 20 12 39 0 19 2 34 5 34 3 0 5 -18 5 -40z
m44 32 c-7 -5 -7 -14 1 -29 7 -13 15 -20 18 -16 4 3 7 -1 7 -10 0 -9 -4 -17
-10 -17 -5 0 -10 5 -10 10 0 6 -10 10 -22 11 -21 0 -22 1 -3 8 18 7 18 8 1 18
-21 12 -13 33 12 33 10 0 13 -3 6 -8z m616 -12 c0 -18 3 -19 20 -8 18 12 19
13 2 20 -13 6 -11 7 8 5 19 -1 26 -8 28 -30 3 -26 1 -28 -32 -25 -27 1 -36 7
-36 19 0 10 -4 21 -10 24 -6 4 -10 -5 -10 -19 0 -14 -4 -26 -10 -26 -5 0 -10
14 -10 30 0 25 4 30 25 30 18 0 25 -5 25 -20z m410 2 c1 -15 2 -15 11 1 17 29
39 21 38 -15 l-1 -33 -8 30 -7 30 -7 -27 c-10 -35 -24 -36 -36 -2 -11 29 -29
24 -31 -9 -1 -17 -2 -18 -6 -4 -2 9 -13 17 -24 17 -24 0 -25 -17 -1 -23 9 -2
-8 -4 -38 -4 -30 0 -47 3 -37 6 17 6 17 8 3 20 -26 22 -10 29 69 29 63 0 75
-2 75 -16z m189 7 c-8 -5 -5 -11 10 -20 11 -8 21 -17 21 -20 0 -3 -34 -7 -75
-8 -60 -2 -76 1 -81 13 -13 35 2 44 70 43 37 0 61 -4 55 -8z m-5302 -25 c-3
-3 -12 -4 -19 -1 -8 3 -5 6 6 6 11 1 17 -2 13 -5z m4640 0 c-3 -3 -12 -4 -19
-1 -8 3 -5 6 6 6 11 1 17 -2 13 -5z m-4347 -405 c0 -5 -7 -9 -15 -9 -15 0 -20
12 -9 23 8 8 24 -1 24 -14z m-400 1 c0 -5 -11 -10 -25 -10 -16 0 -25 -6 -25
-15 0 -8 9 -15 20 -15 11 0 20 -4 20 -10 0 -5 -9 -10 -20 -10 -34 0 -25 -37
10 -42 38 -6 56 12 41 41 -6 11 -11 22 -11 25 0 11 28 6 34 -6 5 -10 7 -10 12
0 5 11 34 18 34 7 0 -3 -6 -14 -12 -25 -10 -15 -10 -22 0 -32 6 -6 12 -16 12
-20 0 -13 -28 -9 -34 5 -5 10 -7 10 -12 0 -4 -8 -27 -13 -65 -13 l-59 0 0 65
0 65 40 0 c22 0 40 -4 40 -10z m193 -52 c17 -26 -7 -68 -38 -68 -18 0 -25 -5
-25 -20 0 -11 -7 -20 -15 -20 -12 0 -15 14 -15 64 l0 65 41 -2 c27 -1 46 -8
52 -19z m97 7 c16 -19 4 -35 -26 -35 -13 0 -24 -5 -24 -11 0 -7 10 -9 25 -6
16 3 24 0 22 -7 -5 -16 -46 -20 -63 -6 -17 15 -18 52 -2 68 16 16 53 15 68 -3z
m110 -30 c0 -33 -4 -45 -15 -45 -11 0 -15 11 -15 36 0 45 -24 42 -28 -4 -5
-52 -32 -41 -32 13 l0 45 45 0 45 0 0 -45z m98 18 c3 -20 -1 -23 -28 -23 -20
0 -29 -4 -24 -11 3 -6 17 -8 31 -4 18 4 24 2 21 -7 -7 -21 -60 -22 -75 -2 -17
24 -16 39 3 59 24 23 68 16 72 -12z m102 8 c15 -29 13 -71 -4 -71 -9 0 -16 12
-18 32 -4 46 -28 49 -28 4 0 -25 -4 -36 -15 -36 -11 0 -15 12 -15 45 0 45 0
45 35 45 24 0 37 -6 45 -19z m95 9 c4 -6 -5 -10 -19 -10 -21 0 -26 -5 -26 -25
0 -20 5 -25 26 -25 14 0 23 -4 19 -10 -9 -14 -48 -13 -63 2 -15 15 -15 51 0
66 15 15 54 16 63 2z m93 -17 c3 -20 -1 -23 -28 -23 -19 0 -29 -4 -25 -10 4
-6 14 -10 23 -8 10 1 19 -2 22 -7 3 -6 -10 -11 -27 -13 -27 -3 -35 1 -44 21
-17 38 4 69 44 65 24 -2 33 -8 35 -25z m-678 -323 c0 -5 -5 -10 -11 -10 -5 0
-7 5 -4 10 3 6 8 10 11 10 2 0 4 -4 4 -10z m795 0 c3 -5 1 -10 -4 -10 -6 0
-11 5 -11 10 0 6 2 10 4 10 3 0 8 -4 11 -10z m-947 -7 c-22 -5 -23 -17 -4 -32
10 -9 15 -8 19 3 4 9 22 14 56 14 50 1 51 0 51 -29 0 -37 -19 -39 -21 -1 l-2
27 -4 -27 c-4 -29 -23 -39 -23 -13 0 8 -9 15 -20 15 -25 0 -27 -17 -2 -22 9
-3 -10 -5 -43 -5 -46 -1 -54 1 -36 8 l23 9 -23 18 c-27 23 -18 42 19 41 17 -1
21 -3 10 -6z m330 0 c-45 -11 -10 -20 69 -16 90 3 103 -2 103 -39 0 -10 -4
-18 -10 -18 -5 0 -10 9 -10 19 0 11 -4 23 -10 26 -6 3 -10 -4 -10 -18 0 -21
-5 -24 -39 -25 -38 -2 -59 16 -45 39 3 5 0 9 -5 9 -6 0 -11 -11 -11 -25 0 -14
-4 -25 -10 -25 -5 0 -10 9 -10 20 0 11 -7 20 -15 20 -8 0 -15 -9 -15 -20 0
-11 -4 -20 -10 -20 -5 0 -10 18 -10 40 0 37 2 40 28 39 16 -1 20 -3 10 -6z
m203 0 c5 -48 2 -73 -7 -73 -12 0 -23 48 -16 68 4 13 22 16 23 5z m179 -33 l0
-40 -40 2 c-35 1 -40 4 -40 25 0 14 -4 21 -10 18 -5 -3 -10 -15 -10 -26 0 -17
-6 -20 -32 -17 -28 2 -33 7 -33 28 0 24 2 25 69 26 44 0 71 5 74 12 9 27 22 9
22 -28z m78 33 c-43 -11 -11 -20 58 -17 l75 4 -3 -37 c-3 -32 -7 -38 -28 -40
-23 -2 -23 -2 -5 6 l20 10 -20 1 c-11 2 -26 2 -32 1 -8 -1 -13 9 -13 24 0 15
-4 24 -10 20 -5 -3 -10 -15 -10 -26 0 -15 -7 -19 -35 -19 -34 0 -35 1 -35 40
0 37 2 40 28 39 16 -1 20 -3 10 -6z m-638 -24 c0 -8 4 -8 13 -1 6 5 32 10 57
10 25 0 39 -2 33 -5 -7 -3 -13 -15 -13 -27 0 -19 -6 -23 -37 -24 -20 -1 -41 4
-45 11 -6 9 -8 9 -8 0 0 -7 -4 -13 -10 -13 -5 0 -10 14 -10 30 0 17 5 30 10
30 6 0 10 -5 10 -11z m1013 4 c-7 -3 -13 -16 -13 -29 0 -13 -4 -24 -10 -24 -5
0 -10 7 -10 15 0 8 -9 15 -20 15 -25 0 -26 -17 -2 -23 12 -4 11 -5 -6 -6 -12
0 -25 6 -28 14 -4 8 -16 15 -28 15 -20 -1 -20 -1 -2 -15 18 -13 16 -14 -17
-13 -32 1 -37 5 -37 25 0 14 -4 21 -10 18 -5 -3 -10 -15 -10 -26 0 -12 -7 -19
-20 -19 -15 0 -20 7 -20 29 l0 29 123 -1 c67 0 116 -2 110 -4z m-1158 -160 c5
-18 2 -23 -12 -23 -11 0 -25 -6 -32 -12 -10 -11 -11 -10 -6 5 4 9 16 17 26 17
12 0 16 5 13 15 -4 8 -10 12 -15 9 -5 -3 -6 2 -3 11 8 19 19 10 29 -22z m275
24 c-14 -8 -27 -12 -30 -10 -7 6 23 23 40 23 8 0 4 -6 -10 -13z m327 7 c-3 -3
-12 -4 -19 -1 -8 3 -5 6 6 6 11 1 17 -2 13 -5z m68 -14 c12 -39 -20 -82 -39
-51 -3 5 2 8 11 7 24 -2 29 35 7 51 -15 11 -16 13 -2 13 9 0 20 -9 23 -20z
m52 4 c3 -9 -2 -23 -13 -32 -10 -9 -13 -10 -6 -2 17 20 15 38 -5 43 -17 4 -17
5 0 6 10 0 20 -6 24 -15z m53 6 c0 -5 -7 -7 -15 -4 -8 4 -15 8 -15 10 0 2 7 4
15 4 8 0 15 -4 15 -10z m165 -15 c0 -14 -7 -20 -23 -21 -18 -1 -19 -1 -2 3 27
6 25 30 -2 36 -20 5 -20 5 2 4 18 -2 25 -8 25 -22z m279 -19 c1 -19 -2 -32 -5
-28 -12 12 -15 81 -3 69 3 -3 7 -22 8 -41z m-1180 9 c-19 -15 -19 -15 0 -30
16 -12 17 -15 4 -15 -9 0 -19 7 -22 16 -7 18 10 44 27 44 6 0 2 -7 -9 -15z
m100 6 c2 -3 -14 -6 -35 -7 -22 0 -35 3 -28 6 14 9 58 10 63 1z m63 -8 c2 -6
-6 -13 -19 -15 l-23 -5 25 -11 c24 -10 24 -11 3 -11 -13 -1 -23 1 -23 3 0 2
-3 11 -6 20 -5 12 0 16 17 16 20 0 21 2 9 11 -12 9 -12 10 -1 7 8 -3 16 -9 18
-15z m147 8 c4 -5 -3 -7 -14 -4 -16 4 -20 0 -20 -17 0 -17 4 -21 20 -17 11 3
18 1 14 -4 -8 -14 -34 -11 -40 6 -13 32 23 63 40 36z m104 -19 c2 -14 -3 -24
-15 -29 -10 -4 -21 -11 -25 -17 -4 -6 -8 6 -8 28 0 30 -3 37 -16 32 -8 -3 -12
-2 -9 4 3 5 20 9 38 7 25 -2 33 -8 35 -25z m532 24 c0 -2 -7 -6 -15 -10 -8 -3
-15 -1 -15 4 0 6 7 10 15 10 8 0 15 -2 15 -4z m47 -13 c2 -6 -6 -13 -19 -15
l-23 -5 25 -11 c24 -10 24 -11 3 -11 -13 -1 -23 1 -23 3 0 2 -3 11 -6 20 -5
12 0 16 17 16 20 0 21 2 9 11 -12 9 -12 10 -1 7 8 -3 16 -9 18 -15z m35 10
c-10 -4 -10 -8 -1 -19 10 -12 9 -13 -5 -8 -24 9 -18 35 8 33 6 0 5 -3 -2 -6z
m65 -10 c2 -6 -6 -13 -19 -15 l-23 -5 25 -11 c24 -10 24 -11 3 -11 -13 -1 -23
1 -23 3 0 2 -3 11 -6 20 -5 12 0 16 17 16 20 0 21 2 9 11 -12 9 -12 10 -1 7 8
-3 16 -9 18 -15z m53 9 c0 -4 -9 -8 -20 -8 -11 0 -20 4 -20 8 0 4 9 8 20 8 11
0 20 -4 20 -8z m-660 -17 c0 -8 -4 -15 -9 -15 -13 0 -22 16 -14 24 11 11 23 6
23 -9z m66 -4 c-17 -19 -17 -20 6 -24 21 -4 20 -4 -4 -6 -16 0 -28 2 -28 6 0
8 31 43 38 43 3 0 -3 -9 -12 -19z m181 8 c17 -17 4 -39 -21 -38 -19 0 -19 1 4
10 24 10 24 11 6 25 -11 8 -15 14 -10 14 6 0 15 -5 21 -11z m-492 -32 c16 -5
15 -5 -4 -4 -14 1 -26 9 -28 17 -3 10 -2 11 4 4 4 -7 17 -14 28 -17z m572 17
c-3 -3 -12 -4 -19 -1 -8 3 -5 6 6 6 11 1 17 -2 13 -5z m-134 -21 c-7 -2 -19
-2 -25 0 -7 3 -2 5 12 5 14 0 19 -2 13 -5z m354 1 c-3 -3 -12 -4 -19 -1 -8 3
-5 6 6 6 11 1 17 -2 13 -5z m-1092 -264 c7 0 15 10 17 23 3 19 9 22 46 23 26
0 48 7 53 15 6 9 9 0 9 -28 0 -39 -2 -43 -25 -43 -16 0 -25 6 -25 15 0 8 -9
15 -20 15 -25 0 -27 -17 -2 -23 9 -2 -4 -4 -30 -5 l-48 0 2 41 1 42 4 -37 c3
-24 9 -38 18 -38z m455 60 c0 -5 7 -10 15 -10 8 0 15 -5 15 -12 0 -9 3 -9 12
0 16 16 48 15 49 0 0 -10 2 -10 6 0 2 6 16 12 29 12 21 0 24 -4 23 -32 -1 -22
-3 -26 -6 -13 -8 34 -23 41 -23 12 0 -26 -19 -40 -21 -14 0 10 -2 10 -6 0 -2
-7 -16 -13 -29 -13 -13 0 -24 6 -25 13 0 10 -2 10 -6 0 -2 -7 -16 -13 -29 -13
-19 0 -24 5 -25 28 l-2 27 -4 -27 c-3 -19 -10 -28 -23 -28 -28 0 -36 21 -14
37 18 14 18 14 -6 11 -16 -2 -27 -11 -31 -28 -6 -23 -7 -22 -8 8 -1 31 0 32
44 32 25 0 45 5 45 10 0 6 5 10 10 10 6 0 10 -4 10 -10z m211 3 c5 -48 2 -73
-7 -73 -12 0 -23 48 -16 68 4 13 22 16 23 5z m309 -14 c0 -16 3 -19 13 -12 6
6 40 11 75 12 l62 2 -1 -33 c-1 -21 -3 -26 -6 -13 -8 34 -23 41 -23 12 0 -15
-4 -27 -10 -27 -5 0 -10 11 -10 25 0 14 -4 25 -10 25 -5 0 -10 -11 -10 -25 0
-22 -4 -25 -35 -25 -21 0 -35 5 -35 13 0 9 -2 9 -8 1 -4 -7 -34 -12 -74 -11
-66 0 -68 1 -68 26 0 28 -15 19 -23 -14 -3 -15 -5 -13 -6 8 -1 31 -21 28 -21
-4 0 -10 -4 -19 -10 -19 -5 0 -10 13 -10 30 l0 30 92 -3 c65 -1 93 2 96 11 6
20 22 14 22 -9z m211 14 c5 -48 2 -73 -7 -73 -12 0 -23 48 -16 68 4 13 22 16
23 5z m149 -35 c0 -28 -3 -38 -9 -29 -5 8 -11 9 -15 3 -3 -6 -30 -10 -59 -9
-48 2 -52 4 -52 27 0 23 4 25 50 27 28 0 56 -4 63 -9 9 -8 12 -5 12 11 0 11 2
21 5 21 3 0 5 -19 5 -42z m397 -20 c-2 -13 -4 -3 -4 22 0 25 2 35 4 23 2 -13
2 -33 0 -45z m354 38 c24 1 45 7 47 13 8 25 22 8 22 -28 l0 -39 -69 -1 c-68 0
-69 0 -73 28 -6 40 0 54 17 38 7 -8 31 -12 56 -11z m159 11 c0 -9 15 -12 53
-10 35 1 46 -1 32 -7 -18 -7 -19 -8 -2 -15 9 -4 17 -13 17 -21 0 -11 -16 -14
-77 -12 -73 3 -78 4 -81 26 -3 17 2 25 17 29 12 3 21 9 21 14 0 5 5 9 10 9 6
0 10 -6 10 -13z m441 6 c7 -67 6 -69 -36 -70 -22 0 -32 2 -22 4 19 5 14 23 -8
23 -7 0 -16 -11 -19 -25 -4 -14 -14 -25 -22 -25 -12 0 -14 4 -6 13 14 17 -3
57 -25 57 -17 -1 -17 -1 0 -14 24 -18 21 -36 -5 -36 -17 0 -19 3 -9 9 9 6 10
11 2 15 -23 14 -11 36 19 36 22 0 30 -5 30 -17 1 -17 1 -17 11 0 6 10 22 17
39 17 17 0 30 5 30 10 0 11 20 14 21 3z m379 -33 l0 -40 -40 2 c-35 1 -40 4
-40 25 0 14 -4 21 -10 18 -5 -3 -10 -15 -10 -26 0 -15 -7 -19 -35 -19 -38 0
-50 25 -18 37 15 6 14 7 -3 14 -10 4 14 7 55 6 50 -1 76 3 79 11 8 26 22 10
22 -28z m470 0 c0 -36 -3 -40 -24 -40 -13 0 -26 7 -30 15 -3 8 -12 15 -21 15
-21 0 -19 -17 3 -23 12 -4 11 -5 -6 -6 -12 0 -25 6 -29 15 -5 15 -7 15 -15 0
-12 -21 -28 -21 -28 1 0 15 -1 15 -13 -1 -18 -24 -51 -17 -55 12 -4 29 -22 28
-22 -2 0 -19 -5 -23 -26 -23 -15 0 -30 -6 -34 -13 -11 -18 -40 11 -40 40 0 28
-20 16 -21 -13 -1 -20 -2 -20 -6 -2 -8 34 -23 41 -23 12 0 -15 -4 -27 -10 -27
-5 0 -10 13 -10 30 l0 29 131 -1 c102 -1 132 -5 136 -16 5 -11 7 -11 14 0 5 8
30 14 61 15 29 1 54 7 56 13 7 21 12 9 12 -30z m222 31 c-8 -4 -13 -11 -13
-15 4 -28 -1 -56 -9 -56 -5 0 -10 12 -10 26 0 14 -4 23 -10 19 -5 -3 -10 -15
-10 -25 0 -17 -7 -19 -56 -18 -39 1 -58 -3 -65 -13 -6 -10 -9 -1 -9 28 l0 41
70 -1 c41 0 76 5 82 11 7 7 19 12 28 12 12 0 12 -2 2 -9z m-3513 -45 c-1 -21
-3 -24 -6 -11 -8 34 -23 41 -23 12 0 -36 -20 -35 -21 1 l-2 27 -4 -27 c-6 -37
-23 -36 -23 1 0 28 2 30 40 29 38 0 40 -2 39 -32z m89 -4 c-3 -33 -6 -37 -33
-39 -29 -2 -29 -2 -5 7 22 7 22 8 5 10 -11 1 -26 2 -32 1 -8 -1 -13 10 -13 27
0 27 3 29 41 30 l40 2 -3 -38z m397 8 c0 -18 -6 -26 -23 -28 -24 -4 -38 18
-28 44 3 9 15 14 28 12 17 -2 23 -10 23 -28z m635 0 c0 -16 -4 -30 -10 -30 -5
0 -10 14 -10 30 0 17 5 30 10 30 6 0 10 -13 10 -30z m61 18 c0 -10 2 -10 6 0
2 6 16 12 29 12 19 0 24 -5 24 -25 0 -14 5 -25 10 -25 6 0 10 -6 10 -13 0 -9
-13 -14 -37 -15 -30 0 -34 2 -18 8 17 7 17 9 3 9 -10 1 -18 7 -18 14 0 8 -3 8
-9 -2 -7 -11 -10 -9 -13 8 -4 29 -21 28 -30 -1 -5 -20 -6 -18 -7 10 -1 28 2
32 24 32 14 0 25 -6 26 -12z m289 -14 c0 -14 -7 -27 -17 -31 -10 -4 -21 -11
-25 -16 -10 -15 -38 18 -38 44 0 26 -15 15 -23 -16 -3 -15 -5 -13 -6 8 -1 31
-21 28 -21 -4 0 -12 -7 -19 -20 -19 -16 0 -20 7 -20 30 l0 30 85 -1 c83 -1 85
-1 85 -25z m170 15 c0 -8 4 -8 13 -1 6 5 32 9 57 9 41 -2 45 -4 48 -29 2 -16
-1 -28 -7 -28 -6 0 -11 11 -11 25 0 14 -4 25 -10 25 -5 0 -10 -11 -10 -25 0
-22 -4 -25 -35 -25 -21 0 -35 5 -35 13 0 8 -4 7 -10 -3 -8 -12 -10 -11 -10 7
0 12 -4 25 -10 28 -6 4 -10 -5 -10 -19 0 -14 -4 -26 -10 -26 -5 0 -10 12 -10
26 0 30 -19 22 -21 -9 -1 -17 -2 -18 -6 -4 -2 9 -13 17 -24 17 -24 0 -25 -17
-1 -23 12 -4 11 -5 -6 -6 -24 -1 -38 19 -29 43 7 17 137 22 137 5z m477 -36
c-3 -10 -5 -2 -5 17 0 19 2 27 5 18 2 -10 2 -26 0 -35z m61 10 c-3 -32 -7 -38
-28 -40 -23 -2 -23 -2 -5 6 17 8 18 10 3 10 -12 1 -18 9 -18 24 0 29 7 37 32
37 16 0 19 -6 16 -37z m70 5 c2 -16 -1 -28 -7 -28 -6 0 -11 11 -11 25 0 14 -4
25 -10 25 -5 0 -10 -11 -10 -25 0 -14 -4 -25 -10 -25 -5 0 -10 14 -10 31 0 27
3 30 28 27 21 -2 28 -9 30 -30z m341 -2 c-1 -21 -3 -24 -6 -11 -8 34 -23 41
-23 12 0 -36 -20 -35 -21 1 l-2 27 -4 -27 c-4 -29 -23 -39 -23 -13 0 8 -9 15
-20 15 -25 0 -26 -17 -2 -23 12 -4 11 -5 -6 -6 -24 -1 -38 20 -29 43 4 10 24
14 71 14 l66 -1 -1 -31z m278 -13 c-3 -10 -5 -2 -5 17 0 19 2 27 5 18 2 -10 2
-26 0 -35z m1047 31 c3 -9 -2 -14 -14 -14 -11 0 -20 -5 -20 -11 0 -7 10 -9 25
-7 14 3 25 1 25 -3 0 -5 -31 -8 -70 -7 -67 1 -70 3 -70 25 0 14 -4 21 -10 18
-5 -3 -10 -15 -10 -26 0 -16 -7 -19 -45 -19 -42 0 -45 2 -45 27 0 29 -15 22
-23 -12 -4 -18 -5 -18 -6 2 -2 31 -21 39 -21 9 0 -14 -4 -26 -10 -26 -5 0 -10
12 -10 26 0 14 -4 23 -10 19 -5 -3 -10 -14 -10 -24 0 -13 -9 -18 -35 -19 -37
-1 -52 14 -42 42 8 21 393 20 401 0z m-1304 -49 c0 -8 -4 -15 -10 -15 -5 0 -7
7 -4 15 4 8 8 15 10 15 2 0 4 -7 4 -15z m-2225 -185 c3 -5 1 -10 -4 -10 -6 0
-11 5 -11 10 0 6 2 10 4 10 3 0 8 -4 11 -10z m-617 -7 c-21 -5 -24 -23 -5 -24
10 0 10 -2 0 -6 -7 -2 -13 -13 -13 -24 0 -10 -4 -19 -10 -19 -5 0 -10 18 -10
40 0 37 2 40 28 39 16 -1 20 -3 10 -6z m194 -3 c5 -16 161 -17 166 -2 8 26 22
10 22 -28 l0 -40 -40 2 c-35 1 -40 4 -40 25 0 14 -4 21 -10 18 -5 -3 -10 -15
-10 -26 0 -18 -6 -20 -52 -17 -46 3 -53 6 -59 28 l-7 25 -1 -27 c-1 -16 -5
-28 -11 -28 -5 0 -11 12 -11 28 l-2 27 -4 -27 c-4 -26 -23 -40 -23 -18 0 6 -7
6 -19 -1 -24 -16 -48 -6 -54 23 -4 20 -4 20 -6 -4 -1 -38 -21 -36 -21 2 0 28
2 30 38 30 21 0 43 -5 50 -12 9 -9 12 -9 12 0 0 7 13 12 30 12 17 0 30 5 30
10 0 13 17 13 22 0z m258 0 c-13 -9 -13 -11 0 -20 10 -6 11 -10 3 -10 -7 0
-13 -7 -13 -15 0 -8 7 -15 15 -15 9 0 15 9 15 25 0 20 5 25 25 25 14 0 25 -5
25 -12 0 -9 3 -9 12 0 7 7 27 12 45 12 29 0 33 -3 33 -26 0 -30 -25 -54 -55
-53 l-20 0 20 9 20 9 -20 1 c-11 2 -26 2 -32 1 -7 -1 -13 7 -13 18 0 11 -4 23
-10 26 -6 4 -10 -5 -10 -19 0 -23 -4 -26 -35 -26 -34 0 -35 1 -35 40 0 35 3
40 23 40 18 0 19 -2 7 -10z m371 -23 c-6 -6 -11 -19 -11 -29 0 -23 -58 -26
-66 -3 -4 8 -15 15 -25 15 -24 0 -25 -17 -1 -23 9 -2 0 -4 -20 -4 -33 0 -38 3
-38 24 0 14 -4 21 -10 18 -5 -3 -10 -15 -10 -26 0 -10 -4 -19 -10 -19 -5 0
-10 13 -10 28 l0 29 106 1 c79 0 104 -2 95 -11z m-816 -124 c-11 -3 -26 -10
-32 -15 -9 -7 -13 -7 -13 0 0 13 18 21 45 20 l20 0 -20 -5z m412 1 c-3 -3 -12
-4 -19 -1 -8 3 -5 6 6 6 11 1 17 -2 13 -5z m57 -2 c2 -4 -4 -8 -14 -8 -10 0
-16 4 -14 8 3 4 9 8 14 8 5 0 11 -4 14 -8z m63 -12 c3 -10 2 -11 -4 -4 -4 6
-15 14 -23 17 -11 5 -9 6 4 4 11 -1 21 -9 23 -17z m61 -18 c4 -35 -20 -54 -40
-34 -8 8 -5 9 11 5 18 -5 21 -1 21 25 0 20 -6 32 -17 36 -14 4 -14 4 2 3 15
-2 21 -11 23 -35z m149 22 c3 -9 -2 -23 -13 -32 -10 -9 -13 -10 -6 -2 17 20
15 38 -5 43 -17 4 -17 5 0 6 10 0 20 -6 24 -15z m58 5 c11 -16 1 -19 -13 -3
-7 8 -8 14 -3 14 5 0 13 -5 16 -11z m55 1 c0 -5 -7 -7 -15 -4 -8 4 -15 8 -15
10 0 2 7 4 15 4 8 0 15 -4 15 -10z m54 1 c4 -5 -3 -7 -14 -4 -23 6 -26 13 -6
13 8 0 17 -4 20 -9z m-814 -20 c0 -5 -8 -8 -17 -7 -10 0 -18 -6 -18 -14 0 -8
8 -14 18 -14 9 1 17 -2 17 -7 0 -5 -9 -9 -19 -9 -23 0 -35 28 -20 46 13 16 39
19 39 5z m65 -21 c0 -18 -6 -26 -22 -28 -13 -2 -23 1 -23 6 0 6 9 8 20 5 16
-4 20 0 20 17 0 17 -4 21 -20 17 -11 -3 -17 -1 -14 4 12 19 39 4 39 -21z m169
-1 c-3 -5 -10 -7 -15 -3 -5 3 -7 10 -3 15 3 5 10 7 15 3 5 -3 7 -10 3 -15z
m72 2 c-17 -19 -17 -20 6 -24 21 -4 20 -4 -4 -6 -16 0 -28 2 -28 6 0 8 31 43
38 43 3 0 -3 -9 -12 -19z m440 0 c-17 -19 -17 -20 6 -24 21 -4 20 -4 -4 -6
-16 0 -28 2 -28 6 0 8 31 43 38 43 3 0 -3 -9 -12 -19z m69 -7 c0 -11 -8 -19
-18 -20 -12 -1 -13 -1 -2 3 17 5 20 29 5 36 -6 3 -5 4 2 3 7 -2 13 -11 13 -22z
m-897 -1 c-4 -21 -50 -25 -54 -5 -1 7 0 8 3 2 6 -12 43 -13 43 -1 0 5 -6 12
-12 14 -8 3 -5 6 5 6 12 1 17 -5 15 -16z m195 10 c-7 -2 -19 -2 -25 0 -7 3 -2
5 12 5 14 0 19 -2 13 -5z m47 -3 c0 -5 -4 -10 -10 -10 -5 0 -10 5 -10 10 0 6
5 10 10 10 6 0 10 -4 10 -10z m407 -6 c-3 -3 -12 -4 -19 -1 -8 3 -5 6 6 6 11
1 17 -2 13 -5z m138 -13 c-8 -14 -35 -14 -35 -1 0 5 7 7 15 4 8 -4 15 -1 15 7
0 7 3 10 6 6 3 -3 3 -10 -1 -16z m-594 -9 c-7 -2 -18 1 -23 6 -8 8 -4 9 13 5
13 -4 18 -8 10 -11z m259 4 c-7 -7 -13 -7 -20 0 -6 6 -3 10 10 10 13 0 16 -4
10 -10z m63 -3 c-7 -2 -21 -2 -30 0 -10 3 -4 5 12 5 17 0 24 -2 18 -5z m210 0
c-7 -2 -19 -2 -25 0 -7 3 -2 5 12 5 14 0 19 -2 13 -5z m-730 -207 c9 -7 17
-23 17 -35 0 -11 5 -21 10 -21 6 0 10 11 10 25 0 14 5 25 10 25 6 0 10 -13 10
-29 0 -29 -1 -29 -55 -29 l-55 1 0 38 c0 42 18 51 53 25z m107 2 c0 -10 2 -10
8 -2 5 9 11 8 20 -2 7 -8 8 -14 2 -14 -14 0 -13 -37 3 -43 7 -3 5 -6 -5 -6
-13 -1 -18 7 -19 27 l-2 27 -4 -27 c-7 -42 -23 -33 -23 12 0 22 5 40 10 40 6
0 10 -6 10 -12z m120 -28 c0 -36 -2 -40 -25 -40 -20 0 -25 5 -25 26 0 17 6 28
20 31 11 3 20 9 20 14 0 5 2 9 5 9 3 0 5 -18 5 -40z m130 30 c0 -5 7 -10 15
-10 10 0 15 -10 14 -32 -1 -22 -3 -26 -6 -13 -8 33 -23 42 -23 13 0 -24 -3
-25 -60 -27 -48 -1 -60 1 -60 14 0 9 8 19 17 22 15 6 14 7 -3 14 -12 4 -1 7
29 6 26 0 43 -3 37 -7 -7 -5 -6 -11 5 -20 13 -11 15 -8 15 19 0 17 5 31 10 31
6 0 10 -4 10 -10z m62 -2 c6 -16 221 -15 226 1 5 16 22 14 22 -3 0 -9 7 -12
23 -9 15 3 18 2 9 -4 -10 -7 -8 -14 8 -28 22 -20 27 -45 9 -45 -6 0 -9 6 -6
13 3 9 -10 12 -47 12 -45 0 -51 2 -54 23 -4 26 -22 20 -22 -8 0 -17 -8 -19
-95 -18 l-95 1 0 38 c0 37 14 53 22 27z m553 -10 c57 -3 60 -4 63 -30 2 -16
-1 -28 -7 -28 -6 0 -11 12 -11 27 0 29 -15 22 -23 -12 -3 -15 -5 -13 -6 8 -1
31 -21 28 -21 -4 0 -15 -7 -19 -35 -19 -19 0 -35 4 -35 9 0 5 -11 4 -25 -2
-14 -7 -25 -15 -25 -19 0 -5 -4 -8 -10 -8 -5 0 -10 6 -10 13 0 7 -12 13 -27
12 -23 0 -28 4 -28 25 0 24 3 25 60 28 33 1 62 7 64 13 2 8 5 8 10 1 4 -6 33
-12 66 -14z m255 -17 l0 -39 -90 -1 -90 -1 1 32 1 33 7 -30 c7 -29 7 -30 19
-8 9 17 9 22 -1 26 -6 3 19 4 57 4 47 -1 71 2 74 11 8 26 22 10 22 -27z m52
28 c2 -6 16 -11 31 -11 22 0 27 -5 27 -24 0 -13 5 -24 10 -24 6 0 10 11 10 25
0 24 2 25 57 23 37 -2 58 2 61 10 8 26 22 10 22 -28 l0 -40 -40 2 c-35 1 -40
4 -40 25 0 14 -4 21 -10 18 -5 -3 -10 -15 -10 -25 0 -17 -8 -19 -70 -18 l-70
0 0 39 c0 36 14 53 22 28z m235 -51 c-2 -13 -4 -3 -4 22 0 25 2 35 4 23 2 -13
2 -33 0 -45z m493 22 l0 -40 -40 2 c-35 1 -40 4 -40 25 0 12 -4 23 -10 23 -5
0 -10 -11 -10 -25 0 -22 -4 -25 -33 -25 -19 0 -36 3 -40 6 -10 10 4 34 22 35
12 0 12 2 -4 9 -19 8 -19 9 3 9 12 1 22 -5 22 -11 0 -10 2 -10 8 -1 4 7 26 11
52 10 27 -1 45 3 48 11 8 26 22 10 22 -28z m470 1 l0 -40 -52 1 c-29 0 -57 5
-61 11 -6 9 -10 9 -14 0 -7 -20 -21 -15 -29 9 l-7 23 -8 -23 c-12 -32 -51 -26
-60 8 l-7 25 -1 -27 c-1 -27 -20 -40 -22 -15 0 10 -2 10 -6 0 -2 -7 -13 -13
-23 -13 -10 0 -21 -6 -23 -12 -3 -7 -6 6 -6 29 l-1 42 83 -1 c48 0 85 -5 90
-12 5 -8 10 -6 17 4 7 12 12 12 22 2 6 -6 17 -12 23 -12 5 0 4 4 -4 9 -10 6
-2 9 24 8 22 -1 40 4 43 11 8 26 22 10 22 -27z m370 32 c0 -5 11 -13 25 -19
18 -9 25 -9 29 0 2 6 5 -5 5 -24 0 -23 -2 -30 -8 -21 -6 9 -11 10 -15 2 -4 -6
-18 -11 -32 -11 -21 0 -24 5 -24 34 0 19 -6 37 -12 39 -7 3 -3 6 10 6 12 1 22
-2 22 -6z m103 0 c-7 -2 -13 -20 -13 -39 0 -19 -4 -34 -10 -34 -5 0 -10 18
-10 40 0 35 3 40 23 39 12 0 16 -3 10 -6z m52 -13 c7 0 16 -6 19 -12 5 -10 7
-10 12 0 3 6 10 12 14 12 18 0 -17 -75 -36 -78 -14 -2 -15 -1 -6 6 14 10 7 62
-9 62 -14 0 -11 -38 4 -43 7 -4 6 -6 -4 -6 -11 -1 -18 9 -21 27 -5 32 2 66 10
45 2 -7 10 -13 17 -13z m-2928 -47 c-3 -10 -5 -2 -5 17 0 19 2 27 5 18 2 -10
2 -26 0 -35z m1500 30 c2 -6 -6 -13 -19 -15 l-23 -5 25 -11 c25 -11 25 -11 2
-11 -25 -1 -38 20 -28 45 7 17 37 16 43 -3z m65 8 c-10 -6 -10 -10 3 -21 13
-11 15 -9 15 9 0 17 6 21 36 21 l36 0 -16 -25 c-14 -21 -14 -25 -2 -25 8 0 16
10 18 23 4 26 42 36 51 13 5 -11 0 -16 -13 -16 -11 0 -20 -4 -20 -10 0 -5 11
-10 25 -10 16 0 25 -6 25 -15 0 -17 -17 -20 -22 -4 -2 7 -35 11 -88 11 -47 0
-76 4 -65 7 18 7 18 8 1 18 -21 12 -13 33 12 33 13 0 14 -2 4 -9z m418 -21 c0
-16 -4 -30 -10 -30 -5 0 -10 14 -10 30 0 17 5 30 10 30 6 0 10 -13 10 -30z
m89 -2 c-1 -22 -3 -26 -6 -13 -8 34 -23 41 -23 12 0 -15 -4 -27 -10 -27 -5 0
-10 12 -10 27 0 29 -15 22 -23 -12 -3 -13 -5 -9 -6 13 -1 31 0 32 39 32 39 0
40 -1 39 -32z m406 22 c4 -7 11 -7 18 -2 7 5 61 10 121 10 59 0 103 -4 96 -8
-9 -5 -9 -9 -1 -14 6 -4 11 -14 11 -22 0 -12 -20 -14 -112 -13 -70 1 -116 6
-120 13 -5 8 -8 7 -8 -1 0 -7 -11 -13 -25 -13 -29 0 -35 27 -8 37 15 6 15 7
-3 14 -18 7 -17 8 3 8 12 1 25 -4 28 -9z m262 -37 c-3 -10 -5 -2 -5 17 0 19 2
27 5 18 2 -10 2 -26 0 -35z m140 0 c-3 -10 -5 -2 -5 17 0 19 2 27 5 18 2 -10
2 -26 0 -35z m-2697 -294 c0 -5 -7 -9 -15 -9 -15 0 -20 12 -9 23 8 8 24 -1 24
-14z m-232 -1 c23 -23 14 -59 -18 -71 -18 -7 -30 -19 -30 -29 0 -10 -7 -18
-15 -18 -12 0 -15 14 -15 65 l0 65 33 0 c18 0 38 -5 45 -12z m462 -12 c0 -8 6
-17 13 -20 10 -5 10 -7 0 -12 -7 -3 -13 -17 -13 -30 0 -21 5 -24 36 -24 21 0
33 4 29 10 -3 6 -12 10 -20 10 -18 0 -26 25 -12 39 13 13 57 15 57 2 0 -5 -10
-12 -22 -14 l-23 -4 22 -8 c12 -4 24 -13 27 -20 8 -23 -18 -35 -70 -32 -48 2
-49 3 -52 35 -3 31 -6 33 -35 30 -24 -2 -32 -8 -32 -23 0 -13 8 -21 23 -23 30
-4 28 -22 -2 -22 -34 0 -58 27 -50 54 9 28 22 36 62 36 22 0 32 5 32 15 0 8 7
15 15 15 8 0 15 -6 15 -14z m-380 -22 c0 -3 -7 -12 -15 -20 -8 -9 -15 -26 -15
-40 0 -15 -6 -24 -15 -24 -11 0 -15 12 -15 45 0 43 1 45 30 45 17 0 30 -3 30
-6z m88 -6 c29 -29 7 -78 -34 -78 -25 0 -54 24 -54 45 0 36 62 59 88 33z m62
-34 c0 -55 -14 -84 -40 -84 -23 0 -27 15 -5 24 11 4 15 20 15 56 0 38 4 50 15
50 11 0 15 -12 15 -46z m90 31 c16 -19 4 -35 -26 -35 -13 0 -24 -5 -24 -11 0
-7 10 -9 25 -7 17 4 25 1 25 -8 0 -17 -51 -19 -68 -2 -15 15 -15 51 0 66 16
16 53 15 68 -3z m-150 -335 c0 -5 -5 -10 -11 -10 -5 0 -7 5 -4 10 3 6 8 10 11
10 2 0 4 -4 4 -10z m-203 -27 c-4 -24 -4 -26 8 -10 13 19 40 23 50 7 3 -5 14
-10 23 -10 15 0 15 2 2 10 -12 8 -11 10 8 10 18 0 22 -6 22 -30 0 -30 0 -30
-59 -30 -41 0 -62 5 -72 16 -12 14 -14 14 -20 -3 -5 -12 -8 -4 -8 25 -1 39 1
42 25 42 23 0 26 -3 21 -27z m143 15 c0 -9 4 -8 11 2 8 11 12 12 16 3 2 -7 11
-13 19 -13 9 0 14 -11 14 -30 0 -25 -4 -30 -25 -30 -20 0 -25 5 -26 28 l-2 27
-4 -27 c-7 -42 -23 -33 -23 12 0 22 5 40 10 40 6 0 10 -6 10 -12z m310 2 c0
-6 -8 -10 -17 -8 -13 2 -18 -4 -18 -22 0 -16 6 -26 18 -28 12 -2 17 3 17 18 0
26 26 37 51 21 16 -9 19 -8 19 9 0 13 7 20 20 20 17 0 20 -7 20 -40 0 -33 -3
-40 -20 -40 -11 0 -20 5 -20 11 0 8 -4 8 -12 1 -7 -5 -34 -10 -60 -10 -55 -1
-78 22 -58 58 11 21 60 29 60 10z m190 0 c0 -5 9 -10 19 -10 21 0 33 -22 25
-45 -9 -22 -114 -21 -114 0 0 9 7 18 16 22 13 5 13 7 2 14 -9 6 -7 9 10 9 12
0 22 5 22 10 0 6 5 10 10 10 6 0 10 -4 10 -10z m142 -3 c7 -8 20 -12 30 -9 10
2 24 -1 32 -7 10 -8 16 -9 21 -1 3 5 23 10 43 10 25 0 32 -3 23 -9 -11 -7 -10
-11 4 -19 10 -5 15 -14 11 -21 -9 -14 -86 -15 -86 -1 0 6 -8 5 -20 -2 -16 -10
-24 -10 -40 -1 -12 8 -21 9 -25 3 -3 -6 -17 -10 -31 -10 -21 0 -24 4 -24 40 0
36 3 40 25 40 13 0 30 -6 37 -13z m-424 -24 c2 -8 -6 -13 -20 -13 -22 -1 -22
-1 -4 -15 18 -13 16 -14 -17 -13 -32 1 -37 5 -37 25 0 14 -4 21 -10 18 -5 -3
-10 -15 -10 -26 0 -30 -20 -22 -21 9 l-2 27 -4 -27 c-6 -38 -23 -36 -23 2 l0
30 72 -2 c46 -2 73 -7 76 -15z m-368 -402 c-28 -8 -36 -51 -11 -59 10 -3 12 0
8 12 -5 11 -1 16 13 16 10 0 21 4 24 9 8 13 106 11 106 -2 0 -7 4 -7 12 1 7 7
20 12 31 12 15 0 18 -6 15 -37 -3 -32 -7 -38 -28 -40 -23 -2 -23 -2 -5 6 l20
10 -20 1 c-11 1 -45 2 -75 1 -32 0 -57 4 -62 12 -6 9 -8 9 -8 0 0 -16 -42 -17
-58 -1 -28 28 -5 69 38 67 l25 -1 -25 -7z m230 -11 c0 -18 2 -19 21 -8 17 11
22 10 33 -4 16 -22 42 -23 50 -3 3 8 12 15 21 15 8 0 15 5 15 10 0 6 5 10 10
10 6 0 10 -6 10 -14 0 -9 7 -12 20 -9 11 3 26 0 34 -6 10 -8 16 -9 21 -1 3 5
23 10 43 10 23 0 32 -3 24 -9 -10 -6 -10 -10 2 -21 9 -7 13 -16 10 -21 -8 -13
-84 -11 -84 2 0 8 -4 8 -12 1 -16 -12 -98 -14 -113 -2 -13 11 -85 24 -85 16 0
-4 10 -11 23 -16 21 -8 21 -9 -5 -9 -16 -1 -28 5 -29 12 0 10 -2 10 -6 0 -10
-27 -23 -11 -23 27 0 22 5 40 10 40 6 0 10 -9 10 -20z m383 13 c-7 -2 -13 -20
-13 -39 0 -19 -4 -34 -10 -34 -5 0 -10 18 -10 40 0 35 3 40 23 39 12 0 16 -3
10 -6z m37 -6 c0 -10 11 -13 39 -10 28 3 40 0 44 -12 5 -10 0 -15 -13 -15 -25
0 -26 -17 -2 -23 9 -2 -7 -4 -35 -4 l-53 1 0 38 c0 21 5 38 10 38 6 0 10 -6
10 -13z m220 -27 c0 -36 -2 -40 -25 -40 -16 0 -25 6 -25 15 0 8 -9 15 -20 15
-25 0 -26 -17 -2 -24 10 -3 6 -4 -8 -3 -20 2 -25 7 -25 27 0 23 4 25 44 26 25
0 47 6 49 12 7 23 12 12 12 -28z m61 33 c5 -50 2 -73 -8 -73 -7 0 -14 12 -14
28 l-2 27 -4 -27 c-6 -37 -23 -36 -23 2 0 20 5 30 15 30 8 0 15 5 15 10 0 11
20 14 21 3z m309 -5 c0 -9 4 -8 10 2 7 10 12 11 18 4 4 -6 15 -13 25 -17 18
-7 25 -57 7 -57 -5 0 -10 12 -10 26 0 14 -4 23 -10 19 -5 -3 -10 -15 -10 -26
0 -30 -42 -21 -51 11 -7 24 -7 24 -9 -5 -2 -29 -2 -29 -9 -5 l-7 25 -8 -22
c-9 -27 -26 -30 -27 -5 -1 16 -2 16 -6 -1 -3 -10 -10 -16 -16 -14 -14 4 -29
57 -16 57 5 0 9 -5 9 -11 0 -8 5 -7 16 2 13 10 17 10 25 -2 6 -10 9 -10 9 -1
0 6 9 12 20 12 11 0 20 5 20 10 0 6 5 10 10 10 6 0 10 -6 10 -12z m221 0 c0
-10 2 -10 6 0 3 8 26 12 66 12 34 0 57 -4 50 -8 -6 -4 -13 -23 -16 -42 l-4
-35 -1 38 c-2 46 -20 49 -24 5 -3 -30 -6 -33 -41 -36 -28 -2 -43 2 -53 15 -11
15 -13 16 -14 2 0 -19 -57 -24 -77 -7 -16 13 -17 40 -1 56 16 16 108 16 109 0z
m-844 -55 c-3 -10 -5 -2 -5 17 0 19 2 27 5 18 2 -10 2 -26 0 -35z m340 0 c-3
-10 -5 -2 -5 17 0 19 2 27 5 18 2 -10 2 -26 0 -35z m64 35 c0 -10 2 -10 6 0 2
6 16 12 29 12 23 0 25 -3 22 -37 -3 -32 -7 -38 -28 -40 -23 -2 -23 -2 -5 6
l20 10 -20 1 c-11 2 -23 2 -27 1 -5 0 -8 8 -8 18 0 11 -4 23 -10 26 -6 4 -10
-5 -10 -19 0 -14 -4 -26 -10 -26 -5 0 -10 14 -10 30 0 25 4 30 25 30 14 0 25
-6 26 -12z m594 3 c-19 -8 -18 -9 8 -21 37 -18 34 -27 -10 -28 -25 0 -32 2
-20 7 17 6 17 8 3 20 -20 17 -12 31 17 30 21 0 21 -1 2 -8z m-1475 -602 l0
-70 -42 3 c-39 3 -43 6 -46 31 -4 33 13 57 39 57 14 0 19 7 19 25 0 16 6 25
15 25 12 0 15 -15 15 -71z m400 50 c0 -5 -7 -9 -15 -9 -15 0 -20 12 -9 23 8 8
24 -1 24 -14z m-500 1 c0 -5 -11 -10 -25 -10 -16 0 -25 -6 -25 -15 0 -8 9 -15
20 -15 11 0 20 -4 20 -10 0 -5 -9 -10 -20 -10 -13 0 -20 -7 -20 -20 0 -15 7
-20 25 -20 14 0 25 -4 25 -10 0 -5 -18 -10 -40 -10 l-40 0 0 65 0 65 40 0 c22
0 40 -4 40 -10z m440 -14 c0 -8 6 -17 13 -20 10 -5 10 -7 0 -12 -15 -7 -17
-54 -3 -54 6 0 10 -5 10 -11 0 -6 -10 -9 -22 -7 -17 2 -24 11 -26 33 -2 17 -8
36 -14 43 -7 8 -7 12 1 12 6 0 11 7 11 15 0 8 7 15 15 15 8 0 15 -6 15 -14z
m-290 -51 c0 -24 5 -35 15 -35 10 0 15 11 15 35 0 24 5 35 15 35 11 0 15 -12
15 -45 l0 -45 -39 0 c-42 0 -51 11 -51 61 0 19 5 29 15 29 10 0 15 -11 15 -35z
m150 26 c0 -5 -10 -11 -22 -13 -15 -2 -23 -10 -23 -23 0 -13 8 -21 23 -23 33
-5 27 -22 -8 -22 -44 0 -64 44 -34 74 17 17 64 22 64 7z m88 -39 l3 -43 -38 3
c-30 2 -39 7 -41 24 -2 16 4 25 25 32 l28 10 -28 1 c-17 1 -26 5 -22 12 4 5
21 9 38 7 30 -3 32 -6 35 -46z m112 3 c0 -33 -4 -45 -15 -45 -11 0 -15 12 -15
45 0 33 4 45 15 45 11 0 15 -12 15 -45z m98 33 c7 -7 12 -21 12 -33 0 -29 -19
-45 -52 -45 -36 0 -56 36 -39 69 13 23 59 29 79 9z m110 -35 c2 -34 0 -43 -12
-43 -12 0 -16 10 -16 36 0 45 -24 42 -28 -4 -2 -20 -9 -32 -18 -32 -10 0 -14
13 -14 46 l0 45 43 -3 c42 -3 42 -3 45 -45z m-263 -303 c3 -5 1 -10 -4 -10 -6
0 -11 5 -11 10 0 6 2 10 4 10 3 0 8 -4 11 -10z m730 0 c3 -5 1 -10 -4 -10 -6
0 -11 5 -11 10 0 6 2 10 4 10 3 0 8 -4 11 -10z m-1207 -20 c-3 -19 -1 -21 30
-19 14 0 14 2 -3 9 -14 5 -6 8 28 7 32 0 52 5 58 14 8 12 10 12 18 -1 6 -8 24
-14 48 -13 21 1 41 -4 45 -10 5 -7 8 -3 8 11 0 12 5 22 10 22 6 0 10 -10 10
-21 0 -16 3 -19 13 -11 6 5 30 10 52 10 21 0 41 5 43 11 4 13 22 15 22 2 0 -5
-9 -13 -20 -16 -12 -4 -20 -15 -20 -29 0 -19 -6 -23 -37 -24 -20 -1 -41 4 -45
11 -6 9 -8 9 -8 0 0 -7 -4 -13 -10 -13 -5 0 -10 7 -10 15 0 8 -9 15 -20 15
-25 0 -26 -17 -2 -23 9 -2 0 -4 -20 -4 -33 0 -38 3 -38 24 0 14 -4 21 -10 18
-5 -3 -10 -15 -10 -25 0 -17 -9 -18 -90 -18 l-90 0 0 39 c0 35 3 39 26 39 19
0 25 -4 22 -20z m637 9 c4 -6 1 -10 -6 -8 -31 4 -40 -2 -37 -23 2 -15 11 -24
27 -26 15 -3 21 0 16 8 -4 6 -2 17 5 25 8 10 40 13 126 13 l114 -1 1 -26 2
-26 4 28 c2 15 10 27 18 27 7 0 15 6 18 13 7 21 19 0 21 -37 1 -23 -3 -36 -11
-36 -7 0 -14 12 -14 28 l-2 27 -4 -27 c-4 -25 -8 -27 -50 -26 -27 0 -48 -5
-53 -12 -11 -18 -40 11 -40 40 0 12 -4 18 -10 15 -5 -3 -10 -15 -10 -26 0 -30
-20 -22 -21 9 l-2 27 -4 -26 c-4 -24 -8 -26 -65 -28 -62 -2 -88 9 -88 38 0 34
49 56 65 30z m483 4 c-10 -2 -18 -8 -18 -13 0 -13 33 -21 44 -10 5 5 20 10 33
10 19 0 23 -5 23 -29 l0 -30 -62 1 c-35 1 -55 3 -45 5 22 6 22 19 0 31 -23 13
-9 42 19 41 17 -1 18 -2 6 -6z m-706 -22 c-10 -6 -10 -10 2 -21 20 -16 11 -30
-17 -29 -18 1 -19 2 -4 6 17 4 17 5 1 17 -19 15 -11 36 14 36 13 0 14 -2 4 -9z
m58 -21 c0 -16 -4 -30 -10 -30 -5 0 -10 14 -10 30 0 17 5 30 10 30 6 0 10 -13
10 -30z m68 -2 c2 -16 -1 -28 -7 -28 -6 0 -11 12 -11 26 0 14 -4 23 -10 19 -5
-3 -10 -15 -10 -26 0 -10 -4 -19 -10 -19 -5 0 -10 14 -10 31 0 27 3 30 28 27
21 -2 28 -9 30 -30z m503 19 c-6 -6 -11 -19 -11 -29 0 -10 -4 -18 -10 -18 -5
0 -10 7 -10 15 0 9 -9 15 -22 15 -22 -1 -23 -1 -4 -15 19 -15 19 -15 -2 -15
-24 0 -38 21 -29 44 4 10 21 14 53 14 34 0 43 -3 35 -11z m220 1 c0 -10 2 -10
6 0 6 15 53 16 53 1 0 -8 4 -8 13 -1 20 16 97 13 97 -4 0 -8 -7 -14 -15 -14
-21 0 -19 -18 3 -23 9 -2 -11 -4 -45 -4 -54 0 -63 3 -63 18 0 10 -4 21 -10 24
-6 4 -10 -5 -10 -19 0 -14 -4 -26 -10 -26 -5 0 -10 7 -10 15 0 8 -9 15 -20 15
-25 0 -26 -17 -2 -23 12 -4 11 -5 -6 -6 -24 -1 -38 20 -28 44 7 18 46 20 47 3z
m-1283 -125 c-22 -5 -23 -22 -3 -29 25 -10 19 -44 -7 -43 -17 1 -19 2 -5 6 22
6 22 19 0 31 -20 12 -10 42 14 41 17 -1 17 -2 1 -6z m260 -61 c11 2 19 17 23
38 l6 35 2 -31 c1 -35 -20 -59 -44 -50 -10 4 -14 17 -13 43 l1 38 4 -38 c3
-29 8 -37 21 -35z m356 24 c1 -19 -2 -32 -5 -28 -12 12 -15 81 -3 69 3 -3 7
-22 8 -41z m213 24 c3 -10 2 -11 -4 -4 -4 6 -15 14 -23 17 -11 5 -9 6 4 4 11
-1 21 -9 23 -17z m58 0 c12 -39 -20 -82 -39 -51 -3 5 2 8 11 7 24 -2 29 35 7
51 -15 11 -16 13 -2 13 9 0 20 -9 23 -20z m43 -22 c-1 -37 -2 -39 -5 -10 -2
17 -10 32 -16 32 -7 0 -6 4 3 10 8 5 16 10 18 10 1 0 1 -19 0 -42z m46 27
c-17 -13 -17 -14 -2 -15 9 0 20 -4 23 -10 4 -6 -1 -7 -10 -3 -10 3 -21 0 -26
-8 -7 -11 -9 -9 -9 7 0 21 17 44 34 44 5 0 1 -7 -10 -15z m176 5 c0 -5 -7 -7
-15 -4 -8 4 -15 8 -15 10 0 2 7 4 15 4 8 0 15 -4 15 -10z m54 2 c2 -4 -4 -8
-14 -8 -10 0 -16 4 -14 8 3 4 9 8 14 8 5 0 11 -4 14 -8z m53 2 c-3 -3 -12 -4
-19 -1 -8 3 -5 6 6 6 11 1 17 -2 13 -5z m68 -14 c12 -39 -20 -82 -39 -51 -3 5
2 8 11 7 24 -2 29 35 7 51 -15 11 -16 13 -2 13 9 0 20 -9 23 -20z m-1278 -6
c-3 -3 -12 -4 -19 -1 -8 3 -5 6 6 6 11 1 17 -2 13 -5z m40 0 c-3 -3 -12 -4
-19 -1 -8 3 -5 6 6 6 11 1 17 -2 13 -5z m50 0 c-3 -3 -12 -4 -19 -1 -8 3 -5 6
6 6 11 1 17 -2 13 -5z m50 -11 c2 -6 -6 -13 -19 -15 l-23 -5 25 -11 c24 -10
24 -11 3 -11 -13 -1 -23 1 -23 3 0 2 -3 11 -6 20 -5 12 0 16 17 16 20 0 21 2
9 11 -12 9 -12 10 -1 7 8 -3 16 -9 18 -15z m120 -30 c-3 -10 -5 -2 -5 17 0 19
2 27 5 18 2 -10 2 -26 0 -35z m38 37 c3 -6 -1 -7 -9 -4 -18 7 -21 14 -7 14 6
0 13 -4 16 -10z m132 -7 c2 -6 -6 -13 -19 -15 l-23 -5 25 -11 c24 -10 24 -11
3 -11 -13 -1 -23 1 -23 3 0 2 -3 11 -6 20 -5 12 0 16 17 16 20 0 21 2 9 11
-12 9 -12 10 -1 7 8 -3 16 -9 18 -15z m20 -30 c-3 -10 -5 -2 -5 17 0 19 2 27
5 18 2 -10 2 -26 0 -35z m60 41 c-3 -3 -12 -4 -19 -1 -8 3 -5 6 6 6 11 1 17
-2 13 -5z m183 -19 c0 -8 -4 -15 -9 -15 -13 0 -22 16 -14 24 11 11 23 6 23 -9z
m396 -4 c-17 -19 -17 -20 6 -24 21 -4 20 -4 -4 -6 -16 0 -28 2 -28 6 0 8 31
43 38 43 3 0 -3 -9 -12 -19z m110 0 c-17 -19 -17 -20 6 -24 21 -4 20 -4 -4 -6
-16 0 -28 2 -28 6 0 8 31 43 38 43 3 0 -3 -9 -12 -19z m-1153 2 c-7 -2 -19 -2
-25 0 -7 3 -2 5 12 5 14 0 19 -2 13 -5z m462 -11 c-3 -3 -11 0 -18 7 -9 10 -8
11 6 5 10 -3 15 -9 12 -12z m-147 -17 c-3 -3 -9 2 -12 12 -6 14 -5 15 5 6 7
-7 10 -15 7 -18z m659 19 c-3 -3 -12 -4 -19 -1 -8 3 -5 6 6 6 11 1 17 -2 13
-5z m-973 -16 c-2 -4 -18 -6 -35 -6 -17 1 -26 4 -21 7 14 8 61 8 56 -1z m562
-4 c-3 -9 -6 -18 -6 -20 0 -2 -5 -4 -11 -4 -8 0 -9 4 0 13 6 8 8 17 4 20 -3 4
-1 7 6 7 8 0 11 -6 7 -16z m544 2 c-7 -7 -13 -7 -20 0 -6 6 -3 10 10 10 13 0
16 -4 10 -10z m-643 -2 c-3 -3 -12 -4 -19 -1 -8 3 -5 6 6 6 11 1 17 -2 13 -5z
m266 -1 c-7 -2 -21 -2 -30 0 -10 3 -4 5 12 5 17 0 24 -2 18 -5z m164 1 c-3 -3
-12 -4 -19 -1 -8 3 -5 6 6 6 11 1 17 -2 13 -5z m-887 -291 c0 -29 3 -34 12
-25 7 7 19 12 27 12 11 0 11 -4 -3 -19 -17 -18 -17 -21 -1 -45 14 -21 15 -26
3 -26 -8 0 -19 5 -26 12 -9 9 -12 9 -12 0 0 -7 -7 -12 -15 -12 -12 0 -15 14
-15 70 0 56 3 70 15 70 11 0 15 -11 15 -37z m90 16 c0 -5 -7 -9 -15 -9 -15 0
-20 12 -9 23 8 8 24 -1 24 -14z m50 -49 c0 -56 -3 -70 -15 -70 -12 0 -15 14
-15 70 0 56 3 70 15 70 12 0 15 -14 15 -70z m50 0 c0 -56 -3 -70 -15 -70 -12
0 -15 14 -15 70 0 56 3 70 15 70 12 0 15 -14 15 -70z m-240 45 c0 -11 -7 -14
-25 -9 -34 8 -34 -19 1 -34 20 -10 25 -18 22 -40 -3 -23 -8 -27 -40 -30 -28
-2 -38 1 -38 11 0 10 8 13 25 9 17 -3 25 0 25 10 0 8 -11 21 -25 28 -27 14
-35 54 -12 63 28 12 67 7 67 -8z m140 -70 c0 -33 -4 -45 -15 -45 -11 0 -15 12
-15 45 0 33 4 45 15 45 11 0 15 -12 15 -45z m170 35 c0 -5 -8 -10 -17 -10 -15
0 -14 -4 6 -19 32 -24 22 -51 -19 -51 -16 0 -30 5 -30 10 0 6 10 10 23 10 l22
0 -24 19 c-30 23 -22 51 14 51 14 0 25 -4 25 -10z m-355 -367 c-6 -27 -6 -27
9 -8 13 17 18 18 35 8 12 -7 26 -13 33 -12 7 0 4 4 -7 9 -15 6 -11 8 20 9 22
0 49 2 59 3 14 2 19 -4 20 -24 2 -27 1 -27 -56 -27 -32 1 -58 5 -58 10 0 5 -8
9 -17 9 -15 0 -16 -2 -3 -10 12 -8 9 -10 -12 -10 -15 0 -31 8 -37 18 -10 16
-10 16 -11 0 0 -10 -4 -18 -10 -18 -5 0 -10 16 -10 35 0 31 3 35 26 35 24 0
25 -3 19 -27z m267 5 l12 -23 7 25 7 25 1 -25 c1 -19 4 -21 10 -11 9 15 41 9
41 -8 0 -5 -8 -12 -17 -14 -13 -3 -11 -5 6 -6 19 -1 22 3 18 20 -3 13 -1 19 6
16 7 -2 19 -1 28 4 8 4 22 3 30 -2 10 -6 10 -9 2 -9 -7 0 -13 -7 -13 -15 0 -8
9 -15 20 -15 13 0 20 7 20 18 0 12 9 18 28 20 21 1 23 0 12 -8 -10 -6 -11 -10
-2 -10 6 0 12 -7 12 -15 0 -8 -9 -15 -20 -15 -11 0 -20 -4 -20 -10 0 -5 -7
-10 -16 -10 -8 0 -12 5 -9 10 3 6 -3 10 -14 10 -15 0 -21 6 -21 21 0 11 -4 18
-10 14 -5 -3 -6 -12 -3 -21 5 -13 -4 -15 -48 -13 -35 2 -58 8 -66 18 -11 14
-12 14 -13 -1 0 -34 -20 -18 -20 17 0 40 14 45 32 13z m324 5 c13 -17 13 -17
14 0 0 20 20 24 20 3 0 -9 7 -12 21 -9 12 4 25 0 30 -8 6 -10 9 -10 9 -1 0 6
6 12 14 12 8 0 17 6 19 13 4 8 6 6 6 -4 1 -12 8 -15 26 -11 29 5 36 -24 8 -31
-10 -3 -3 -5 15 -6 26 -1 32 3 32 19 0 15 7 20 28 20 19 0 23 -3 13 -9 -9 -6
-10 -11 -2 -15 18 -11 13 -26 -9 -26 -11 0 -20 -4 -20 -10 0 -5 -7 -10 -16
-10 -8 0 -12 5 -9 10 6 10 3 11 -118 13 -54 2 -72 6 -82 20 -13 18 -14 17 -18
-5 -3 -15 -5 -10 -6 15 -1 41 5 46 25 20z m367 10 c-7 -2 -14 -19 -14 -36 l-2
-32 -4 30 c-3 16 -10 33 -16 37 -7 4 2 7 18 7 17 0 24 -3 18 -6z m91 -9 c3 -8
11 -12 17 -8 6 3 15 0 20 -7 7 -11 9 -11 9 -1 0 9 17 12 57 11 36 -2 58 2 61
9 8 25 22 10 22 -24 0 -34 -1 -35 -32 -32 -22 2 -35 10 -40 23 -6 19 -6 19
-13 -2 -9 -27 -35 -31 -35 -5 0 14 -2 15 -10 2 -5 -8 -25 -15 -44 -16 -35 -2
-36 -1 -36 32 0 35 13 46 24 18z m296 6 c-9 -6 -7 -13 9 -29 20 -20 41 -28 41
-15 0 4 -7 12 -17 19 -19 14 -10 35 15 35 14 0 14 -2 3 -9 -12 -8 -12 -12 2
-26 27 -26 12 -34 -60 -32 -49 2 -68 6 -76 19 -17 26 8 47 55 46 23 0 35 -4
28 -8z m172 -1 c3 -9 65 -15 93 -9 6 1 25 2 43 1 30 -1 32 -3 32 -36 0 -30 -3
-35 -22 -35 -19 0 -20 2 -8 10 12 8 9 10 -12 10 -21 0 -28 5 -28 20 0 13 -6
20 -17 19 -11 0 -13 -3 -5 -6 18 -7 14 -33 -5 -33 -15 0 -16 2 -3 10 13 8 12
10 -2 10 -10 0 -18 -4 -18 -10 0 -14 -26 -13 -50 3 -17 10 -22 9 -30 -3 -7
-11 -10 -5 -10 23 0 30 4 37 19 37 11 0 21 -5 23 -11z m285 4 c-14 -4 -16 -8
-6 -19 10 -12 14 -12 26 5 10 14 24 20 48 19 31 -1 35 -4 35 -30 0 -20 5 -28
18 -29 9 0 4 -5 -13 -10 -16 -5 -39 -6 -50 -2 -11 4 -44 6 -73 4 -46 -2 -53 0
-61 21 l-10 23 0 -22 c-1 -31 -21 -29 -21 2 0 22 4 25 34 25 36 0 58 -25 28
-33 -9 -3 -2 -5 17 -6 32 -1 33 0 18 17 -24 26 -21 42 6 41 17 -1 18 -2 4 -6z
m239 -3 c17 -17 94 -17 104 0 10 17 11 16 29 -25 9 -19 15 -25 19 -16 2 7 -2
17 -9 22 -10 6 -4 9 19 9 19 0 32 -5 32 -12 0 -10 3 -9 9 1 15 24 28 7 14 -19
-7 -14 -13 -19 -13 -12 0 6 -10 12 -22 11 -22 0 -22 -1 -3 -9 13 -5 -15 -8
-72 -7 -58 0 -93 4 -93 11 0 6 -5 5 -12 -2 -7 -7 -20 -12 -30 -12 -14 0 -18 8
-18 35 0 27 4 35 18 35 10 0 23 -5 28 -10z m-1026 -37 c0 -19 -5 -23 -30 -23
-32 0 -40 17 -13 27 15 6 15 7 -3 14 -14 6 -11 8 14 6 26 -1 32 -5 32 -24z"/>
<path d="M283 5783 c-23 -8 -14 -33 12 -33 16 0 25 -6 25 -16 0 -10 6 -13 18
-10 21 7 58 -27 47 -43 -5 -10 8 -15 19 -8 3 1 16 -9 30 -22 22 -21 29 -23 48
-12 13 6 16 10 7 7 -10 -3 -43 21 -88 64 -70 66 -94 81 -118 73z"/>
<path d="M452 5693 c12 -20 24 -31 26 -24 6 18 -19 61 -34 61 -9 0 -7 -11 8
-37z"/>
<path d="M240 5671 c0 -5 14 -11 31 -15 37 -7 62 4 33 15 -27 11 -64 11 -64 0z"/>
<path d="M433 5576 c4 -10 7 -22 7 -27 0 -5 4 -9 9 -9 12 0 2 38 -12 47 -7 4
-8 0 -4 -11z"/>
<path d="M385 5544 c-9 -14 -15 -27 -13 -30 2 -2 12 10 22 26 21 37 15 40 -9
4z"/>
<path d="M380 5078 c1 -20 2 -21 13 -7 7 9 19 18 27 22 9 3 4 6 -12 6 -23 1
-28 -3 -28 -21z"/>
<path d="M470 5080 c0 -11 7 -20 15 -20 8 0 15 9 15 20 0 11 -7 20 -15 20 -8
0 -15 -9 -15 -20z"/>
<path d="M410 5070 c0 -5 5 -10 10 -10 6 0 10 5 10 10 0 6 -4 10 -10 10 -5 0
-10 -4 -10 -10z"/>
<path d="M600 5080 c0 -11 5 -20 10 -20 6 0 10 9 10 20 0 11 -4 20 -10 20 -5
0 -10 -9 -10 -20z"/>
<path d="M765 5070 c3 -5 13 -10 21 -10 8 0 14 5 14 10 0 6 -9 10 -21 10 -11
0 -17 -4 -14 -10z"/>
<path d="M1190 5080 c0 -11 5 -20 10 -20 6 0 10 9 10 20 0 11 -4 20 -10 20 -5
0 -10 -9 -10 -20z"/>
<path d="M2275 5087 c-4 -10 -5 -21 -1 -24 10 -10 18 4 13 24 -4 17 -4 17 -12
0z"/>
<path d="M2440 5080 c0 -11 5 -20 10 -20 6 0 10 9 10 20 0 11 -4 20 -10 20 -5
0 -10 -9 -10 -20z"/>
<path d="M2905 5090 c-8 -13 4 -32 16 -25 12 8 12 35 0 35 -6 0 -13 -4 -16
-10z"/>
<path d="M3205 5090 c-8 -13 4 -32 16 -25 12 8 12 35 0 35 -6 0 -13 -4 -16
-10z"/>
<path d="M3652 5080 c0 -14 2 -19 5 -12 2 6 2 18 0 25 -3 6 -5 1 -5 -13z"/>
<path d="M3770 5105 c0 -8 5 -15 10 -15 6 0 10 7 10 15 0 8 -4 15 -10 15 -5 0
-10 -7 -10 -15z"/>
<path d="M3940 5080 c0 -11 7 -20 15 -20 8 0 15 9 15 20 0 11 -7 20 -15 20 -8
0 -15 -9 -15 -20z"/>
<path d="M3830 5070 c0 -5 6 -10 14 -10 8 0 18 5 21 10 3 6 -3 10 -14 10 -12
0 -21 -4 -21 -10z"/>
<path d="M3880 5070 c0 -5 5 -10 10 -10 6 0 10 5 10 10 0 6 -4 10 -10 10 -5 0
-10 -4 -10 -10z"/>
<path d="M4150 5080 c0 -13 5 -20 13 -17 6 2 12 10 12 17 0 7 -6 15 -12 18 -8
2 -13 -5 -13 -18z"/>
<path d="M4215 5090 c-4 -6 -3 -16 3 -22 6 -6 12 -6 17 2 4 6 3 16 -3 22 -6 6
-12 6 -17 -2z"/>
<path d="M4590 5080 c0 -11 5 -20 10 -20 6 0 10 9 10 20 0 11 -4 20 -10 20 -5
0 -10 -9 -10 -20z"/>
<path d="M4470 5070 c0 -5 5 -10 10 -10 6 0 10 5 10 10 0 6 -4 10 -10 10 -5 0
-10 -4 -10 -10z"/>
<path d="M4680 5080 c0 -11 7 -20 15 -20 8 0 15 9 15 20 0 11 -7 20 -15 20 -8
0 -15 -9 -15 -20z"/>
<path d="M4750 5080 c0 -13 5 -20 13 -17 6 2 12 10 12 17 0 7 -6 15 -12 18 -8
2 -13 -5 -13 -18z"/>
<path d="M4875 5090 c-4 -6 -3 -16 3 -22 6 -6 12 -6 17 2 4 6 3 16 -3 22 -6 6
-12 6 -17 -2z"/>
<path d="M5090 5080 c0 -11 5 -20 10 -20 6 0 10 9 10 20 0 11 -4 20 -10 20 -5
0 -10 -9 -10 -20z"/>
<path d="M845 5090 c-7 -12 2 -30 16 -30 5 0 9 9 9 20 0 21 -15 27 -25 10z"/>
<path d="M910 5080 c0 -11 5 -20 10 -20 6 0 10 9 10 20 0 11 -4 20 -10 20 -5
0 -10 -9 -10 -20z"/>
<path d="M1575 5070 c-3 -5 -1 -10 4 -10 6 0 11 5 11 10 0 6 -2 10 -4 10 -3 0
-8 -4 -11 -10z"/>
<path d="M1774 5093 c5 -9 0 -13 -13 -13 -12 0 -21 -4 -21 -10 0 -13 37 -13
46 1 3 6 1 16 -6 22 -10 9 -11 9 -6 0z"/>
<path d="M1814 5089 c-3 -6 -1 -16 5 -22 8 -8 11 -5 11 11 0 24 -5 28 -16 11z"/>
<path d="M1845 5090 c-8 -13 4 -32 16 -25 12 8 12 35 0 35 -6 0 -13 -4 -16
-10z"/>
<path d="M2135 5090 c-8 -13 3 -30 18 -30 7 0 13 9 13 20 0 21 -20 27 -31 10z"/>
<path d="M1905 5070 c3 -5 13 -10 21 -10 8 0 14 5 14 10 0 6 -9 10 -21 10 -11
0 -17 -4 -14 -10z"/>
<path d="M2585 5090 c-4 -6 -3 -16 3 -22 6 -6 12 -6 17 2 4 6 3 16 -3 22 -6 6
-12 6 -17 -2z"/>
<path d="M2675 5090 c3 -5 10 -10 16 -10 5 0 9 5 9 10 0 6 -7 10 -16 10 -8 0
-12 -4 -9 -10z"/>
<path d="M2770 5069 c0 -5 5 -7 10 -4 6 3 10 8 10 11 0 2 -4 4 -10 4 -5 0 -10
-5 -10 -11z"/>
<path d="M3355 5087 c-4 -10 -5 -21 -1 -24 10 -10 18 4 13 24 -4 17 -4 17 -12
0z"/>
<path d="M3415 5087 c-4 -10 -5 -21 -1 -24 10 -10 18 4 13 24 -4 17 -4 17 -12
0z"/>
<path d="M3290 5070 c0 -5 5 -10 10 -10 6 0 10 5 10 10 0 6 -4 10 -10 10 -5 0
-10 -4 -10 -10z"/>
<path d="M3450 5070 c0 -5 7 -10 16 -10 8 0 12 5 9 10 -3 6 -10 10 -16 10 -5
0 -9 -4 -9 -10z"/>
<path d="M5035 5070 c-3 -5 -1 -10 4 -10 6 0 11 5 11 10 0 6 -2 10 -4 10 -3 0
-8 -4 -11 -10z"/>
<path d="M5285 5090 c3 -5 10 -10 16 -10 5 0 9 5 9 10 0 6 -7 10 -16 10 -8 0
-12 -4 -9 -10z"/>
<path d="M5495 5090 c-8 -13 3 -30 18 -30 7 0 13 9 13 20 0 21 -20 27 -31 10z"/>
<path d="M5545 5070 c3 -5 20 -10 36 -10 18 0 28 4 24 10 -3 6 -20 10 -36 10
-18 0 -28 -4 -24 -10z"/>
<path d="M333 4604 c-8 -21 13 -42 28 -27 13 13 5 43 -11 43 -6 0 -13 -7 -17
-16z"/>
<path d="M448 4613 c7 -3 16 -2 19 1 4 3 -2 6 -13 5 -11 0 -14 -3 -6 -6z"/>
<path d="M648 4613 c7 -3 16 -2 19 1 4 3 -2 6 -13 5 -11 0 -14 -3 -6 -6z"/>
<path d="M938 4613 c7 -3 16 -2 19 1 4 3 -2 6 -13 5 -11 0 -14 -3 -6 -6z"/>
<path d="M560 4240 c0 -19 3 -21 12 -12 9 9 9 15 0 24 -9 9 -12 7 -12 -12z"/>
<path d="M834 4249 c-3 -6 -1 -16 5 -22 8 -8 11 -5 11 11 0 24 -5 28 -16 11z"/>
<path d="M720 4230 c0 -5 7 -10 15 -10 8 0 15 5 15 10 0 6 -7 10 -15 10 -8 0
-15 -4 -15 -10z"/>
<path d="M1044 4249 c-3 -6 -1 -16 5 -22 8 -8 11 -5 11 11 0 24 -5 28 -16 11z"/>
<path d="M930 4235 c0 -8 7 -15 15 -15 8 0 15 7 15 15 0 8 -7 15 -15 15 -8 0
-15 -7 -15 -15z"/>
<path d="M340 4240 c0 -19 3 -21 12 -12 9 9 9 15 0 24 -9 9 -12 7 -12 -12z"/>
<path d="M587 4103 c-13 -12 -7 -33 8 -33 8 0 15 9 15 20 0 20 -11 26 -23 13z"/>
<path d="M235 3830 c-4 -6 -3 -16 3 -22 6 -6 12 -6 17 2 4 6 3 16 -3 22 -6 6
-12 6 -17 -2z"/>
<path d="M602 3820 c0 -14 2 -19 5 -12 2 6 2 18 0 25 -3 6 -5 1 -5 -13z"/>
<path d="M655 3830 c-4 -6 -3 -16 3 -22 6 -6 12 -6 17 2 4 6 3 16 -3 22 -6 6
-12 6 -17 -2z"/>
<path d="M540 3809 c0 -5 5 -7 10 -4 6 3 10 8 10 11 0 2 -4 4 -10 4 -5 0 -10
-5 -10 -11z"/>
<path d="M1020 3820 c0 -13 5 -20 13 -17 6 2 12 10 12 17 0 7 -6 15 -12 18 -8
2 -13 -5 -13 -18z"/>
<path d="M1080 3820 c0 -11 5 -20 10 -20 6 0 10 9 10 20 0 11 -4 20 -10 20 -5
0 -10 -9 -10 -20z"/>
<path d="M1145 3810 c3 -5 13 -10 21 -10 8 0 14 5 14 10 0 6 -9 10 -21 10 -11
0 -17 -4 -14 -10z"/>
<path d="M1360 3820 c0 -11 5 -20 10 -20 6 0 10 9 10 20 0 11 -4 20 -10 20 -5
0 -10 -9 -10 -20z"/>
<path d="M1420 3820 c0 -13 5 -20 13 -17 6 2 12 10 12 17 0 7 -6 15 -12 18 -8
2 -13 -5 -13 -18z"/>
<path d="M2170 3820 c0 -11 4 -20 8 -20 4 0 8 9 8 20 0 11 -4 20 -8 20 -4 0
-8 -9 -8 -20z"/>
<path d="M2260 3820 c0 -11 5 -20 10 -20 6 0 10 9 10 20 0 11 -4 20 -10 20 -5
0 -10 -9 -10 -20z"/>
<path d="M2205 3810 c3 -5 13 -10 21 -10 8 0 14 5 14 10 0 6 -9 10 -21 10 -11
0 -17 -4 -14 -10z"/>
<path d="M2350 3820 c0 -11 5 -20 10 -20 6 0 10 9 10 20 0 11 -4 20 -10 20 -5
0 -10 -9 -10 -20z"/>
<path d="M2410 3810 c0 -5 14 -10 31 -10 17 0 28 4 24 10 -3 6 -17 10 -31 10
-13 0 -24 -4 -24 -10z"/>
<path d="M2780 3836 c0 -2 7 -9 15 -16 12 -10 15 -10 15 4 0 9 -7 16 -15 16
-8 0 -15 -2 -15 -4z"/>
<path d="M3170 3820 c0 -11 5 -20 10 -20 6 0 10 9 10 20 0 11 -4 20 -10 20 -5
0 -10 -9 -10 -20z"/>
<path d="M3385 3827 c-4 -10 -5 -21 -1 -24 10 -10 18 4 13 24 -4 17 -4 17 -12
0z"/>
<path d="M3475 3830 c-7 -12 2 -30 16 -30 5 0 9 9 9 20 0 21 -15 27 -25 10z"/>
<path d="M3645 3830 c-4 -6 -3 -16 3 -22 6 -6 12 -6 17 2 4 6 3 16 -3 22 -6 6
-12 6 -17 -2z"/>
<path d="M3735 3830 c-8 -13 4 -32 16 -25 12 8 12 35 0 35 -6 0 -13 -4 -16
-10z"/>
<path d="M3795 3810 c3 -5 13 -10 21 -10 8 0 14 5 14 10 0 6 -9 10 -21 10 -11
0 -17 -4 -14 -10z"/>
<path d="M440 3820 c0 -11 5 -20 10 -20 6 0 10 9 10 20 0 11 -4 20 -10 20 -5
0 -10 -9 -10 -20z"/>
<path d="M840 3820 c0 -13 5 -20 13 -17 6 2 12 10 12 17 0 7 -6 15 -12 18 -8
2 -13 -5 -13 -18z"/>
<path d="M1595 3830 c-4 -6 -3 -16 3 -22 6 -6 12 -6 17 2 4 6 3 16 -3 22 -6 6
-12 6 -17 -2z"/>
<path d="M1824 3826 c-8 -22 3 -33 18 -18 9 9 9 15 0 24 -9 9 -13 7 -18 -6z"/>
<path d="M2055 3810 c3 -5 13 -10 21 -10 8 0 14 5 14 10 0 6 -9 10 -21 10 -11
0 -17 -4 -14 -10z"/>
<path d="M2535 3830 c-4 -6 -3 -16 3 -22 6 -6 12 -6 17 2 4 6 3 16 -3 22 -6 6
-12 6 -17 -2z"/>
<path d="M3920 3820 c0 -11 5 -20 10 -20 6 0 10 9 10 20 0 11 -4 20 -10 20 -5
0 -10 -9 -10 -20z"/>
<path d="M4090 3830 c0 -5 7 -7 15 -4 8 4 15 8 15 10 0 2 -7 4 -15 4 -8 0 -15
-4 -15 -10z"/>
<path d="M4220 3820 c0 -11 7 -20 15 -20 8 0 15 9 15 20 0 11 -7 20 -15 20 -8
0 -15 -9 -15 -20z"/>
<path d="M224 3559 c-3 -6 -1 -16 5 -22 8 -8 11 -5 11 11 0 24 -5 28 -16 11z"/>
<path d="M350 3550 c0 -11 4 -20 8 -20 4 0 8 9 8 20 0 11 -4 20 -8 20 -4 0 -8
-9 -8 -20z"/>
<path d="M504 3559 c-3 -6 -1 -16 5 -22 8 -8 11 -5 11 11 0 24 -5 28 -16 11z"/>
<path d="M385 3540 c3 -5 13 -10 21 -10 8 0 14 5 14 10 0 6 -9 10 -21 10 -11
0 -17 -4 -14 -10z"/>
<path d="M710 3550 c0 -11 5 -20 10 -20 6 0 10 9 10 20 0 11 -4 20 -10 20 -5
0 -10 -9 -10 -20z"/>
<path d="M920 3540 c0 -5 7 -10 15 -10 8 0 15 5 15 10 0 6 -7 10 -15 10 -8 0
-15 -4 -15 -10z"/>
<path d="M130 3160 c0 -5 5 -10 10 -10 6 0 10 5 10 10 0 6 -4 10 -10 10 -5 0
-10 -4 -10 -10z"/>
<path d="M130 3125 c0 -8 5 -15 10 -15 6 0 10 7 10 15 0 8 -4 15 -10 15 -5 0
-10 -7 -10 -15z"/>
<path d="M365 3140 c-4 -6 -3 -16 3 -22 6 -6 12 -6 17 2 4 6 3 16 -3 22 -6 6
-12 6 -17 -2z"/>
<path d="M460 3120 c0 -5 7 -10 16 -10 8 0 12 5 9 10 -3 6 -10 10 -16 10 -5 0
-9 -4 -9 -10z"/>
<path d="M590 3130 c0 -11 5 -20 10 -20 6 0 10 9 10 20 0 11 -4 20 -10 20 -5
0 -10 -9 -10 -20z"/>
<path d="M645 3140 c-7 -12 2 -30 16 -30 5 0 9 9 9 20 0 21 -15 27 -25 10z"/>
<path d="M690 3140 c0 -5 7 -7 15 -4 8 4 15 8 15 10 0 2 -7 4 -15 4 -8 0 -15
-4 -15 -10z"/>
<path d="M800 3130 c0 -11 5 -20 10 -20 6 0 10 9 10 20 0 11 -4 20 -10 20 -5
0 -10 -9 -10 -20z"/>
<path d="M840 3120 c0 -5 7 -10 16 -10 8 0 12 5 9 10 -3 6 -10 10 -16 10 -5 0
-9 -4 -9 -10z"/>
<path d="M955 3140 c-7 -12 2 -30 16 -30 5 0 9 9 9 20 0 21 -15 27 -25 10z"/>
<path d="M1025 3137 c-4 -10 -5 -21 -1 -24 10 -10 18 4 13 24 -4 17 -4 17 -12
0z"/>
<path d="M1080 3130 c0 -11 5 -20 10 -20 6 0 10 9 10 20 0 11 -4 20 -10 20 -5
0 -10 -9 -10 -20z"/>
<path d="M1272 3138 c-16 -16 -15 -28 1 -28 7 0 13 9 13 20 0 11 -1 20 -1 20
-1 0 -6 -5 -13 -12z"/>
<path d="M1360 3130 c0 -11 5 -20 10 -20 6 0 10 9 10 20 0 11 -4 20 -10 20 -5
0 -10 -9 -10 -20z"/>
<path d="M1305 3120 c3 -5 13 -10 21 -10 8 0 14 5 14 10 0 6 -9 10 -21 10 -11
0 -17 -4 -14 -10z"/>
<path d="M1455 3137 c-4 -10 -5 -21 -1 -24 10 -10 18 4 13 24 -4 17 -4 17 -12
0z"/>
<path d="M1630 3130 c0 -11 5 -20 10 -20 6 0 10 9 10 20 0 11 -4 20 -10 20 -5
0 -10 -9 -10 -20z"/>
<path d="M2140 3130 c0 -11 5 -20 10 -20 6 0 10 9 10 20 0 11 -4 20 -10 20 -5
0 -10 -9 -10 -20z"/>
<path d="M2020 3120 c0 -5 5 -10 10 -10 6 0 10 5 10 10 0 6 -4 10 -10 10 -5 0
-10 -4 -10 -10z"/>
<path d="M2345 3140 c-8 -13 4 -32 16 -25 12 8 12 35 0 35 -6 0 -13 -4 -16
-10z"/>
<path d="M2440 3130 c0 -13 5 -20 13 -17 6 2 12 10 12 17 0 7 -6 15 -12 18 -8
2 -13 -5 -13 -18z"/>
<path d="M2610 3130 c0 -11 5 -20 10 -20 6 0 10 9 10 20 0 11 -4 20 -10 20 -5
0 -10 -9 -10 -20z"/>
<path d="M2555 3120 c3 -5 13 -10 21 -10 8 0 14 5 14 10 0 6 -9 10 -21 10 -11
0 -17 -4 -14 -10z"/>
<path d="M3025 3137 c-4 -10 -5 -21 -1 -24 10 -10 18 4 13 24 -4 17 -4 17 -12
0z"/>
<path d="M1850 3128 c0 -12 1 -19 3 -17 1 2 9 12 16 22 12 14 11 17 -3 17 -10
0 -16 -8 -16 -22z"/>
<path d="M2755 3140 c-7 -12 2 -30 16 -30 5 0 9 9 9 20 0 21 -15 27 -25 10z"/>
<path d="M2800 3130 c0 -11 7 -20 15 -20 8 0 15 9 15 20 0 11 -7 20 -15 20 -8
0 -15 -9 -15 -20z"/>
<path d="M2918 3130 c12 -11 27 -20 33 -20 7 0 3 9 -9 20 -12 11 -27 20 -33
20 -7 0 -3 -9 9 -20z"/>
<path d="M2850 3120 c0 -5 14 -10 31 -10 17 0 28 4 24 10 -3 6 -17 10 -31 10
-13 0 -24 -4 -24 -10z"/>
<path d="M150 2784 c0 -31 23 -28 28 4 2 15 -2 22 -12 22 -11 0 -16 -9 -16
-26z"/>
<path d="M314 2755 c-7 -18 3 -35 21 -35 15 0 24 19 18 38 -6 17 -32 15 -39
-3z"/>
<path d="M478 2763 c7 -3 16 -2 19 1 4 3 -2 6 -13 5 -11 0 -14 -3 -6 -6z"/>
<path d="M130 2415 c0 -8 5 -15 10 -15 6 0 10 7 10 15 0 8 -4 15 -10 15 -5 0
-10 -7 -10 -15z"/>
<path d="M195 2380 c3 -5 13 -10 21 -10 8 0 14 5 14 10 0 6 -9 10 -21 10 -11
0 -17 -4 -14 -10z"/>
<path d="M342 2390 c0 -14 2 -19 5 -12 2 6 2 18 0 25 -3 6 -5 1 -5 -13z"/>
<path d="M644 2399 c-3 -6 -1 -16 5 -22 8 -8 11 -5 11 11 0 24 -5 28 -16 11z"/>
<path d="M814 2399 c-3 -6 -1 -16 5 -22 8 -8 11 -5 11 11 0 24 -5 28 -16 11z"/>
<path d="M910 2400 c0 -21 4 -30 13 -27 6 2 12 14 12 27 0 13 -6 25 -12 28 -9
2 -13 -7 -13 -28z"/>
<path d="M980 2390 c0 -11 5 -20 10 -20 6 0 10 9 10 20 0 11 -4 20 -10 20 -5
0 -10 -9 -10 -20z"/>
<path d="M1050 2390 c0 -15 7 -20 27 -20 l27 0 -22 20 c-12 11 -24 20 -27 20
-3 0 -5 -9 -5 -20z"/>
<path d="M205 1970 c-4 -6 -3 -16 3 -22 6 -6 12 -6 17 2 4 6 3 16 -3 22 -6 6
-12 6 -17 -2z"/>
<path d="M265 1970 c-4 -6 -3 -16 3 -22 6 -6 12 -6 17 2 4 6 3 16 -3 22 -6 6
-12 6 -17 -2z"/>
<path d="M325 1970 c-4 -6 -3 -16 3 -22 6 -6 12 -6 17 2 4 6 3 16 -3 22 -6 6
-12 6 -17 -2z"/>
<path d="M510 1960 c0 -11 5 -20 10 -20 6 0 10 9 10 20 0 11 -4 20 -10 20 -5
0 -10 -9 -10 -20z"/>
<path d="M570 1960 c0 -13 5 -20 13 -17 6 2 12 10 12 17 0 7 -6 15 -12 18 -8
2 -13 -5 -13 -18z"/>
<path d="M635 1970 c-10 -16 4 -30 32 -30 l27 0 -22 20 c-24 23 -28 24 -37 10z"/>
<path d="M824 1969 c-3 -6 -1 -16 5 -22 8 -8 11 -5 11 11 0 24 -5 28 -16 11z"/>
<path d="M995 1970 c-4 -6 -3 -16 3 -22 6 -6 12 -6 17 2 4 6 3 16 -3 22 -6 6
-12 6 -17 -2z"/>
<path d="M1402 1960 c0 -14 2 -19 5 -12 2 6 2 18 0 25 -3 6 -5 1 -5 -13z"/>
<path d="M1527 1993 c-10 -9 -8 -41 2 -47 18 -11 41 6 41 30 0 17 -6 24 -18
24 -10 0 -22 -3 -25 -7z"/>
<path d="M1590 1984 c0 -8 5 -12 10 -9 6 4 8 11 5 16 -9 14 -15 11 -15 -7z"/>
<path d="M1650 1970 c0 -32 11 -38 29 -16 14 16 4 46 -15 46 -9 0 -14 -11 -14
-30z"/>
<path d="M1616 1972 c-2 -4 -1 -14 5 -22 7 -12 9 -10 9 8 0 23 -5 28 -14 14z"/>
<path d="M1205 1970 c-4 -6 -3 -16 3 -22 6 -6 12 -6 17 2 4 6 3 16 -3 22 -6 6
-12 6 -17 -2z"/>
<path d="M240 1355 c0 -16 6 -25 15 -25 9 0 15 9 15 25 0 16 -6 25 -15 25 -9
0 -15 -9 -15 -25z"/>
<path d="M540 1340 c0 -5 5 -10 10 -10 6 0 10 5 10 10 0 6 -4 10 -10 10 -5 0
-10 -4 -10 -10z"/>
<path d="M744 1365 c-7 -18 3 -35 22 -35 8 0 14 10 14 25 0 27 -27 35 -36 10z"/>
<path d="M130 1030 c0 -5 5 -10 10 -10 6 0 10 5 10 10 0 6 -4 10 -10 10 -5 0
-10 -4 -10 -10z"/>
<path d="M255 1010 c-7 -12 2 -30 16 -30 5 0 9 9 9 20 0 21 -15 27 -25 10z"/>
<path d="M450 1000 c0 -19 3 -21 12 -12 9 9 9 15 0 24 -9 9 -12 7 -12 -12z"/>
<path d="M130 995 c0 -8 5 -15 10 -15 6 0 10 7 10 15 0 8 -4 15 -10 15 -5 0
-10 -7 -10 -15z"/>
<path d="M830 1000 c0 -19 3 -21 12 -12 9 9 9 15 0 24 -9 9 -12 7 -12 -12z"/>
<path d="M984 1009 c-3 -6 -1 -16 5 -22 8 -8 11 -5 11 11 0 24 -5 28 -16 11z"/>
<path d="M1330 1000 c0 -11 5 -20 10 -20 6 0 10 9 10 20 0 11 -4 20 -10 20 -5
0 -10 -9 -10 -20z"/>
<path d="M1520 1000 c0 -11 7 -20 15 -20 8 0 15 9 15 20 0 11 -7 20 -15 20 -8
0 -15 -9 -15 -20z"/>
<path d="M270 125 c0 -8 7 -15 15 -15 8 0 15 7 15 15 0 8 -7 15 -15 15 -8 0
-15 -7 -15 -15z"/>
<path d="M610 120 c0 -6 7 -10 15 -10 8 0 15 2 15 4 0 2 -7 6 -15 10 -8 3 -15
1 -15 -4z"/>
<path d="M800 124 c0 -8 5 -12 10 -9 6 4 8 11 5 16 -9 14 -15 11 -15 -7z"/>
<path d="M850 126 c0 -9 5 -16 10 -16 6 0 10 4 10 9 0 6 -4 13 -10 16 -5 3
-10 -1 -10 -9z"/>
<path d="M970 120 c0 -6 7 -10 15 -10 8 0 15 2 15 4 0 2 -7 6 -15 10 -8 3 -15
1 -15 -4z"/>
<path d="M1350 125 c0 -8 5 -15 10 -15 6 0 10 7 10 15 0 8 -4 15 -10 15 -5 0
-10 -7 -10 -15z"/>
<path d="M1434 145 c-9 -22 4 -35 37 -35 34 0 35 4 9 30 -24 24 -39 25 -46 5z"/>
<path d="M1640 145 c0 -8 5 -15 10 -15 6 0 10 7 10 15 0 8 -4 15 -10 15 -5 0
-10 -7 -10 -15z"/>
<path d="M1690 125 c0 -8 5 -15 10 -15 6 0 10 7 10 15 0 8 -4 15 -10 15 -5 0
-10 -7 -10 -15z"/>
<path d="M1780 125 c0 -8 2 -15 4 -15 2 0 6 7 10 15 3 8 1 15 -4 15 -6 0 -10
-7 -10 -15z"/>
<path d="M1810 126 c0 -9 5 -16 10 -16 6 0 10 4 10 9 0 6 -4 13 -10 16 -5 3
-10 -1 -10 -9z"/>
<path d="M1993 144 c-8 -22 15 -44 26 -25 10 16 4 41 -10 41 -5 0 -12 -7 -16
-16z"/>
<path d="M2160 135 c0 -17 5 -25 13 -22 6 2 12 12 12 22 0 10 -6 20 -12 23 -8
2 -13 -6 -13 -23z"/>
<path d="M2220 125 c0 -8 5 -15 10 -15 6 0 10 7 10 15 0 8 -4 15 -10 15 -5 0
-10 -7 -10 -15z"/>
<path d="M2280 125 c0 -8 5 -15 10 -15 6 0 10 7 10 15 0 8 -4 15 -10 15 -5 0
-10 -7 -10 -15z"/>
</g>
</svg>
