<?xml version="1.0" standalone="no"?>
<!DOCTYPE svg PUBLIC "-//W3C//DTD SVG 20010904//EN"
 "http://www.w3.org/TR/2001/REC-SVG-20010904/DTD/svg10.dtd">
<svg version="1.0" xmlns="http://www.w3.org/2000/svg"
 width="702.000000pt" height="575.000000pt" viewBox="0 0 702.000000 575.000000"
 preserveAspectRatio="xMidYMid meet">

<g transform="translate(0.000000,575.000000) scale(0.100000,-0.100000)"
fill="#000000" stroke="none">
<path d="M414 5445 c-5 -11 -11 -12 -24 -5 -10 6 -27 10 -37 9 -10 0 -4 -5 14
-10 17 -5 45 -22 61 -39 38 -37 51 -26 15 13 l-28 29 38 -18 c27 -13 40 -15
48 -7 13 13 -7 26 -54 37 -20 5 -29 2 -33 -9z"/>
<path d="M333 5403 c-23 -8 -14 -33 12 -33 16 0 25 -6 25 -16 0 -10 6 -13 18
-10 21 7 58 -27 47 -43 -5 -10 8 -15 19 -8 3 1 16 -9 30 -22 22 -21 29 -23 48
-12 13 6 16 10 7 7 -10 -3 -43 21 -88 64 -70 66 -94 81 -118 73z"/>
<path d="M1071 5387 c-21 -26 -18 -127 4 -127 10 0 15 10 15 34 0 19 6 37 13
40 10 5 10 7 0 12 -15 7 -17 34 -3 34 6 0 10 5 10 10 0 14 -26 12 -39 -3z"/>
<path d="M1197 5394 c-8 -8 1 -24 14 -24 5 0 9 7 9 15 0 15 -12 20 -23 9z"/>
<path d="M216 5368 c-9 -12 -16 -28 -16 -35 0 -7 -4 -13 -9 -13 -6 0 -8 -9 -6
-20 2 -11 0 -18 -5 -15 -14 9 -23 -81 -11 -112 10 -27 10 -26 9 14 -3 52 8 65
17 23 8 -38 27 -27 28 17 0 15 2 22 4 16 7 -19 29 -16 29 5 1 9 4 29 7 44 4
18 -1 35 -12 50 -10 13 -16 29 -14 36 7 19 -4 14 -21 -10z m20 -57 c-4 -5 0
-11 6 -14 9 -3 7 -9 -7 -20 -18 -14 -20 -14 -23 5 -2 11 2 25 10 29 17 11 20
11 14 0z"/>
<path d="M780 5325 c0 -72 17 -89 22 -22 l3 42 14 -42 c8 -24 19 -43 26 -43 7
0 18 19 26 43 l14 42 3 -42 c2 -29 8 -43 18 -43 11 0 14 15 14 66 0 61 -1 65
-22 62 -15 -2 -26 -15 -37 -48 l-15 -45 -15 48 c-10 33 -20 47 -33 47 -16 0
-18 -9 -18 -65z"/>
<path d="M1131 5363 c-5 -10 -6 -36 -2 -58 5 -31 11 -41 29 -43 12 -2 22 1 22
7 0 6 -4 11 -10 11 -14 0 -12 47 3 54 10 5 10 7 0 12 -7 3 -13 12 -13 20 0 20
-17 18 -29 -3z"/>
<path d="M565 5347 c-38 -22 -1 -90 50 -95 23 -2 25 1 20 21 -7 20 -44 88 -48
86 -1 -1 -11 -6 -22 -12z"/>
<path d="M502 5313 c12 -20 24 -31 26 -24 6 18 -19 61 -34 61 -9 0 -7 -11 8
-37z"/>
<path d="M940 5324 c0 -44 16 -62 55 -62 35 0 35 0 35 44 0 32 -4 44 -15 44
-10 0 -15 -11 -15 -35 0 -24 -5 -35 -15 -35 -10 0 -15 11 -15 35 0 24 -5 35
-15 35 -9 0 -15 -10 -15 -26z"/>
<path d="M1200 5305 c0 -25 5 -45 10 -45 6 0 10 20 10 45 0 25 -4 45 -10 45
-5 0 -10 -20 -10 -45z"/>
<path d="M290 5291 c0 -5 14 -11 31 -15 37 -7 62 4 33 15 -27 11 -64 11 -64 0z"/>
<path d="M298 5213 c-2 -16 3 -40 11 -54 13 -22 13 -33 0 -78 -17 -61 -31 -69
-40 -24 -3 18 -12 39 -19 48 -6 8 -9 19 -5 25 3 5 -1 10 -9 10 -8 0 -17 8 -19
18 -4 13 -5 12 -6 -5 0 -12 -7 -23 -13 -26 -19 -7 9 -54 55 -90 44 -36 56 -30
72 36 8 33 17 45 42 56 18 8 35 23 39 33 3 10 10 18 15 18 5 0 9 7 9 15 0 8
-6 12 -15 9 -8 -3 -28 4 -44 15 -42 30 -69 28 -73 -6z m50 -12 c3 -8 -1 -12
-9 -9 -7 2 -15 10 -17 17 -3 8 1 12 9 9 7 -2 15 -10 17 -17z"/>
<path d="M547 5228 c2 -5 13 -8 24 -8 22 0 49 -22 49 -40 0 -8 -6 -7 -22 1
-22 11 -22 10 -6 -6 24 -26 49 -12 46 25 -1 16 -7 30 -13 31 -58 4 -82 3 -78
-3z"/>
<path d="M483 5196 c4 -10 7 -22 7 -27 0 -5 4 -9 9 -9 12 0 2 38 -12 47 -7 4
-8 0 -4 -11z"/>
<path d="M435 5164 c-9 -14 -15 -27 -13 -30 2 -2 12 10 22 26 21 37 15 40 -9
4z"/>
<path d="M985 5050 c-3 -5 -1 -10 4 -10 6 0 11 5 11 10 0 6 -2 10 -4 10 -3 0
-8 -4 -11 -10z"/>
<path d="M1030 5056 c0 -2 7 -7 16 -10 8 -3 12 -2 9 4 -6 10 -25 14 -25 6z"/>
<path d="M1087 5053 c-2 -5 0 -21 4 -38 7 -29 7 -29 8 8 1 35 -3 46 -12 30z"/>
<path d="M1137 5053 c-3 -5 8 -8 23 -8 15 0 26 3 23 8 -2 4 -13 7 -23 7 -10 0
-21 -3 -23 -7z"/>
<path d="M1775 5050 c-3 -5 -1 -10 4 -10 6 0 11 5 11 10 0 6 -2 10 -4 10 -3 0
-8 -4 -11 -10z"/>
<path d="M1878 5053 c7 -3 16 -2 19 1 4 3 -2 6 -13 5 -11 0 -14 -3 -6 -6z"/>
<path d="M1928 5053 c7 -3 16 -2 19 1 4 3 -2 6 -13 5 -11 0 -14 -3 -6 -6z"/>
<path d="M1978 5053 c7 -3 16 -2 19 1 4 3 -2 6 -13 5 -11 0 -14 -3 -6 -6z"/>
<path d="M2077 5053 c-2 -5 0 -21 4 -38 7 -29 7 -29 8 8 1 35 -3 46 -12 30z"/>
<path d="M2130 5050 c12 -8 12 -11 -3 -28 -23 -25 -21 -32 6 -31 18 1 18 2 4
6 -17 4 -17 6 -2 23 17 19 13 40 -8 40 -7 0 -6 -4 3 -10z"/>
<path d="M2168 5053 c7 -3 16 -2 19 1 4 3 -2 6 -13 5 -11 0 -14 -3 -6 -6z"/>
<path d="M2269 5053 c-1 -5 -1 -16 0 -25 1 -9 -6 -18 -16 -20 -15 -3 -14 -5 5
-10 20 -5 22 -3 22 28 0 29 -8 48 -11 27z"/>
<path d="M2308 5053 c7 -3 16 -2 19 1 4 3 -2 6 -13 5 -11 0 -14 -3 -6 -6z"/>
<path d="M2358 5053 c7 -3 16 -2 19 1 4 3 -2 6 -13 5 -11 0 -14 -3 -6 -6z"/>
<path d="M2398 5053 c6 -2 18 -2 25 0 6 3 1 5 -13 5 -14 0 -19 -2 -12 -5z"/>
<path d="M770 5031 c0 -5 10 -8 23 -7 14 1 24 -6 29 -19 5 -17 6 -16 7 6 1 22
-3 26 -29 27 -16 0 -30 -3 -30 -7z"/>
<path d="M903 5033 c9 -2 25 -2 35 0 9 3 1 5 -18 5 -19 0 -27 -2 -17 -5z"/>
<path d="M1223 5033 c9 -2 17 -11 17 -18 0 -7 -8 -16 -17 -18 -14 -4 -12 -5 5
-6 17 -1 22 4 22 24 0 20 -5 25 -22 24 -17 -1 -19 -2 -5 -6z"/>
<path d="M1261 5012 c2 -24 2 -24 6 -4 2 12 9 22 14 22 5 0 10 -10 10 -22 1
-21 2 -21 6 -3 3 11 10 23 15 26 5 3 -5 6 -21 7 -27 1 -31 -2 -30 -26z"/>
<path d="M1348 5031 c11 -7 10 -9 -3 -15 -19 -7 -11 -26 11 -26 8 0 14 10 14
25 0 17 -5 25 -17 25 -14 0 -15 -2 -5 -9z"/>
<path d="M1458 5033 c7 -3 16 -2 19 1 4 3 -2 6 -13 5 -11 0 -14 -3 -6 -6z"/>
<path d="M1496 5032 c-2 -4 4 -8 14 -8 10 0 16 4 14 8 -3 4 -9 8 -14 8 -5 0
-11 -4 -14 -8z"/>
<path d="M1541 5012 c2 -24 2 -24 6 -4 2 12 9 22 14 22 5 0 10 -10 10 -22 1
-21 2 -21 6 -3 3 11 10 23 15 26 5 3 -5 6 -21 7 -27 1 -31 -2 -30 -26z"/>
<path d="M2340 5021 c0 -25 18 -37 33 -22 9 9 8 11 -5 6 -13 -5 -18 -2 -18 10
0 11 5 15 16 11 8 -3 12 -2 9 4 -11 17 -35 11 -35 -9z"/>
<path d="M1650 5020 c0 -5 5 -10 10 -10 6 0 10 5 10 10 0 6 -4 10 -10 10 -5 0
-10 -4 -10 -10z"/>
<path d="M1878 5023 c7 -3 16 -2 19 1 4 3 -2 6 -13 5 -11 0 -14 -3 -6 -6z"/>
<path d="M1930 5021 c13 -10 13 -12 0 -22 -13 -9 -13 -10 0 -6 8 2 15 10 15
17 0 7 -7 15 -15 17 -13 4 -13 3 0 -6z"/>
<path d="M1980 5021 c13 -10 13 -12 0 -22 -13 -9 -13 -10 0 -6 8 2 15 10 15
17 0 7 -7 15 -15 17 -13 4 -13 3 0 -6z"/>
<path d="M2180 5023 c15 -7 12 -21 -5 -26 -11 -4 -10 -4 2 -3 21 2 25 28 5 32
-7 1 -8 0 -2 -3z"/>
<path d="M2310 5021 c13 -10 13 -12 0 -22 -13 -9 -13 -10 0 -6 8 2 15 10 15
17 0 7 -7 15 -15 17 -13 4 -13 3 0 -6z"/>
<path d="M1143 5005 c-17 -13 -17 -14 -1 -20 10 -4 23 -5 30 -2 7 3 2 6 -12 7
-23 2 -23 3 5 9 23 5 26 8 13 13 -9 4 -24 1 -35 -7z"/>
<path d="M1601 5004 c0 -11 3 -14 6 -6 3 7 2 16 -1 19 -3 4 -6 -2 -5 -13z"/>
<path d="M1718 5013 c6 -2 18 -2 25 0 6 3 1 5 -13 5 -14 0 -19 -2 -12 -5z"/>
<path d="M860 5000 c-13 -8 -12 -10 3 -10 9 0 17 5 17 10 0 12 -1 12 -20 0z"/>
<path d="M1040 5000 c-9 -6 -10 -10 -3 -10 6 0 15 5 18 10 8 12 4 12 -15 0z"/>
<path d="M1500 4996 c7 -7 13 -7 20 0 6 6 3 10 -10 10 -13 0 -16 -4 -10 -10z"/>
<path d="M1880 5000 c-13 -8 -12 -10 3 -10 9 0 17 5 17 10 0 12 -1 12 -20 0z"/>
<path d="M1458 4993 c7 -3 16 -2 19 1 4 3 -2 6 -13 5 -11 0 -14 -3 -6 -6z"/>
<path d="M1218 4973 c7 -3 16 -2 19 1 4 3 -2 6 -13 5 -11 0 -14 -3 -6 -6z"/>
<path d="M171 4698 c1 -24 4 -33 6 -21 2 12 12 24 21 26 15 4 15 5 0 6 -10 0
-18 5 -18 10 0 5 8 12 18 14 13 4 11 5 -5 6 -21 1 -23 -3 -22 -41z"/>
<path d="M418 4729 c-6 -17 3 -69 11 -69 7 0 6 69 -2 76 -3 3 -7 0 -9 -7z"/>
<path d="M551 4700 c0 -29 2 -40 8 -31 6 9 11 10 15 2 4 -6 11 -11 16 -11 6 0
2 9 -8 20 -9 11 -20 30 -24 43 -4 15 -6 8 -7 -23z"/>
<path d="M1228 4729 c-6 -17 3 -69 11 -69 7 0 6 69 -2 76 -3 3 -7 0 -9 -7z"/>
<path d="M1262 4700 c0 -35 2 -39 7 -20 4 15 14 24 24 24 9 -1 14 3 11 8 -3 5
-12 7 -19 4 -8 -3 -16 3 -18 12 -3 9 -5 -3 -5 -28z"/>
<path d="M1368 4733 c7 -3 16 -2 19 1 4 3 -2 6 -13 5 -11 0 -14 -3 -6 -6z"/>
<path d="M2941 4702 c-1 -39 1 -43 22 -40 16 2 22 10 22 28 0 16 -6 25 -15 25
-8 0 -18 7 -22 15 -4 8 -7 -4 -7 -28z m39 -12 c0 -11 -7 -20 -15 -20 -15 0
-21 21 -8 33 12 13 23 7 23 -13z"/>
<path d="M3241 4702 c-1 -39 1 -43 22 -40 16 2 22 10 22 28 0 16 -6 25 -15 25
-8 0 -18 7 -22 15 -4 8 -7 -4 -7 -28z m39 -12 c0 -11 -7 -20 -15 -20 -15 0
-21 21 -8 33 12 13 23 7 23 -13z"/>
<path d="M3722 4700 c1 -29 2 -35 5 -17 3 20 9 27 19 23 8 -3 14 -1 14 4 0 6
-6 10 -14 10 -8 0 -17 6 -19 13 -3 6 -5 -8 -5 -33z"/>
<path d="M3811 4698 c1 -24 3 -35 6 -25 3 11 11 16 19 13 8 -3 12 -2 9 3 -3 5
-1 12 4 16 16 9 1 35 -20 35 -16 0 -19 -7 -18 -42z m31 17 c0 -5 -5 -11 -11
-13 -6 -2 -11 4 -11 13 0 9 5 15 11 13 6 -2 11 -8 11 -13z"/>
<path d="M4113 4698 c-1 -42 -1 -42 6 -8 l6 35 22 -35 c13 -19 23 -32 23 -27
0 10 -44 77 -51 77 -3 0 -6 -19 -6 -42z"/>
<path d="M4290 4731 c0 -5 -9 -11 -21 -14 -29 -8 -22 -51 9 -55 20 -3 22 1 22
37 0 23 -2 41 -5 41 -3 0 -5 -4 -5 -9z m0 -41 c0 -11 -7 -20 -15 -20 -8 0 -15
9 -15 20 0 11 7 20 15 20 8 0 15 -9 15 -20z"/>
<path d="M4950 4731 c0 -5 -9 -11 -21 -14 -29 -8 -22 -51 9 -55 20 -3 22 1 22
37 0 23 -2 41 -5 41 -3 0 -5 -4 -5 -9z m0 -41 c0 -11 -7 -20 -15 -20 -8 0 -15
9 -15 20 0 11 7 20 15 20 8 0 15 -9 15 -20z"/>
<path d="M5128 4729 c-6 -17 3 -69 11 -69 7 0 6 69 -2 76 -3 3 -7 0 -9 -7z"/>
<path d="M258 4698 c-2 -15 -9 -22 -20 -22 -10 1 -15 -2 -13 -6 3 -5 14 -8 25
-7 15 1 20 9 20 29 0 34 -7 37 -12 6z"/>
<path d="M377 4713 c-11 -11 -8 -21 9 -27 14 -5 15 -4 5 8 -9 11 -9 15 1 19 7
3 8 6 2 6 -6 1 -14 -2 -17 -6z"/>
<path d="M464 4712 c18 -8 18 -9 3 -15 -24 -9 -21 -37 4 -37 16 0 20 5 17 27
-2 19 -9 29 -23 30 -19 3 -19 3 -1 -5z m16 -32 c0 -5 -4 -10 -10 -10 -5 0 -10
5 -10 10 0 6 5 10 10 10 6 0 10 -4 10 -10z"/>
<path d="M511 4706 c-14 -17 -4 -46 17 -46 13 0 12 3 -4 15 -19 15 -19 15 0
30 11 8 15 15 9 15 -6 0 -16 -6 -22 -14z"/>
<path d="M575 4710 c-3 -6 1 -7 9 -4 18 7 21 14 7 14 -6 0 -13 -4 -16 -10z"/>
<path d="M636 4705 c-8 -23 4 -45 25 -45 10 0 19 4 19 9 0 5 -8 8 -17 7 -10 0
-18 6 -18 14 0 8 8 14 18 14 9 -1 17 2 17 7 0 15 -38 10 -44 -6z"/>
<path d="M720 4711 c12 -9 11 -11 -9 -11 -17 0 -22 -4 -17 -16 3 -9 6 -18 6
-20 0 -2 10 -4 23 -3 21 0 21 1 -3 11 l-25 11 23 5 c25 4 25 23 1 30 -11 3
-11 2 1 -7z"/>
<path d="M804 4705 c-9 -23 3 -45 23 -44 17 1 17 2 1 6 -25 6 -22 21 5 26 21
4 21 4 -3 6 -23 2 -24 3 -5 11 18 8 18 9 2 9 -10 1 -20 -6 -23 -14z"/>
<path d="M884 4705 c-13 -32 23 -63 40 -36 4 5 -3 7 -14 4 -16 -4 -20 0 -20
17 0 17 4 21 20 17 11 -3 18 -1 14 4 -8 14 -34 11 -40 -6z"/>
<path d="M941 4675 c0 -22 3 -34 6 -27 2 6 11 12 18 12 8 0 16 4 19 9 4 5 -3
7 -15 4 -17 -5 -20 -2 -17 13 2 11 11 18 21 18 9 -1 17 2 17 7 0 5 -11 8 -25
7 -22 -2 -25 -7 -24 -43z"/>
<path d="M1030 4711 c12 -9 11 -11 -9 -11 -17 0 -22 -4 -17 -16 3 -9 6 -18 6
-20 0 -2 10 -4 23 -3 21 0 21 1 -3 11 l-25 11 23 5 c25 4 25 23 1 30 -11 3
-11 2 1 -7z"/>
<path d="M1061 4688 c2 -28 2 -29 6 -8 3 14 10 28 17 32 7 5 5 8 -6 8 -14 0
-18 -8 -17 -32z"/>
<path d="M1150 4711 c0 -5 5 -13 10 -16 6 -3 10 -2 10 4 0 5 -4 13 -10 16 -5
3 -10 2 -10 -4z"/>
<path d="M1567 4714 c-13 -13 -7 -24 14 -24 11 0 19 5 17 12 -5 14 -22 21 -31
12z"/>
<path d="M1628 4713 c10 -4 9 -8 -4 -17 -9 -7 -14 -18 -10 -24 9 -14 36 -16
36 -2 0 5 -7 7 -15 4 -8 -4 -15 -1 -15 5 0 6 7 11 15 11 8 0 15 7 15 15 0 8
-8 15 -17 14 -12 0 -13 -2 -5 -6z"/>
<path d="M1671 4687 c2 -30 2 -31 6 -4 5 32 8 33 35 7 20 -18 20 -20 3 -20
-10 0 -16 -3 -12 -6 3 -4 14 -4 23 0 16 6 16 8 0 25 -13 15 -14 20 -4 23 7 3
-2 5 -19 6 -31 1 -33 -1 -32 -31z"/>
<path d="M1800 4711 c12 -9 11 -11 -9 -11 -17 0 -22 -4 -17 -16 3 -9 6 -18 6
-20 0 -2 10 -4 23 -3 21 0 21 1 -3 11 l-25 11 23 5 c25 4 25 23 1 30 -11 3
-11 2 1 -7z"/>
<path d="M1833 4687 c0 -18 2 -26 5 -19 3 10 7 10 18 1 12 -10 13 -8 7 7 -4
10 -12 24 -18 31 -9 8 -12 3 -12 -20z"/>
<path d="M1880 4676 c0 -22 4 -36 8 -30 4 6 15 13 25 17 27 10 19 52 -10 53
-20 1 -23 -3 -23 -40z m40 14 c0 -11 -7 -20 -15 -20 -15 0 -21 21 -8 33 12 13
23 7 23 -13z"/>
<path d="M1944 4705 c-9 -23 3 -45 23 -44 17 1 17 2 1 6 -25 6 -22 21 5 26 21
4 21 4 -3 6 -23 2 -24 3 -5 11 18 8 18 9 2 9 -10 1 -20 -6 -23 -14z"/>
<path d="M2000 4710 c0 -5 7 -7 15 -4 8 4 15 8 15 10 0 2 -7 4 -15 4 -8 0 -15
-4 -15 -10z"/>
<path d="M2067 4714 c-13 -13 -7 -24 14 -24 11 0 19 5 17 12 -5 14 -22 21 -31
12z"/>
<path d="M2111 4685 c1 -29 1 -29 8 -5 4 15 14 24 24 24 9 -1 14 2 12 6 -3 5
-14 8 -25 7 -16 -1 -20 -8 -19 -32z"/>
<path d="M2174 4705 c-9 -23 3 -45 23 -44 17 1 17 2 1 6 -10 2 -18 13 -18 23
0 10 8 21 18 23 16 4 16 5 -1 6 -10 0 -20 -6 -23 -14z"/>
<path d="M2224 4705 c-9 -23 3 -45 23 -44 17 1 17 2 1 6 -25 6 -22 21 5 26 21
4 21 4 -3 6 -23 2 -24 3 -5 11 18 8 18 9 2 9 -10 1 -20 -6 -23 -14z"/>
<path d="M2316 4711 c-4 -5 3 -7 15 -4 17 5 20 2 17 -13 -2 -11 -11 -18 -21
-18 -9 1 -17 -2 -17 -7 0 -5 9 -9 19 -9 20 0 37 32 26 50 -8 12 -32 13 -39 1z"/>
<path d="M2400 4694 c0 -19 -4 -25 -15 -20 -8 3 -15 1 -15 -4 0 -6 9 -10 20
-10 16 0 20 7 20 30 0 17 -2 30 -5 30 -3 0 -5 -12 -5 -26z"/>
<path d="M2486 4712 c-2 -4 4 -8 15 -8 10 0 19 4 19 8 0 4 -6 8 -14 8 -8 0
-17 -4 -20 -8z"/>
<path d="M2561 4685 c1 -29 1 -29 8 -5 4 15 14 24 24 24 9 -1 14 2 12 6 -3 5
-14 8 -25 7 -16 -1 -20 -8 -19 -32z"/>
<path d="M2627 4713 c-15 -15 -6 -45 16 -51 22 -6 22 -6 -3 -13 l-25 -8 25 2
c21 2 25 8 28 40 3 31 0 37 -16 37 -10 0 -22 -3 -25 -7z m33 -23 c0 -11 -7
-20 -15 -20 -8 0 -15 9 -15 20 0 11 7 20 15 20 8 0 15 -9 15 -20z"/>
<path d="M2715 4709 c-4 -6 1 -17 11 -24 18 -14 18 -14 0 -15 -11 0 -17 -3
-13 -6 3 -4 14 -4 23 0 16 6 16 8 0 25 -13 15 -14 20 -4 24 9 4 9 6 1 6 -6 1
-15 -4 -18 -10z"/>
<path d="M2766 4711 c-4 -5 3 -7 14 -4 23 6 26 13 6 13 -8 0 -17 -4 -20 -9z"/>
<path d="M2823 4714 c18 -6 18 -6 0 -20 -16 -13 -16 -13 0 -8 9 3 17 1 17 -4
0 -6 -8 -13 -17 -15 -13 -3 -12 -5 5 -6 20 -1 23 3 20 26 -2 19 -9 28 -23 30
-17 2 -17 1 -2 -3z"/>
<path d="M2898 4713 c7 -3 16 -2 19 1 4 3 -2 6 -13 5 -11 0 -14 -3 -6 -6z"/>
<path d="M3050 4711 c12 -9 11 -11 -9 -11 -17 0 -22 -4 -17 -16 3 -9 6 -18 6
-20 0 -2 10 -4 23 -3 21 0 21 1 -3 11 l-25 11 23 5 c25 4 25 23 1 30 -11 3
-11 2 1 -7z"/>
<path d="M3171 4718 c-3 -22 25 -58 43 -57 19 0 19 1 -4 11 l-25 11 23 5 c25
4 25 23 1 30 -11 3 -11 2 1 -7 12 -9 11 -11 -7 -11 -12 0 -24 6 -26 13 -3 6
-6 9 -6 5z"/>
<path d="M3344 4712 c18 -8 18 -9 3 -15 -24 -9 -21 -37 4 -37 16 0 20 5 17 27
-2 19 -9 29 -23 30 -19 3 -19 3 -1 -5z m16 -32 c0 -5 -4 -10 -10 -10 -5 0 -10
5 -10 10 0 6 5 10 10 10 6 0 10 -4 10 -10z"/>
<path d="M3396 4711 c-4 -5 3 -7 15 -4 17 5 20 2 17 -13 -2 -11 -11 -18 -21
-18 -9 1 -17 -2 -17 -7 0 -5 9 -9 19 -9 20 0 37 32 26 50 -8 12 -32 13 -39 1z"/>
<path d="M3456 4711 c-4 -5 3 -7 15 -4 17 5 20 2 17 -13 -2 -11 -11 -18 -21
-18 -9 1 -17 -2 -17 -7 0 -5 9 -9 19 -9 20 0 37 32 26 50 -8 12 -32 13 -39 1z"/>
<path d="M3518 4713 c7 -3 16 -2 19 1 4 3 -2 6 -13 5 -11 0 -14 -3 -6 -6z"/>
<path d="M3688 4713 c7 -3 16 -2 19 1 4 3 -2 6 -13 5 -11 0 -14 -3 -6 -6z"/>
<path d="M3890 4711 c12 -9 11 -11 -9 -11 -17 0 -22 -4 -17 -16 3 -9 6 -18 6
-20 0 -2 10 -4 23 -3 21 0 21 1 -3 11 l-25 11 23 5 c25 4 25 23 1 30 -11 3
-11 2 1 -7z"/>
<path d="M3934 4712 c18 -8 18 -9 3 -15 -24 -9 -21 -37 4 -37 16 0 20 5 17 27
-2 19 -9 29 -23 30 -19 3 -19 3 -1 -5z m16 -32 c0 -5 -4 -10 -10 -10 -5 0 -10
5 -10 10 0 6 5 10 10 10 6 0 10 -4 10 -10z"/>
<path d="M3981 4706 c-14 -17 -4 -46 17 -46 13 0 12 3 -4 14 -23 18 -12 33 31
39 l30 4 -31 2 c-17 0 -37 -5 -43 -13z"/>
<path d="M4196 4711 c-3 -5 3 -7 14 -4 16 4 20 0 20 -17 0 -18 -4 -21 -21 -17
-16 4 -19 3 -11 -5 17 -17 44 -1 40 24 -3 24 -32 36 -42 19z"/>
<path d="M4314 4706 c-9 -23 3 -46 23 -45 17 1 17 2 1 6 -25 6 -22 23 3 23 12
0 19 5 17 13 -7 18 -37 21 -44 3z m33 -2 c-3 -3 -12 -4 -19 -1 -8 3 -5 6 6 6
11 1 17 -2 13 -5z"/>
<path d="M4416 4711 c-3 -5 1 -15 10 -22 14 -12 14 -14 -3 -20 -16 -7 -16 -8
-1 -8 25 -1 33 20 12 32 -17 10 -17 11 1 18 16 6 17 8 3 8 -9 1 -19 -3 -22 -8z"/>
<path d="M4524 4712 c18 -8 18 -9 3 -15 -24 -9 -21 -37 4 -37 16 0 20 5 17 27
-2 19 -9 29 -23 30 -19 3 -19 3 -1 -5z m16 -32 c0 -5 -4 -10 -10 -10 -5 0 -10
5 -10 10 0 6 5 10 10 10 6 0 10 -4 10 -10z"/>
<path d="M4570 4712 c0 -4 9 -8 20 -8 11 0 20 4 20 8 0 4 -9 8 -20 8 -11 0
-20 -4 -20 -8z"/>
<path d="M4626 4705 c-8 -23 4 -45 25 -45 10 0 19 4 19 9 0 5 -8 8 -17 7 -10
0 -18 6 -18 14 0 8 8 14 18 14 9 -1 17 2 17 7 0 15 -38 10 -44 -6z"/>
<path d="M4721 4706 c-14 -17 -4 -46 17 -46 13 0 12 3 -4 15 -19 15 -19 15 0
30 11 8 15 15 9 15 -6 0 -16 -6 -22 -14z"/>
<path d="M4796 4711 c-3 -5 3 -7 14 -4 16 4 20 0 20 -17 0 -18 -4 -21 -21 -17
-16 4 -19 3 -11 -5 17 -17 44 -1 40 24 -3 24 -32 36 -42 19z"/>
<path d="M4888 4698 c-2 -15 -9 -22 -20 -22 -10 1 -15 -2 -13 -6 3 -5 14 -8
25 -7 15 1 20 9 20 29 0 34 -7 37 -12 6z"/>
<path d="M5011 4685 c1 -29 1 -29 8 -5 4 15 14 24 24 24 9 -1 14 2 12 6 -3 5
-14 8 -25 7 -16 -1 -20 -8 -19 -32z"/>
<path d="M5088 4713 c10 -4 9 -8 -4 -17 -9 -7 -14 -18 -10 -24 9 -14 36 -16
36 -2 0 5 -7 7 -15 4 -8 -4 -15 -1 -15 5 0 6 7 11 15 11 8 0 15 7 15 15 0 8
-8 15 -17 14 -12 0 -13 -2 -5 -6z"/>
<path d="M5247 4714 c-13 -13 -7 -24 14 -24 11 0 19 5 17 12 -5 14 -22 21 -31
12z"/>
<path d="M5327 4713 c-11 -11 -8 -21 9 -27 14 -5 15 -4 5 8 -9 11 -9 15 1 19
7 3 8 6 2 6 -6 1 -14 -2 -17 -6z"/>
<path d="M5390 4711 c12 -9 11 -11 -9 -11 -17 0 -22 -4 -17 -16 3 -9 6 -18 6
-20 0 -2 10 -4 23 -3 21 0 21 1 -3 11 l-25 11 23 5 c25 4 25 23 1 30 -11 3
-11 2 1 -7z"/>
<path d="M5421 4688 c2 -30 2 -30 6 -6 2 15 12 29 21 31 12 3 10 5 -5 6 -20 1
-23 -4 -22 -31z"/>
<path d="M5534 4705 c-9 -23 3 -45 23 -44 17 1 17 2 1 6 -10 2 -18 13 -18 23
0 10 8 21 18 23 16 4 16 5 -1 6 -10 0 -20 -6 -23 -14z"/>
<path d="M5584 4705 c-9 -23 3 -45 23 -44 17 1 17 2 1 6 -26 7 -22 20 7 25 30
6 56 -18 28 -25 -16 -4 -16 -5 -1 -6 25 -2 34 20 12 32 -17 10 -17 11 1 18 16
6 17 8 3 8 -9 1 -20 -3 -23 -9 -3 -5 -16 -10 -28 -9 -21 0 -21 1 -2 9 18 8 18
9 2 9 -10 1 -20 -6 -23 -14z"/>
<path d="M1181 4703 c-1 -6 -4 -20 -7 -30 -5 -17 -5 -17 6 0 6 10 9 23 6 30
-3 9 -5 9 -5 0z"/>
<path d="M1350 4706 c0 -2 9 -6 20 -9 11 -3 20 -1 20 4 0 5 -9 9 -20 9 -11 0
-20 -2 -20 -4z"/>
<path d="M1423 4693 c9 -2 23 -2 30 0 6 3 -1 5 -18 5 -16 0 -22 -2 -12 -5z"/>
<path d="M1516 4681 c4 -14 1 -27 -7 -32 -10 -6 -10 -9 -2 -9 7 0 17 9 23 19
12 24 13 34 1 27 -5 -4 -12 0 -15 6 -3 7 -3 2 0 -11z"/>
<path d="M2903 4693 c9 -2 17 -9 17 -15 0 -6 -9 -8 -20 -5 -11 3 -18 1 -14 -4
11 -18 44 -10 44 11 0 14 -6 20 -22 19 -17 -1 -19 -2 -5 -6z"/>
<path d="M3519 4686 c9 -11 9 -15 -1 -19 -8 -4 -7 -6 5 -6 22 -1 22 25 1 33
-14 5 -15 4 -5 -8z"/>
<path d="M5190 4695 c0 -5 5 -17 10 -25 5 -8 10 -10 10 -5 0 6 -5 17 -10 25
-5 8 -10 11 -10 5z"/>
<path d="M5460 4695 c0 -5 5 -17 10 -25 5 -8 10 -10 10 -5 0 6 -5 17 -10 25
-5 8 -10 11 -10 5z"/>
<path d="M338 4683 c7 -3 16 -2 19 1 4 3 -2 6 -13 5 -11 0 -14 -3 -6 -6z"/>
<path d="M1130 4681 c0 -5 5 -13 10 -16 6 -3 10 -2 10 4 0 5 -4 13 -10 16 -5
3 -10 2 -10 -4z"/>
<path d="M3155 4681 c-3 -5 -1 -12 5 -16 5 -3 10 1 10 9 0 18 -6 21 -15 7z"/>
<path d="M3625 4681 c-3 -5 -1 -12 5 -16 5 -3 10 1 10 9 0 18 -6 21 -15 7z"/>
<path d="M4978 4683 c7 -3 16 -2 19 1 4 3 -2 6 -13 5 -11 0 -14 -3 -6 -6z"/>
<path d="M760 4669 c0 -5 5 -7 10 -4 6 3 10 8 10 11 0 2 -4 4 -10 4 -5 0 -10
-5 -10 -11z"/>
<path d="M1365 4670 c-16 -7 -17 -9 -3 -9 9 -1 20 4 23 9 7 11 7 11 -20 0z"/>
<path d="M1568 4668 c5 -5 16 -8 23 -6 8 3 3 7 -10 11 -17 4 -21 3 -13 -5z"/>
<path d="M2068 4668 c5 -5 16 -8 23 -6 8 3 3 7 -10 11 -17 4 -21 3 -13 -5z"/>
<path d="M2480 4668 c0 -4 9 -8 20 -8 11 0 20 4 20 8 0 4 -9 8 -20 8 -11 0
-20 -4 -20 -8z"/>
<path d="M2768 4668 c5 -5 16 -8 23 -6 8 3 3 7 -10 11 -17 4 -21 3 -13 -5z"/>
<path d="M5248 4668 c5 -5 16 -8 23 -6 8 3 3 7 -10 11 -17 4 -21 3 -13 -5z"/>
<path d="M378 4663 c7 -3 16 -2 19 1 4 3 -2 6 -13 5 -11 0 -14 -3 -6 -6z"/>
<path d="M5328 4663 c7 -3 16 -2 19 1 4 3 -2 6 -13 5 -11 0 -14 -3 -6 -6z"/>
<path d="M4380 4650 c-9 -6 -10 -10 -3 -10 6 0 15 5 18 10 8 12 4 12 -15 0z"/>
<path d="M3710 3980 c0 -22 -4 -28 -15 -24 -23 9 -45 -15 -45 -47 0 -16 3 -30
8 -30 4 -1 22 -3 40 -5 l32 -2 0 69 c0 39 -4 69 -10 69 -5 0 -10 -13 -10 -30z
m0 -65 c0 -18 -5 -25 -20 -25 -15 0 -20 7 -20 25 0 18 5 25 20 25 15 0 20 -7
20 -25z"/>
<path d="M180 3935 l0 -65 36 0 c21 0 33 4 29 10 -3 6 -15 10 -26 10 -12 0
-19 7 -19 20 0 13 7 20 20 20 11 0 20 5 20 10 0 6 -9 10 -20 10 -11 0 -20 7
-20 15 0 8 9 15 20 15 11 0 20 5 20 10 0 6 -13 10 -30 10 l-30 0 0 -65z"/>
<path d="M630 3990 c0 -5 5 -10 10 -10 6 0 10 5 10 10 0 6 -4 10 -10 10 -5 0
-10 -4 -10 -10z"/>
<path d="M3560 3935 l0 -65 35 0 c19 0 35 5 35 10 0 6 -11 10 -25 10 -18 0
-25 5 -25 20 0 13 7 20 20 20 11 0 20 5 20 10 0 6 -9 10 -20 10 -11 0 -20 7
-20 15 0 9 9 15 25 15 14 0 25 5 25 10 0 6 -16 10 -35 10 l-35 0 0 -65z"/>
<path d="M4110 3990 c0 -5 5 -10 10 -10 6 0 10 5 10 10 0 6 -4 10 -10 10 -5 0
-10 -4 -10 -10z"/>
<path d="M4048 3971 c-10 -12 -13 -23 -8 -26 6 -4 10 -20 10 -36 0 -29 23 -50
38 -34 4 4 1 10 -5 12 -7 3 -13 15 -13 28 0 13 6 26 13 28 8 4 9 8 1 14 -6 4
-13 14 -15 21 -3 9 -9 7 -21 -7z"/>
<path d="M272 3938 c14 -20 14 -25 1 -45 -9 -14 -11 -23 -5 -23 6 0 15 7 20
16 8 14 10 14 21 0 21 -25 33 -19 16 7 -13 21 -13 25 1 45 8 12 11 22 5 22 -5
0 -15 -8 -21 -17 -10 -17 -10 -17 -20 0 -6 9 -16 17 -22 17 -6 0 -4 -9 4 -22z"/>
<path d="M360 3894 c0 -36 4 -64 10 -64 6 0 10 11 10 25 0 18 4 23 15 19 23
-9 45 15 45 47 0 16 -3 30 -7 30 -5 1 -23 3 -40 5 l-33 2 0 -64z m60 21 c0
-18 -5 -25 -20 -25 -15 0 -20 7 -20 25 0 18 5 25 20 25 15 0 20 -7 20 -25z"/>
<path d="M476 3945 c-31 -31 -13 -75 30 -75 33 0 39 18 7 22 -39 4 -42 28 -3
28 25 0 31 4 28 18 -4 23 -41 27 -62 7z m37 -12 c-7 -2 -19 -2 -25 0 -7 3 -2
5 12 5 14 0 19 -2 13 -5z"/>
<path d="M560 3914 c0 -24 5 -44 10 -44 6 0 10 14 10 30 0 18 6 33 15 36 23 9
18 22 -10 22 -23 0 -25 -4 -25 -44z"/>
<path d="M630 3915 c0 -25 5 -45 10 -45 6 0 10 20 10 45 0 25 -4 45 -10 45 -5
0 -10 -20 -10 -45z"/>
<path d="M680 3946 c-27 -34 8 -88 46 -71 17 8 16 9 -8 13 -39 5 -37 32 2 32
32 0 37 9 18 28 -16 16 -43 15 -58 -2z m43 -13 c-7 -2 -19 -2 -25 0 -7 3 -2 5
12 5 14 0 19 -2 13 -5z"/>
<path d="M770 3914 c0 -51 17 -60 22 -12 2 22 9 34 21 36 14 3 17 -4 17 -32 0
-20 5 -36 11 -36 6 0 9 17 7 43 -3 41 -4 42 -40 43 l-38 1 0 -43z"/>
<path d="M886 3944 c-19 -18 -20 -28 -6 -55 6 -11 21 -19 35 -19 31 0 33 17 3
22 -15 2 -23 10 -23 23 0 13 8 21 23 23 12 2 22 8 22 13 0 15 -37 10 -54 -7z"/>
<path d="M970 3946 c-27 -34 8 -88 46 -71 17 8 16 9 -8 13 -39 5 -37 32 2 32
32 0 37 9 18 28 -16 16 -43 15 -58 -2z m43 -13 c-7 -2 -19 -2 -25 0 -7 3 -2 5
12 5 14 0 19 -2 13 -5z"/>
<path d="M3760 3928 c0 -45 10 -57 48 -56 31 1 32 2 32 45 0 23 -4 43 -10 43
-5 0 -10 -16 -10 -35 0 -28 -4 -35 -20 -35 -16 0 -20 7 -20 35 0 19 -4 35 -10
35 -5 0 -10 -15 -10 -32z"/>
<path d="M3876 3944 c-19 -18 -20 -28 -6 -55 6 -11 21 -19 35 -19 31 0 33 17
3 22 -15 2 -23 10 -23 23 0 13 8 21 23 23 12 2 22 8 22 13 0 15 -37 10 -54 -7z"/>
<path d="M3955 3951 c-4 -7 5 -11 22 -12 l28 -1 -28 -10 c-21 -7 -27 -16 -25
-32 2 -16 11 -21 36 -23 33 -1 33 -1 30 40 -3 37 -6 42 -30 45 -14 2 -29 -2
-33 -7z m45 -46 c0 -8 -7 -15 -15 -15 -26 0 -18 20 13 29 1 1 2 -6 2 -14z"/>
<path d="M4110 3915 c0 -25 5 -45 10 -45 6 0 10 20 10 45 0 25 -4 45 -10 45
-5 0 -10 -20 -10 -45z"/>
<path d="M4166 3944 c-9 -8 -16 -22 -16 -29 0 -7 7 -21 16 -29 30 -30 74 -13
74 29 0 42 -44 59 -74 29z m54 -29 c0 -18 -5 -25 -19 -25 -11 0 -23 5 -26 10
-11 18 3 40 25 40 15 0 20 -7 20 -25z"/>
<path d="M4260 3914 c0 -51 17 -60 22 -12 2 22 9 34 21 36 14 3 17 -4 17 -32
0 -20 5 -36 11 -36 6 0 9 17 7 43 -3 41 -4 42 -40 43 l-38 1 0 -43z"/>
<path d="M173 3594 c-4 -10 0 -20 10 -26 22 -12 22 -25 0 -31 -17 -4 -17 -5 0
-6 24 -1 34 29 14 41 -22 12 -22 25 1 31 16 4 16 5 -1 6 -10 0 -20 -6 -24 -15z"/>
<path d="M500 3570 c0 -22 5 -40 10 -40 6 0 10 9 10 20 0 11 6 20 13 20 8 0 7
4 -3 10 -13 9 -13 11 0 20 12 8 11 10 -7 10 -20 0 -23 -5 -23 -40z"/>
<path d="M718 3599 c-6 -17 3 -69 11 -69 7 0 6 69 -2 76 -3 3 -7 0 -9 -7z"/>
<path d="M910 3601 c0 -5 -9 -11 -20 -14 -14 -3 -20 -14 -20 -31 0 -21 5 -26
25 -26 23 0 25 4 25 40 0 22 -2 40 -5 40 -3 0 -5 -4 -5 -9z m-5 -41 c0 -7 -6
-15 -12 -17 -8 -3 -13 4 -13 17 0 13 5 20 13 18 6 -3 12 -11 12 -18z"/>
<path d="M960 3570 c0 -37 2 -40 28 -39 16 1 20 3 10 6 -20 5 -25 33 -5 33 8
0 7 4 -3 10 -13 9 -13 11 0 20 12 8 11 10 -7 10 -20 0 -23 -5 -23 -40z"/>
<path d="M3573 3603 c9 -2 17 -8 17 -13 0 -5 -8 -11 -17 -13 -17 -4 -17 -5 0
-6 9 0 17 -7 17 -15 0 -8 -8 -17 -17 -19 -14 -4 -12 -5 5 -6 12 0 22 4 22 11
0 9 3 9 12 0 7 -7 20 -12 31 -12 27 0 20 54 -8 57 l-20 3 20 -9 c18 -9 18 -10
3 -12 -40 -5 -43 -3 -40 19 3 18 -1 22 -20 21 -17 -1 -18 -3 -5 -6z m72 -53
c-3 -5 -10 -10 -16 -10 -5 0 -9 5 -9 10 0 6 7 10 16 10 8 0 12 -4 9 -10z"/>
<path d="M3721 3570 c1 -34 3 -39 8 -21 9 35 29 37 34 4 l4 -28 2 28 c0 18 -5
30 -16 34 -10 4 -21 11 -25 17 -4 6 -7 -9 -7 -34z"/>
<path d="M3843 3570 c0 -25 2 -35 4 -22 2 12 2 32 0 45 -2 12 -4 2 -4 -23z"/>
<path d="M4192 3598 c-24 -24 -6 -69 28 -67 9 0 6 4 -7 9 -14 6 -23 18 -23 30
0 12 9 24 23 30 13 5 16 9 7 9 -9 1 -21 -4 -28 -11z"/>
<path d="M4528 3599 c-6 -17 3 -69 11 -69 7 0 6 69 -2 76 -3 3 -7 0 -9 -7z"/>
<path d="M4693 3594 c-4 -10 0 -20 10 -26 22 -12 22 -25 0 -31 -17 -4 -17 -5
0 -6 24 -1 34 29 14 41 -22 12 -22 25 1 31 16 4 16 5 -1 6 -10 0 -20 -6 -24
-15z"/>
<path d="M231 3577 c-16 -20 -3 -47 23 -46 20 0 19 1 -4 11 l-25 11 23 5 c13
2 21 9 19 15 -5 17 -23 19 -36 4z"/>
<path d="M281 3558 c1 -29 2 -30 8 -9 9 34 29 37 34 6 4 -24 4 -24 3 2 -1 21
-7 29 -23 31 -20 3 -23 -1 -22 -30z"/>
<path d="M342 3560 c0 -19 2 -27 5 -17 2 9 2 25 0 35 -3 9 -5 1 -5 -18z"/>
<path d="M374 3576 c-9 -24 4 -48 23 -44 12 2 18 12 18 28 0 29 -32 41 -41 16z
m36 -16 c0 -11 -7 -20 -15 -20 -8 0 -15 9 -15 20 0 11 7 20 15 20 8 0 15 -9
15 -20z"/>
<path d="M431 3558 c1 -22 3 -26 6 -13 3 11 10 26 15 33 8 9 6 12 -6 12 -12 0
-16 -9 -15 -32z"/>
<path d="M551 3558 c1 -22 3 -26 6 -13 3 11 10 26 15 33 8 9 6 12 -6 12 -12 0
-16 -9 -15 -32z"/>
<path d="M594 3576 c-9 -24 4 -48 23 -44 12 2 18 12 18 28 0 29 -32 41 -41 16z
m36 -16 c0 -11 -7 -20 -15 -20 -8 0 -15 9 -15 20 0 11 7 20 15 20 8 0 15 -9
15 -20z"/>
<path d="M651 3558 c1 -29 2 -30 8 -9 9 34 29 37 34 6 4 -24 4 -24 3 2 -1 21
-7 29 -23 31 -20 3 -23 -1 -22 -30z"/>
<path d="M754 3576 c-9 -23 3 -46 23 -45 17 1 17 2 1 6 -25 6 -22 23 3 23 12
0 19 5 17 13 -7 18 -37 21 -44 3z m33 -2 c-3 -3 -12 -4 -19 -1 -8 3 -5 6 6 6
11 1 17 -2 13 -5z"/>
<path d="M811 3558 c2 -32 2 -32 6 -5 5 33 25 31 34 -4 4 -14 7 -17 8 -7 2 28
-10 48 -30 48 -15 0 -19 -7 -18 -32z"/>
<path d="M1021 3558 c2 -31 2 -31 6 -5 2 15 8 27 13 27 5 0 11 -12 13 -27 4
-26 4 -26 6 5 1 26 -3 32 -19 32 -16 0 -20 -6 -19 -32z"/>
<path d="M1087 3583 c-15 -14 -7 -53 11 -53 14 0 15 -2 2 -10 -8 -5 -10 -10
-4 -10 18 0 34 23 34 52 0 20 -5 28 -18 28 -10 0 -22 -3 -25 -7z m28 -23 c0
-7 -6 -15 -12 -17 -8 -3 -13 4 -13 17 0 13 5 20 13 18 6 -3 12 -11 12 -18z"/>
<path d="M1142 3560 c0 -19 2 -27 5 -17 2 9 2 25 0 35 -3 9 -5 1 -5 -18z"/>
<path d="M1171 3558 c2 -32 2 -32 6 -5 5 33 25 31 34 -4 4 -14 7 -17 8 -7 2
28 -10 48 -30 48 -15 0 -19 -7 -18 -32z"/>
<path d="M1234 3576 c-9 -23 3 -46 23 -45 17 1 17 2 1 6 -22 6 -24 23 -2 23 9
0 14 5 12 12 -7 19 -27 21 -34 4z"/>
<path d="M1291 3577 c-16 -20 -3 -47 23 -46 20 0 19 1 -4 11 l-25 11 23 5 c13
2 21 9 19 15 -5 17 -23 19 -36 4z"/>
<path d="M1341 3558 c1 -22 3 -26 6 -13 3 11 10 26 15 33 8 9 6 12 -6 12 -12
0 -16 -9 -15 -32z"/>
<path d="M3674 3575 c-9 -23 3 -45 23 -44 17 1 17 2 1 6 -10 2 -18 11 -18 18
0 8 8 19 18 24 16 10 16 10 -1 11 -10 0 -20 -7 -23 -15z"/>
<path d="M3784 3576 c-9 -23 3 -46 23 -45 17 1 17 2 1 6 -25 6 -22 23 3 23 12
0 19 5 17 13 -7 18 -37 21 -44 3z m33 -2 c-3 -3 -12 -4 -19 -1 -8 3 -5 6 6 6
11 1 17 -2 13 -5z"/>
<path d="M3870 3575 c-11 -13 -11 -19 3 -32 21 -21 49 -9 45 19 -4 28 -30 35
-48 13z m35 -15 c0 -7 -6 -15 -12 -17 -8 -3 -13 4 -13 17 0 13 5 20 13 18 6
-3 12 -11 12 -18z"/>
<path d="M3931 3558 c2 -28 2 -29 6 -8 3 14 10 28 17 32 7 5 5 8 -6 8 -14 0
-18 -8 -17 -32z"/>
<path d="M3995 3579 c-4 -6 1 -17 11 -24 18 -14 18 -14 0 -15 -11 0 -17 -3
-13 -6 3 -4 14 -4 23 0 16 6 16 8 0 25 -13 15 -14 20 -4 24 9 4 9 6 1 6 -6 1
-15 -4 -18 -10z"/>
<path d="M4062 3560 c0 -19 2 -27 5 -17 2 9 2 25 0 35 -3 9 -5 1 -5 -18z"/>
<path d="M4091 3558 c1 -29 2 -30 8 -9 9 34 29 37 34 6 4 -24 4 -24 3 2 -1 21
-7 29 -23 31 -20 3 -23 -1 -22 -30z"/>
<path d="M4250 3575 c-11 -13 -11 -19 3 -32 21 -21 49 -9 45 19 -4 28 -30 35
-48 13z m35 -15 c0 -7 -6 -15 -12 -17 -8 -3 -13 4 -13 17 0 13 5 20 13 18 6
-3 12 -11 12 -18z"/>
<path d="M4311 3558 c2 -31 2 -31 6 -5 2 15 9 27 14 27 5 0 9 -12 10 -27 1
-28 1 -28 8 -4 9 34 29 37 34 6 4 -24 4 -24 3 2 -1 25 -5 28 -38 31 -37 2 -38
1 -37 -30z"/>
<path d="M4401 3548 c0 -24 3 -37 6 -30 2 6 10 12 18 12 19 0 36 25 29 44 -3
9 -17 16 -30 16 -22 0 -24 -4 -23 -42z m39 12 c0 -11 -4 -20 -9 -20 -14 0 -23
18 -16 30 10 17 25 11 25 -10z"/>
<path d="M4471 3563 c-1 -27 3 -33 19 -33 16 0 20 6 19 33 -2 30 -2 30 -6 5
-2 -16 -8 -28 -13 -28 -5 0 -11 12 -13 28 -4 25 -4 25 -6 -5z"/>
<path d="M4564 3576 c-9 -23 3 -46 23 -45 17 1 17 2 1 6 -25 6 -22 23 3 23 12
0 19 5 17 13 -7 18 -37 21 -44 3z m33 -2 c-3 -3 -12 -4 -19 -1 -8 3 -5 6 6 6
11 1 17 -2 13 -5z"/>
<path d="M4621 3558 c1 -22 3 -26 6 -13 3 11 10 26 15 33 8 9 6 12 -6 12 -12
0 -16 -9 -15 -32z"/>
<path d="M4750 3575 c-16 -19 3 -45 31 -45 14 0 19 7 19 30 0 23 -5 30 -19 30
-10 0 -24 -7 -31 -15z m40 -15 c0 -11 -7 -20 -15 -20 -8 0 -15 9 -15 20 0 11
7 20 15 20 8 0 15 -9 15 -20z"/>
<path d="M4824 3576 c-9 -23 3 -46 23 -45 17 1 17 2 1 6 -25 6 -22 23 3 23 12
0 19 5 17 13 -7 18 -37 21 -44 3z m33 -2 c-3 -3 -12 -4 -19 -1 -8 3 -5 6 6 6
11 1 17 -2 13 -5z"/>
<path d="M4881 3558 c2 -32 2 -32 6 -5 5 33 25 31 34 -4 4 -14 7 -17 8 -7 2
28 -10 48 -30 48 -15 0 -19 -7 -18 -32z"/>
<path d="M4944 3575 c-9 -23 3 -45 23 -44 17 1 17 2 1 6 -10 2 -18 13 -18 23
0 10 8 21 18 23 16 4 16 5 -1 6 -10 0 -20 -6 -23 -14z"/>
<path d="M4994 3576 c-9 -23 3 -46 23 -45 17 1 17 2 1 6 -22 6 -24 23 -2 23 9
0 14 5 12 12 -7 19 -27 21 -34 4z"/>
<path d="M190 3451 c0 -6 4 -13 10 -16 6 -3 7 1 4 9 -7 18 -14 21 -14 7z"/>
<path d="M488 3453 c7 -3 16 -2 19 1 4 3 -2 6 -13 5 -11 0 -14 -3 -6 -6z"/>
<path d="M798 3453 c7 -3 16 -2 19 1 4 3 -2 6 -13 5 -11 0 -14 -3 -6 -6z"/>
<path d="M858 3453 c7 -3 16 -2 19 1 4 3 -2 6 -13 5 -11 0 -14 -3 -6 -6z"/>
<path d="M910 3456 c0 -2 7 -7 16 -10 8 -3 12 -2 9 4 -6 10 -25 14 -25 6z"/>
<path d="M968 3453 c7 -3 16 -2 19 1 4 3 -2 6 -13 5 -11 0 -14 -3 -6 -6z"/>
<path d="M1120 3456 c0 -2 9 -6 20 -9 11 -3 18 -1 14 4 -5 9 -34 13 -34 5z"/>
<path d="M3568 3453 c7 -3 16 -2 19 1 4 3 -2 6 -13 5 -11 0 -14 -3 -6 -6z"/>
<path d="M4440 3456 c0 -2 7 -7 16 -10 8 -3 12 -2 9 4 -6 10 -25 14 -25 6z"/>
<path d="M4558 3453 c7 -3 16 -2 19 1 4 3 -2 6 -13 5 -11 0 -14 -3 -6 -6z"/>
<path d="M4708 3453 c7 -3 16 -2 19 1 4 3 -2 6 -13 5 -11 0 -14 -3 -6 -6z"/>
<path d="M4768 3453 c7 -3 16 -2 19 1 4 3 -2 6 -13 5 -11 0 -14 -3 -6 -6z"/>
<path d="M4820 3456 c0 -2 7 -7 16 -10 8 -3 12 -2 9 4 -6 10 -25 14 -25 6z"/>
<path d="M4880 3456 c0 -2 7 -7 16 -10 8 -3 12 -2 9 4 -6 10 -25 14 -25 6z"/>
<path d="M245 3430 c-3 -6 1 -7 9 -4 18 7 21 14 7 14 -6 0 -13 -4 -16 -10z"/>
<path d="M300 3435 c0 -8 29 -12 39 -5 9 5 4 8 -13 8 -14 0 -26 -2 -26 -3z"/>
<path d="M530 3436 c0 -2 9 -6 20 -9 11 -3 18 -1 14 4 -5 9 -34 13 -34 5z"/>
<path d="M640 3436 c0 -2 7 -7 16 -10 8 -3 12 -2 9 4 -6 10 -25 14 -25 6z"/>
<path d="M1175 3430 c-3 -6 1 -7 9 -4 18 7 21 14 7 14 -6 0 -13 -4 -16 -10z"/>
<path d="M1366 3431 c-4 -5 3 -7 14 -4 23 6 26 13 6 13 -8 0 -17 -4 -20 -9z"/>
<path d="M1418 3433 c7 -3 16 -2 19 1 4 3 -2 6 -13 5 -11 0 -14 -3 -6 -6z"/>
<path d="M3608 3433 c7 -3 16 -2 19 1 4 3 -2 6 -13 5 -11 0 -14 -3 -6 -6z"/>
<path d="M3698 3433 c7 -3 16 -2 19 1 4 3 -2 6 -13 5 -11 0 -14 -3 -6 -6z"/>
<path d="M3748 3433 c7 -3 16 -2 19 1 4 3 -2 6 -13 5 -11 0 -14 -3 -6 -6z"/>
<path d="M3895 3430 c-3 -6 1 -7 9 -4 18 7 21 14 7 14 -6 0 -13 -4 -16 -10z"/>
<path d="M4038 3433 c7 -3 16 -2 19 1 4 3 -2 6 -13 5 -11 0 -14 -3 -6 -6z"/>
<path d="M4116 3431 c-3 -5 2 -15 12 -22 15 -13 16 -12 4 3 -10 13 -10 17 0
21 9 4 9 6 1 6 -6 1 -14 -3 -17 -8z"/>
<path d="M4188 3433 c7 -3 16 -2 19 1 4 3 -2 6 -13 5 -11 0 -14 -3 -6 -6z"/>
<path d="M720 3414 c0 -8 5 -12 10 -9 6 4 8 11 5 16 -9 14 -15 11 -15 -7z"/>
<path d="M1135 3420 c-16 -7 -17 -9 -3 -9 9 -1 20 4 23 9 7 11 7 11 -20 0z"/>
<path d="M4300 3415 c0 -8 5 -15 10 -15 6 0 10 7 10 15 0 8 -4 15 -10 15 -5 0
-10 -7 -10 -15z"/>
<path d="M4389 3413 c-13 -16 -12 -17 4 -4 16 13 21 21 13 21 -2 0 -10 -8 -17
-17z"/>
<path d="M4545 3420 c-3 -6 1 -7 9 -4 18 7 21 14 7 14 -6 0 -13 -4 -16 -10z"/>
<path d="M388 3413 c6 -2 18 -2 25 0 6 3 1 5 -13 5 -14 0 -19 -2 -12 -5z"/>
<path d="M1218 3413 c6 -2 18 -2 25 0 6 3 1 5 -13 5 -14 0 -19 -2 -12 -5z"/>
<path d="M1318 3413 c6 -2 18 -2 25 0 6 3 1 5 -13 5 -14 0 -19 -2 -12 -5z"/>
<path d="M3646 3411 c-4 -5 3 -7 14 -4 23 6 26 13 6 13 -8 0 -17 -4 -20 -9z"/>
<path d="M3738 3413 c6 -2 18 -2 25 0 6 3 1 5 -13 5 -14 0 -19 -2 -12 -5z"/>
<path d="M4028 3413 c6 -2 18 -2 25 0 6 3 1 5 -13 5 -14 0 -19 -2 -12 -5z"/>
<path d="M183 3403 c9 -2 23 -2 30 0 6 3 -1 5 -18 5 -16 0 -22 -2 -12 -5z"/>
<path d="M247 3389 c7 -7 15 -10 18 -7 3 3 -2 9 -12 12 -14 6 -15 5 -6 -5z"/>
<path d="M388 3388 c5 -5 16 -8 23 -6 8 3 3 7 -10 11 -17 4 -21 3 -13 -5z"/>
<path d="M468 3388 c5 -5 16 -8 23 -6 8 3 3 7 -10 11 -17 4 -21 3 -13 -5z"/>
<path d="M545 3390 c-16 -7 -17 -9 -3 -9 9 -1 20 4 23 9 7 11 7 11 -20 0z"/>
<path d="M627 3388 c2 -5 10 -8 18 -8 8 0 16 3 18 8 3 4 -5 7 -18 7 -13 0 -21
-3 -18 -7z"/>
<path d="M1218 3388 c5 -5 16 -8 23 -6 8 3 3 7 -10 11 -17 4 -21 3 -13 -5z"/>
<path d="M1318 3388 c5 -5 16 -8 23 -6 8 3 3 7 -10 11 -17 4 -21 3 -13 -5z"/>
<path d="M3660 3390 c-9 -6 -10 -10 -3 -10 6 0 15 5 18 10 8 12 4 12 -15 0z"/>
<path d="M3738 3388 c5 -5 16 -8 23 -6 8 3 3 7 -10 11 -17 4 -21 3 -13 -5z"/>
<path d="M3827 3388 c2 -5 10 -8 18 -8 8 0 16 3 18 8 3 4 -5 7 -18 7 -13 0
-21 -3 -18 -7z"/>
<path d="M4028 3388 c5 -5 16 -8 23 -6 8 3 3 7 -10 11 -17 4 -21 3 -13 -5z"/>
<path d="M4450 3390 c-9 -6 -10 -10 -3 -10 6 0 15 5 18 10 8 12 4 12 -15 0z"/>
<path d="M4547 3389 c7 -7 15 -10 18 -7 3 3 -2 9 -12 12 -14 6 -15 5 -6 -5z"/>
<path d="M4890 3390 c-9 -6 -10 -10 -3 -10 6 0 15 5 18 10 8 12 4 12 -15 0z"/>
<path d="M793 3383 c9 -2 23 -2 30 0 6 3 -1 5 -18 5 -16 0 -22 -2 -12 -5z"/>
<path d="M908 3383 c6 -2 18 -2 25 0 6 3 1 5 -13 5 -14 0 -19 -2 -12 -5z"/>
<path d="M958 3383 c7 -3 16 -2 19 1 4 3 -2 6 -13 5 -11 0 -14 -3 -6 -6z"/>
<path d="M1268 3383 c7 -3 16 -2 19 1 4 3 -2 6 -13 5 -11 0 -14 -3 -6 -6z"/>
<path d="M3558 3383 c6 -2 18 -2 25 0 6 3 1 5 -13 5 -14 0 -19 -2 -12 -5z"/>
<path d="M4118 3383 c7 -3 16 -2 19 1 4 3 -2 6 -13 5 -11 0 -14 -3 -6 -6z"/>
<path d="M4378 3383 c6 -2 18 -2 25 0 6 3 1 5 -13 5 -14 0 -19 -2 -12 -5z"/>
<path d="M4708 3383 c6 -2 18 -2 25 0 6 3 1 5 -13 5 -14 0 -19 -2 -12 -5z"/>
<path d="M4768 3383 c7 -3 16 -2 19 1 4 3 -2 6 -13 5 -11 0 -14 -3 -6 -6z"/>
<path d="M4818 3383 c6 -2 18 -2 25 0 6 3 1 5 -13 5 -14 0 -19 -2 -12 -5z"/>
<path d="M172 3153 c-2 -39 0 -43 21 -42 16 1 17 3 5 6 -11 3 -18 17 -21 41
l-4 37 -1 -42z"/>
<path d="M310 3181 c0 -5 -9 -11 -21 -14 -29 -8 -22 -51 9 -55 20 -3 22 1 22
37 0 23 -2 41 -5 41 -3 0 -5 -4 -5 -9z m0 -41 c0 -11 -7 -20 -15 -20 -8 0 -15
9 -15 20 0 11 7 20 15 20 8 0 15 -9 15 -20z"/>
<path d="M2208 3179 c-6 -17 3 -69 11 -69 7 0 6 69 -2 76 -3 3 -7 0 -9 -7z"/>
<path d="M227 3164 c-13 -13 -7 -24 14 -24 11 0 19 5 17 12 -5 14 -22 21 -31
12z"/>
<path d="M361 3136 c1 -29 1 -30 8 -6 6 20 13 25 39 24 17 0 29 2 26 5 -3 4
-21 6 -40 7 -32 1 -34 -1 -33 -30z"/>
<path d="M486 3162 c-2 -4 4 -8 15 -8 10 0 19 4 19 8 0 4 -6 8 -14 8 -8 0 -17
-4 -20 -8z"/>
<path d="M541 3138 c2 -28 2 -29 6 -8 3 14 10 28 17 32 7 5 5 8 -6 8 -14 0
-18 -8 -17 -32z"/>
<path d="M593 3164 c18 -6 18 -6 0 -20 -16 -13 -16 -13 0 -8 9 3 17 1 17 -4 0
-6 -8 -13 -17 -15 -13 -3 -12 -5 5 -6 20 -1 23 3 20 26 -2 19 -9 28 -23 30
-17 2 -17 1 -2 -3z"/>
<path d="M638 3163 c7 -3 16 -2 19 1 4 3 -2 6 -13 5 -11 0 -14 -3 -6 -6z"/>
<path d="M694 3156 c-9 -24 4 -48 23 -44 12 2 18 12 18 28 0 29 -32 41 -41 16z
m36 -16 c0 -11 -7 -20 -15 -20 -8 0 -15 9 -15 20 0 11 7 20 15 20 8 0 15 -9
15 -20z"/>
<path d="M751 3135 c1 -29 1 -29 8 -5 4 15 14 24 24 24 9 -1 14 2 12 6 -3 5
-14 8 -25 7 -16 -1 -20 -8 -19 -32z"/>
<path d="M848 3163 c7 -3 16 -2 19 1 4 3 -2 6 -13 5 -11 0 -14 -3 -6 -6z"/>
<path d="M886 3161 c-3 -5 3 -7 14 -4 16 4 20 0 20 -17 0 -18 -4 -21 -21 -17
-16 4 -19 3 -11 -5 17 -17 44 -1 40 24 -3 24 -32 36 -42 19z"/>
<path d="M971 3138 c2 -30 2 -31 6 -5 5 34 20 35 26 2 4 -23 4 -23 3 2 -1 18
-7 29 -18 31 -15 3 -18 -3 -17 -30z"/>
<path d="M1025 3160 c3 -5 8 -10 11 -10 2 0 4 5 4 10 0 6 -5 10 -11 10 -5 0
-7 -4 -4 -10z"/>
<path d="M1066 3161 c-3 -5 3 -7 14 -4 16 4 20 0 20 -17 0 -18 -4 -21 -21 -17
-16 4 -19 3 -11 -5 17 -17 44 -1 40 24 -3 24 -32 36 -42 19z"/>
<path d="M1126 3162 c-2 -4 4 -8 15 -8 10 0 19 4 19 8 0 4 -6 8 -14 8 -8 0
-17 -4 -20 -8z"/>
<path d="M1184 3155 c-9 -23 3 -45 23 -44 17 1 17 2 1 6 -25 6 -22 21 5 26 21
4 21 4 -3 6 -23 2 -24 3 -5 11 18 8 18 9 2 9 -10 1 -20 -6 -23 -14z"/>
<path d="M1240 3160 c0 -5 7 -7 15 -4 11 5 15 -1 16 -22 1 -29 1 -29 8 -4 4
15 14 24 24 24 9 -1 15 2 12 5 -6 11 -75 12 -75 1z"/>
<path d="M1368 3163 c7 -3 16 -2 19 1 4 3 -2 6 -13 5 -11 0 -14 -3 -6 -6z"/>
<path d="M1401 3156 c-15 -18 -3 -46 19 -46 20 0 32 23 24 45 -8 19 -28 19
-43 1z m35 -7 c10 -17 -13 -36 -27 -22 -12 12 -4 33 11 33 5 0 12 -5 16 -11z"/>
<path d="M1466 3161 c-3 -5 3 -7 14 -4 16 4 20 0 20 -17 0 -18 -4 -21 -21 -17
-16 4 -19 3 -11 -5 17 -17 44 -1 40 24 -3 24 -32 36 -42 19z"/>
<path d="M1571 3138 c2 -32 2 -32 6 -5 4 23 9 28 24 24 10 -3 17 -1 13 4 -3 5
-14 9 -25 9 -15 0 -19 -6 -18 -32z"/>
<path d="M1637 3163 c-15 -15 -6 -45 16 -51 22 -6 22 -6 -3 -13 l-25 -8 25 2
c21 2 25 8 28 40 3 31 0 37 -16 37 -10 0 -22 -3 -25 -7z m33 -23 c0 -11 -7
-20 -15 -20 -8 0 -15 9 -15 20 0 11 7 20 15 20 8 0 15 -9 15 -20z"/>
<path d="M1771 3138 c2 -30 2 -31 6 -5 5 34 20 35 26 2 4 -23 4 -23 3 2 -1 18
-7 29 -18 31 -15 3 -18 -3 -17 -30z"/>
<path d="M1825 3160 c3 -5 8 -10 11 -10 2 0 4 5 4 10 0 6 -5 10 -11 10 -5 0
-7 -4 -4 -10z"/>
<path d="M1860 3128 c0 -24 4 -38 8 -32 4 6 15 13 25 17 26 10 18 51 -10 55
-21 3 -23 -1 -23 -40z m40 12 c0 -11 -7 -20 -15 -20 -8 0 -15 9 -15 20 0 11 7
20 15 20 8 0 15 -9 15 -20z"/>
<path d="M1970 3161 c12 -9 11 -11 -9 -11 -17 0 -22 -4 -17 -16 3 -9 6 -18 6
-20 0 -2 10 -4 23 -3 21 0 21 1 -3 11 l-25 11 23 5 c25 4 25 23 1 30 -11 3
-11 2 1 -7z"/>
<path d="M2001 3137 c2 -29 2 -29 6 -5 4 23 8 26 38 24 19 -2 32 0 30 4 -2 4
-20 7 -40 8 -33 1 -35 0 -34 -31z"/>
<path d="M2094 3155 c-9 -23 3 -45 23 -44 17 1 17 2 1 6 -25 6 -22 21 5 26 21
4 21 4 -3 6 -23 2 -24 3 -5 11 18 8 18 9 2 9 -10 1 -20 -6 -23 -14z"/>
<path d="M2150 3162 c0 -4 9 -8 20 -8 11 0 20 4 20 8 0 4 -9 8 -20 8 -11 0
-20 -4 -20 -8z"/>
<path d="M2244 3155 c-9 -23 3 -45 23 -44 17 1 17 2 1 6 -25 6 -23 23 2 23 11
0 23 -7 26 -15 6 -16 44 -21 44 -6 0 5 -8 8 -17 7 -10 0 -18 6 -18 14 0 8 8
14 18 14 9 -1 17 2 17 7 0 5 -9 9 -20 9 -11 0 -20 -4 -20 -10 0 -5 -12 -10
-27 -9 -25 0 -26 1 -8 9 18 8 18 9 2 9 -10 1 -20 -6 -23 -14z"/>
<path d="M2386 3155 c-8 -23 4 -45 25 -45 10 0 19 4 19 9 0 5 -8 8 -17 7 -10
0 -18 6 -18 14 0 8 8 14 18 14 9 -1 17 2 17 7 0 15 -38 10 -44 -6z"/>
<path d="M2457 3164 c-13 -13 -7 -24 14 -24 11 0 19 5 17 12 -5 14 -22 21 -31
12z"/>
<path d="M2505 3159 c-4 -6 1 -17 11 -24 18 -14 18 -14 0 -15 -11 0 -17 -3
-13 -6 3 -4 14 -4 23 0 16 6 16 8 0 25 -13 15 -14 20 -4 24 9 4 9 6 1 6 -6 1
-15 -4 -18 -10z"/>
<path d="M2577 3163 c-15 -15 -6 -45 16 -51 22 -6 22 -6 -3 -13 l-25 -8 25 2
c21 2 25 8 28 40 3 31 0 37 -16 37 -10 0 -22 -3 -25 -7z m33 -23 c0 -11 -7
-20 -15 -20 -8 0 -15 9 -15 20 0 11 7 20 15 20 8 0 15 -9 15 -20z"/>
<path d="M2640 3162 c0 -4 9 -8 20 -8 11 0 20 4 20 8 0 4 -9 8 -20 8 -11 0
-20 -4 -20 -8z"/>
<path d="M2725 3159 c-4 -6 1 -17 11 -24 18 -14 18 -14 0 -15 -11 0 -17 -3
-13 -6 3 -4 14 -4 23 0 16 6 16 8 0 25 -13 15 -14 20 -4 24 9 4 9 6 1 6 -6 1
-15 -4 -18 -10z"/>
<path d="M2828 3163 c7 -3 16 -2 19 1 4 3 -2 6 -13 5 -11 0 -14 -3 -6 -6z"/>
<path d="M2868 3163 c7 -3 16 -2 19 1 4 3 -2 6 -13 5 -11 0 -14 -3 -6 -6z"/>
<path d="M2907 3164 c-13 -13 -7 -24 14 -24 11 0 19 5 17 12 -5 14 -22 21 -31
12z"/>
<path d="M2951 3136 c1 -29 1 -30 8 -6 6 20 13 25 39 24 17 0 29 2 26 5 -3 4
-21 6 -40 7 -32 1 -34 -1 -33 -30z"/>
<path d="M3108 3163 c7 -3 16 -2 19 1 4 3 -2 6 -13 5 -11 0 -14 -3 -6 -6z"/>
<path d="M3151 3138 c2 -32 2 -32 6 -5 3 20 9 27 19 23 8 -3 14 -1 14 4 0 6
-9 10 -20 10 -16 0 -20 -6 -19 -32z"/>
<path d="M3216 3162 c-2 -4 4 -8 15 -8 10 0 19 4 19 8 0 4 -6 8 -14 8 -8 0
-17 -4 -20 -8z"/>
<path d="M2776 3131 c4 -14 1 -27 -7 -32 -10 -6 -10 -9 -2 -9 7 0 17 9 23 19
12 24 13 34 1 27 -5 -4 -12 0 -15 6 -3 7 -3 2 0 -11z"/>
<path d="M2829 3136 c9 -11 9 -15 -1 -19 -8 -4 -7 -6 5 -6 22 -1 22 25 1 33
-14 5 -15 4 -5 -8z"/>
<path d="M3113 3143 c9 -2 17 -9 17 -15 0 -6 -9 -8 -20 -5 -11 3 -18 1 -14 -4
11 -18 44 -10 44 11 0 14 -6 20 -22 19 -17 -1 -19 -2 -5 -6z"/>
<path d="M228 3118 c5 -5 16 -8 23 -6 8 3 3 7 -10 11 -17 4 -21 3 -13 -5z"/>
<path d="M480 3118 c0 -4 8 -8 18 -9 15 0 14 -2 -3 -10 -20 -9 -20 -9 0 -6 27
3 32 33 5 33 -11 0 -20 -4 -20 -8z"/>
<path d="M1120 3118 c0 -4 9 -8 20 -8 11 0 20 4 20 8 0 4 -9 8 -20 8 -11 0
-20 -4 -20 -8z"/>
<path d="M2458 3118 c5 -5 16 -8 23 -6 8 3 3 7 -10 11 -17 4 -21 3 -13 -5z"/>
<path d="M2908 3118 c5 -5 16 -8 23 -6 8 3 3 7 -10 11 -17 4 -21 3 -13 -5z"/>
<path d="M3210 3118 c0 -4 9 -8 20 -8 11 0 20 4 20 8 0 4 -9 8 -20 8 -11 0
-20 -4 -20 -8z"/>
<path d="M191 2956 c1 -29 1 -30 8 -6 6 20 13 25 39 24 17 0 29 2 26 5 -3 4
-21 6 -40 7 -32 1 -34 -1 -33 -30z"/>
<path d="M281 2945 c0 -22 3 -34 6 -27 2 6 11 12 18 12 8 0 16 4 19 9 4 5 -3
7 -15 4 -17 -5 -20 -2 -17 13 2 11 11 18 21 18 9 -1 17 2 17 7 0 5 -11 8 -25
7 -22 -2 -25 -7 -24 -43z"/>
<path d="M350 2979 c0 -4 7 -6 15 -3 10 4 15 0 15 -15 0 -25 26 -39 42 -23 8
8 5 9 -11 5 -17 -4 -21 -1 -21 17 0 17 4 21 20 17 11 -3 18 -2 15 3 -7 11 -75
10 -75 -1z"/>
<path d="M494 2976 c-9 -23 3 -46 23 -45 17 1 17 2 1 6 -25 6 -22 23 3 23 12
0 19 5 17 13 -7 18 -37 21 -44 3z m33 -2 c-3 -3 -12 -4 -19 -1 -8 3 -5 6 6 6
11 1 17 -2 13 -5z"/>
<path d="M556 2982 c-2 -4 4 -8 15 -8 10 0 19 4 19 8 0 4 -6 8 -14 8 -8 0 -17
-4 -20 -8z"/>
<path d="M640 2946 c0 -22 4 -36 8 -30 4 6 15 13 25 17 27 10 19 52 -10 53
-20 1 -23 -3 -23 -40z m40 14 c0 -11 -7 -20 -15 -20 -15 0 -21 21 -8 33 12 13
23 7 23 -13z"/>
<path d="M704 2975 c-9 -23 3 -45 23 -44 17 1 17 2 1 6 -25 6 -22 21 5 26 21
4 21 4 -3 6 -23 2 -24 3 -5 11 18 8 18 9 2 9 -10 1 -20 -6 -23 -14z"/>
<path d="M760 2982 c0 -5 14 -7 30 -4 17 2 30 6 30 8 0 2 -13 4 -30 4 -16 0
-30 -4 -30 -8z"/>
<path d="M831 2976 c-15 -18 -3 -46 19 -46 20 0 32 23 24 45 -8 19 -28 19 -43
1z m35 -7 c10 -17 -13 -36 -27 -22 -12 12 -4 33 11 33 5 0 12 -5 16 -11z"/>
<path d="M891 2957 c2 -30 2 -31 6 -4 2 15 9 27 14 27 5 0 9 -12 10 -27 l1
-28 7 25 c6 20 13 25 38 24 18 0 30 3 28 6 -2 3 -27 7 -54 7 l-51 2 1 -32z"/>
<path d="M1028 2983 c10 -4 9 -8 -4 -17 -9 -7 -14 -18 -10 -24 9 -14 36 -16
36 -2 0 5 -7 7 -15 4 -8 -4 -15 -1 -15 5 0 6 7 11 15 11 8 0 15 7 15 15 0 8
-8 15 -17 14 -12 0 -13 -2 -5 -6z"/>
<path d="M1071 2958 c2 -32 2 -32 6 -5 3 20 9 27 19 23 8 -3 14 -1 14 4 0 6
-9 10 -20 10 -16 0 -20 -6 -19 -32z"/>
<path d="M1131 2976 c-14 -17 -4 -46 17 -46 13 0 12 3 -4 15 -19 15 -19 15 0
30 11 8 15 15 9 15 -6 0 -16 -6 -22 -14z"/>
<path d="M1200 2981 c12 -9 11 -11 -9 -11 -17 0 -22 -4 -17 -16 3 -9 6 -18 6
-20 0 -2 10 -4 23 -3 21 0 21 1 -3 11 l-25 11 23 5 c25 4 25 23 1 30 -11 3
-11 2 1 -7z"/>
<path d="M450 2951 c0 -5 5 -13 10 -16 6 -3 10 -2 10 4 0 5 -4 13 -10 16 -5 3
-10 2 -10 -4z"/>
<path d="M550 2938 c0 -4 9 -8 20 -8 11 0 20 4 20 8 0 4 -9 8 -20 8 -11 0 -20
-4 -20 -8z"/>
<path d="M171 2698 c1 -24 4 -33 6 -21 2 12 12 24 21 26 15 4 15 5 0 6 -10 0
-18 5 -18 10 0 5 8 12 18 14 13 4 11 5 -5 6 -21 1 -23 -3 -22 -41z"/>
<path d="M388 2729 c-6 -17 3 -69 11 -69 7 0 6 69 -2 76 -3 3 -7 0 -9 -7z"/>
<path d="M580 2731 c0 -5 -9 -11 -20 -14 -14 -3 -20 -14 -20 -31 0 -21 5 -26
25 -26 23 0 25 4 25 40 0 22 -2 40 -5 40 -3 0 -5 -4 -5 -9z m-5 -41 c0 -7 -6
-15 -12 -17 -8 -3 -13 4 -13 17 0 13 5 20 13 18 6 -3 12 -11 12 -18z"/>
<path d="M630 2700 c0 -35 3 -40 23 -39 16 1 18 2 5 6 -10 2 -18 11 -18 18 0
7 8 16 18 18 16 4 16 5 0 6 -10 0 -18 5 -18 10 0 5 8 12 18 14 13 4 11 5 -5 6
-20 1 -23 -4 -23 -39z"/>
<path d="M221 2688 c1 -22 3 -26 6 -13 3 11 10 26 15 33 8 9 6 12 -6 12 -12 0
-16 -9 -15 -32z"/>
<path d="M264 2706 c-9 -24 4 -48 23 -44 24 4 24 52 0 56 -9 2 -20 -4 -23 -12z
m31 -16 c0 -7 -6 -15 -12 -17 -8 -3 -13 4 -13 17 0 13 5 20 13 18 6 -3 12 -11
12 -18z"/>
<path d="M321 2688 c1 -29 2 -30 8 -9 9 34 29 37 34 6 4 -24 4 -24 3 2 -1 21
-7 29 -23 31 -20 3 -23 -1 -22 -30z"/>
<path d="M424 2706 c-9 -23 3 -46 23 -45 17 1 17 2 1 6 -25 6 -22 23 3 23 12
0 19 5 17 13 -7 18 -37 21 -44 3z m33 -2 c-3 -3 -12 -4 -19 -1 -8 3 -5 6 6 6
11 1 17 -2 13 -5z"/>
<path d="M481 2688 c2 -31 2 -31 6 -5 2 15 8 27 13 27 5 0 11 -12 13 -27 4
-26 4 -26 6 5 1 26 -3 32 -19 32 -16 0 -20 -6 -19 -32z"/>
<path d="M681 2688 c1 -29 2 -30 8 -9 9 34 29 37 34 6 4 -24 4 -24 3 2 -1 21
-7 29 -23 31 -20 3 -23 -1 -22 -30z"/>
<path d="M746 2705 c-8 -22 3 -45 23 -46 13 0 12 -2 -4 -10 l-20 -9 20 3 c15
2 21 11 23 40 3 31 0 37 -16 37 -11 0 -22 -7 -26 -15z m34 -15 c0 -11 -4 -20
-10 -20 -5 0 -10 9 -10 20 0 11 5 20 10 20 6 0 10 -9 10 -20z"/>
<path d="M812 2690 c0 -19 2 -27 5 -17 2 9 2 25 0 35 -3 9 -5 1 -5 -18z"/>
<path d="M841 2688 c2 -31 2 -31 6 -5 2 15 8 27 13 27 5 0 11 -12 13 -27 4
-26 4 -26 6 5 1 26 -3 32 -19 32 -16 0 -20 -6 -19 -32z"/>
<path d="M901 2707 c-16 -20 -3 -47 23 -46 20 0 19 1 -4 11 l-25 11 23 5 c13
2 21 9 19 15 -5 17 -23 19 -36 4z"/>
<path d="M954 2706 c-9 -23 3 -46 23 -45 17 1 17 2 1 6 -25 6 -22 23 3 23 12
0 19 5 17 13 -7 18 -37 21 -44 3z m33 -2 c-3 -3 -12 -4 -19 -1 -8 3 -5 6 6 6
11 1 17 -2 13 -5z"/>
<path d="M1011 2688 c2 -28 2 -29 6 -8 3 14 10 28 17 32 7 5 5 8 -6 8 -14 0
-18 -8 -17 -32z"/>
<path d="M198 2583 c7 -3 16 -2 19 1 4 3 -2 6 -13 5 -11 0 -14 -3 -6 -6z"/>
<path d="M608 2583 c7 -3 16 -2 19 1 4 3 -2 6 -13 5 -11 0 -14 -3 -6 -6z"/>
<path d="M660 2586 c0 -2 7 -7 16 -10 8 -3 12 -2 9 4 -6 10 -25 14 -25 6z"/>
<path d="M718 2583 c7 -3 16 -2 19 1 4 3 -2 6 -13 5 -11 0 -14 -3 -6 -6z"/>
<path d="M778 2583 c7 -3 16 -2 19 1 4 3 -2 6 -13 5 -11 0 -14 -3 -6 -6z"/>
<path d="M930 2586 c0 -2 7 -7 16 -10 8 -3 12 -2 9 4 -6 10 -25 14 -25 6z"/>
<path d="M990 2586 c0 -2 7 -7 16 -10 8 -3 12 -2 9 4 -6 10 -25 14 -25 6z"/>
<path d="M1090 2586 c0 -2 9 -6 20 -9 11 -3 18 -1 14 4 -5 9 -34 13 -34 5z"/>
<path d="M276 2561 c-4 -5 3 -7 14 -4 23 6 26 13 6 13 -8 0 -17 -4 -20 -9z"/>
<path d="M356 2563 c6 -4 14 -15 17 -23 5 -11 6 -9 4 4 -1 11 -9 21 -17 23
-10 3 -11 2 -4 -4z"/>
<path d="M526 2551 c-4 -5 -2 -12 3 -15 5 -4 12 -2 15 3 4 5 2 12 -3 15 -5 4
-12 2 -15 -3z"/>
<path d="M1049 2543 c-13 -16 -12 -17 4 -4 9 7 17 15 17 17 0 8 -8 3 -21 -13z"/>
<path d="M1100 2556 c0 -2 7 -7 16 -10 8 -3 12 -2 9 4 -6 10 -25 14 -25 6z"/>
<path d="M208 2543 c7 -3 16 -2 19 1 4 3 -2 6 -13 5 -11 0 -14 -3 -6 -6z"/>
<path d="M398 2543 c6 -2 18 -2 25 0 6 3 1 5 -13 5 -14 0 -19 -2 -12 -5z"/>
<path d="M450 2540 c0 -5 5 -10 10 -10 6 0 10 5 10 10 0 6 -4 10 -10 10 -5 0
-10 -4 -10 -10z"/>
<path d="M178 2518 c6 -6 18 -8 28 -6 14 3 12 5 -9 10 -19 3 -25 2 -19 -4z"/>
<path d="M277 2519 c7 -7 15 -10 18 -7 3 3 -2 9 -12 12 -14 6 -15 5 -6 -5z"/>
<path d="M338 2518 c5 -5 16 -8 23 -6 8 3 3 7 -10 11 -17 4 -21 3 -13 -5z"/>
<path d="M398 2518 c5 -5 16 -8 23 -6 8 3 3 7 -10 11 -17 4 -21 3 -13 -5z"/>
<path d="M670 2520 c-9 -6 -10 -10 -3 -10 6 0 15 5 18 10 8 12 4 12 -15 0z"/>
<path d="M1000 2520 c-9 -6 -10 -10 -3 -10 6 0 15 5 18 10 8 12 4 12 -15 0z"/>
<path d="M1105 2520 c-16 -7 -17 -9 -3 -9 9 -1 20 4 23 9 7 11 7 11 -20 0z"/>
<path d="M603 2513 c9 -2 23 -2 30 0 6 3 -1 5 -18 5 -16 0 -22 -2 -12 -5z"/>
<path d="M718 2513 c6 -2 18 -2 25 0 6 3 1 5 -13 5 -14 0 -19 -2 -12 -5z"/>
<path d="M778 2513 c7 -3 16 -2 19 1 4 3 -2 6 -13 5 -11 0 -14 -3 -6 -6z"/>
<path d="M928 2513 c6 -2 18 -2 25 0 6 3 1 5 -13 5 -14 0 -19 -2 -12 -5z"/>
<path d="M1038 2513 c6 -2 18 -2 25 0 6 3 1 5 -13 5 -14 0 -19 -2 -12 -5z"/>
<path d="M170 2280 c0 -35 3 -40 23 -39 16 1 18 2 5 6 -22 5 -24 29 -3 37 22
8 18 36 -5 36 -17 0 -20 -7 -20 -40z m30 20 c0 -5 -4 -10 -10 -10 -5 0 -10 5
-10 10 0 6 5 10 10 10 6 0 10 -4 10 -10z"/>
<path d="M339 2309 c-2 -24 2 -54 10 -61 3 -4 6 9 5 28 -2 35 -13 60 -15 33z"/>
<path d="M440 2311 c0 -5 -9 -11 -21 -14 -29 -8 -22 -51 9 -55 20 -3 22 1 22
37 0 23 -2 41 -5 41 -3 0 -5 -4 -5 -9z m0 -41 c0 -11 -7 -20 -15 -20 -8 0 -15
9 -15 20 0 11 7 20 15 20 8 0 15 -9 15 -20z"/>
<path d="M562 2280 c0 -35 2 -39 7 -20 4 15 14 24 24 24 9 -1 14 3 11 8 -3 5
-12 7 -19 4 -8 -3 -16 3 -18 12 -3 9 -5 -3 -5 -28z"/>
<path d="M621 2283 c-1 -36 2 -43 18 -43 11 0 22 4 25 9 4 5 -3 7 -15 4 -17
-5 -20 -2 -17 13 2 11 11 18 21 18 9 -1 17 3 17 8 0 6 -9 8 -19 5 -13 -3 -21
1 -24 12 -3 9 -5 -3 -6 -26z"/>
<path d="M1117 2306 c-4 -9 -14 -12 -25 -9 -11 2 -23 0 -26 -5 -4 -6 2 -8 15
-5 17 5 20 2 17 -13 -2 -11 -11 -18 -21 -18 -9 1 -17 -2 -17 -7 0 -22 39 -7
48 19 l10 27 1 -27 c1 -16 4 -28 9 -28 8 0 7 68 -1 76 -2 3 -7 -2 -10 -10z"/>
<path d="M3198 2308 c-6 -17 3 -68 12 -68 4 0 5 11 2 25 -2 15 0 25 7 25 6 0
11 -5 11 -12 0 -6 3 -8 7 -5 3 4 -3 16 -14 27 -14 12 -23 15 -25 8z"/>
<path d="M478 2293 c7 -3 16 -2 19 1 4 3 -2 6 -13 5 -11 0 -14 -3 -6 -6z"/>
<path d="M528 2293 c7 -3 16 -2 19 1 4 3 -2 6 -13 5 -11 0 -14 -3 -6 -6z"/>
<path d="M684 2285 c-13 -32 23 -63 40 -36 4 5 -3 7 -14 4 -16 -4 -20 0 -20
17 0 17 4 21 20 17 11 -3 18 -1 14 4 -8 14 -34 11 -40 -6z"/>
<path d="M758 2293 c7 -3 16 -2 19 1 4 3 -2 6 -13 5 -11 0 -14 -3 -6 -6z"/>
<path d="M801 2268 c2 -28 2 -29 6 -8 3 14 10 28 17 32 7 5 5 8 -6 8 -14 0
-18 -8 -17 -32z"/>
<path d="M836 2285 c-8 -23 4 -45 25 -45 10 0 19 4 19 9 0 5 -8 8 -17 7 -10 0
-18 6 -18 14 0 8 8 14 18 14 9 -1 17 2 17 7 0 15 -38 10 -44 -6z"/>
<path d="M908 2293 c7 -3 16 -2 19 1 4 3 -2 6 -13 5 -11 0 -14 -3 -6 -6z"/>
<path d="M994 2285 c-13 -32 23 -63 40 -36 4 5 -3 7 -14 4 -16 -4 -20 0 -20
17 0 17 4 21 20 17 11 -3 18 -1 14 4 -8 14 -34 11 -40 -6z"/>
<path d="M1181 2268 c2 -30 2 -31 6 -5 5 34 20 35 26 2 4 -23 4 -23 3 2 -1 18
-7 29 -18 31 -15 3 -18 -3 -17 -30z"/>
<path d="M1235 2290 c3 -5 8 -10 11 -10 2 0 4 5 4 10 0 6 -5 10 -11 10 -5 0
-7 -4 -4 -10z"/>
<path d="M1298 2293 c6 -2 18 -2 25 0 6 3 1 5 -13 5 -14 0 -19 -2 -12 -5z"/>
<path d="M1344 2285 c-9 -23 3 -45 23 -44 17 1 17 2 1 6 -25 6 -23 23 2 23 11
0 23 -7 26 -15 6 -16 44 -21 44 -6 0 5 -8 8 -17 7 -10 0 -18 6 -18 14 0 8 8
14 18 14 9 -1 17 2 17 7 0 5 -9 9 -20 9 -11 0 -20 -4 -20 -10 0 -5 -12 -10
-27 -9 -25 0 -26 1 -8 9 18 8 18 9 2 9 -10 1 -20 -6 -23 -14z"/>
<path d="M1496 2291 c-4 -5 3 -7 15 -4 17 5 20 2 17 -13 -2 -11 -11 -18 -21
-18 -9 1 -17 -2 -17 -7 0 -5 9 -9 19 -9 20 0 37 32 26 50 -8 12 -32 13 -39 1z"/>
<path d="M1611 2268 c2 -32 2 -32 6 -5 3 20 9 27 19 23 8 -3 14 -1 14 4 0 6
-9 10 -20 10 -16 0 -20 -6 -19 -32z"/>
<path d="M1676 2292 c-2 -4 4 -8 15 -8 10 0 19 4 19 8 0 4 -6 8 -14 8 -8 0
-17 -4 -20 -8z"/>
<path d="M1754 2286 c-9 -23 3 -46 23 -45 17 1 17 2 1 6 -25 6 -22 23 3 23 12
0 19 5 17 13 -7 18 -37 21 -44 3z m33 -2 c-3 -3 -12 -4 -19 -1 -8 3 -5 6 6 6
11 1 17 -2 13 -5z"/>
<path d="M1848 2293 c7 -3 16 -2 19 1 4 3 -2 6 -13 5 -11 0 -14 -3 -6 -6z"/>
<path d="M1918 2293 c6 -2 10 -9 6 -14 -9 -15 2 -10 16 6 10 13 9 15 -11 14
-13 0 -18 -3 -11 -6z"/>
<path d="M1980 2291 c12 -9 11 -11 -9 -11 -17 0 -22 -4 -17 -16 3 -9 6 -18 6
-20 0 -2 10 -4 23 -3 21 0 21 1 -3 11 l-25 11 23 5 c25 4 25 23 1 30 -11 3
-11 2 1 -7z"/>
<path d="M2074 2292 c18 -8 18 -9 3 -15 -24 -9 -21 -37 4 -37 16 0 20 5 17 27
-2 19 -9 29 -23 30 -19 3 -19 3 -1 -5z m16 -32 c0 -5 -4 -10 -10 -10 -5 0 -10
5 -10 10 0 6 5 10 10 10 6 0 10 -4 10 -10z"/>
<path d="M2120 2292 c0 -4 9 -8 20 -8 11 0 20 4 20 8 0 4 -9 8 -20 8 -11 0
-20 -4 -20 -8z"/>
<path d="M2176 2285 c-8 -23 4 -45 25 -45 10 0 19 4 19 9 0 5 -8 8 -17 7 -10
0 -18 6 -18 14 0 8 8 14 18 14 9 -1 17 2 17 7 0 15 -38 10 -44 -6z"/>
<path d="M2291 2267 c2 -29 2 -29 6 -5 4 23 8 26 38 24 19 -2 32 0 30 4 -2 4
-20 7 -40 8 -33 1 -35 0 -34 -31z"/>
<path d="M2380 2256 c0 -22 4 -36 8 -30 4 6 15 13 25 17 27 10 19 52 -10 53
-20 1 -23 -3 -23 -40z m40 14 c0 -11 -7 -20 -15 -20 -15 0 -21 21 -8 33 12 13
23 7 23 -13z"/>
<path d="M2441 2266 c1 -21 3 -25 6 -11 3 11 9 25 14 31 5 7 3 11 -6 11 -10 0
-15 -10 -14 -31z"/>
<path d="M2486 2291 c-3 -5 3 -7 14 -4 16 4 20 0 20 -17 0 -18 -4 -21 -21 -17
-16 4 -19 3 -11 -5 17 -17 44 -1 40 24 -3 24 -32 36 -42 19z"/>
<path d="M2594 2285 c-9 -23 3 -45 23 -44 17 1 17 2 1 6 -25 6 -23 23 2 23 11
0 23 -7 26 -15 6 -16 44 -21 44 -6 0 5 -8 8 -17 7 -10 0 -18 6 -18 14 0 8 8
14 18 14 9 -1 17 2 17 7 0 5 -9 9 -20 9 -11 0 -20 -4 -20 -10 0 -5 -12 -10
-27 -9 -25 0 -26 1 -8 9 18 8 18 9 2 9 -10 1 -20 -6 -23 -14z"/>
<path d="M2748 2293 c7 -3 16 -2 19 1 4 3 -2 6 -13 5 -11 0 -14 -3 -6 -6z"/>
<path d="M2794 2285 c-9 -23 3 -45 23 -44 17 1 17 2 1 6 -10 2 -18 13 -18 23
0 10 8 21 18 23 16 4 16 5 -1 6 -10 0 -20 -6 -23 -14z"/>
<path d="M2846 2291 c-4 -5 3 -7 14 -4 23 6 26 13 6 13 -8 0 -17 -4 -20 -9z"/>
<path d="M2897 2294 c-13 -13 -7 -24 14 -24 11 0 19 5 17 12 -5 14 -22 21 -31
12z"/>
<path d="M2944 2289 c-4 -7 1 -16 12 -22 17 -10 17 -11 -1 -17 -14 -5 -9 -8
18 -8 44 0 56 14 31 33 -18 14 -18 14 0 15 11 0 17 3 13 6 -3 4 -14 4 -23 0
-15 -6 -15 -8 1 -26 15 -17 15 -20 3 -20 -22 0 -53 36 -36 43 9 4 9 6 1 6 -6
1 -15 -4 -19 -10z"/>
<path d="M3066 2291 c-4 -5 3 -7 15 -4 17 5 20 2 17 -13 -2 -11 -11 -18 -21
-18 -9 1 -17 -2 -17 -7 0 -5 9 -9 19 -9 20 0 37 32 26 50 -8 12 -32 13 -39 1z"/>
<path d="M483 2273 c9 -2 17 -9 17 -15 0 -6 -9 -8 -20 -5 -11 3 -18 1 -14 -4
11 -18 44 -10 44 11 0 14 -6 20 -22 19 -17 -1 -19 -2 -5 -6z"/>
<path d="M529 2266 c9 -11 9 -15 -1 -19 -8 -4 -7 -6 5 -6 22 -1 22 25 1 33
-14 5 -15 4 -5 -8z"/>
<path d="M763 2273 c9 -2 17 -9 17 -15 0 -6 -9 -8 -20 -5 -11 3 -18 1 -14 -4
11 -18 44 -10 44 11 0 14 -6 20 -22 19 -17 -1 -19 -2 -5 -6z"/>
<path d="M909 2266 c9 -11 9 -15 -1 -19 -8 -4 -7 -6 5 -6 22 -1 22 25 1 33
-14 5 -15 4 -5 -8z"/>
<path d="M1849 2266 c9 -11 9 -15 -1 -19 -8 -4 -7 -6 5 -6 22 -1 22 25 1 33
-14 5 -15 4 -5 -8z"/>
<path d="M2753 2273 c9 -2 17 -9 17 -15 0 -6 -9 -8 -20 -5 -11 3 -18 1 -14 -4
11 -18 44 -10 44 11 0 14 -6 20 -22 19 -17 -1 -19 -2 -5 -6z"/>
<path d="M230 2248 c0 -4 9 -8 20 -8 11 0 20 4 20 8 0 4 -9 8 -20 8 -11 0 -20
-4 -20 -8z"/>
<path d="M1550 2248 c0 -4 9 -8 20 -8 11 0 20 4 20 8 0 4 -9 8 -20 8 -11 0
-20 -4 -20 -8z"/>
<path d="M1670 2248 c0 -4 9 -8 20 -8 11 0 20 4 20 8 0 4 -9 8 -20 8 -11 0
-20 -4 -20 -8z"/>
<path d="M1904 2249 c-3 -5 6 -9 20 -9 31 0 34 6 6 13 -11 3 -23 1 -26 -4z"/>
<path d="M2550 2249 c0 -5 5 -7 10 -4 6 3 10 8 10 11 0 2 -4 4 -10 4 -5 0 -10
-5 -10 -11z"/>
<path d="M2848 2248 c5 -5 16 -8 23 -6 8 3 3 7 -10 11 -17 4 -21 3 -13 -5z"/>
<path d="M2898 2248 c5 -5 16 -8 23 -6 8 3 3 7 -10 11 -17 4 -21 3 -13 -5z"/>
<path d="M3237 2240 c-3 -11 -3 -20 -1 -20 2 0 8 9 14 20 6 11 7 20 2 20 -6 0
-12 -9 -15 -20z"/>
<path d="M1298 2243 c6 -2 18 -2 25 0 6 3 1 5 -13 5 -14 0 -19 -2 -12 -5z"/>
<path d="M180 1795 c0 -37 4 -65 10 -65 6 0 10 9 10 19 0 11 9 22 19 26 55 17
48 85 -9 85 l-30 0 0 -65z m55 20 c0 -11 -8 -21 -17 -23 -14 -3 -18 3 -18 23
0 20 4 26 18 23 9 -2 17 -12 17 -23z"/>
<path d="M450 1850 c0 -5 5 -10 10 -10 6 0 10 5 10 10 0 6 -4 10 -10 10 -5 0
-10 -4 -10 -10z"/>
<path d="M682 1833 c-7 -12 -10 -28 -8 -35 2 -7 7 -25 10 -40 5 -21 12 -28 29
-28 20 1 21 2 5 14 -10 7 -18 21 -18 31 0 10 8 24 18 31 16 12 16 13 0 14 -9
0 -18 8 -20 18 -3 15 -5 14 -16 -5z"/>
<path d="M280 1774 c0 -24 5 -44 10 -44 6 0 10 14 10 30 0 18 6 33 15 36 23 9
18 22 -10 22 -23 0 -25 -4 -25 -44z"/>
<path d="M350 1806 c-31 -38 9 -89 54 -68 45 20 30 82 -20 82 -12 0 -27 -7
-34 -14z m55 -31 c0 -13 -8 -21 -22 -23 -19 -3 -23 1 -23 23 0 22 4 26 23 23
14 -2 22 -10 22 -23z"/>
<path d="M450 1769 c0 -38 -5 -55 -17 -65 -15 -11 -16 -13 -2 -14 8 0 20 5 27
12 14 14 16 118 2 118 -5 0 -10 -23 -10 -51z"/>
<path d="M506 1805 c-19 -19 -20 -29 -6 -56 6 -11 21 -19 35 -19 34 0 41 18 8
22 -39 4 -42 28 -3 28 25 0 31 4 28 18 -4 23 -41 27 -62 7z m37 -12 c-7 -2
-19 -2 -25 0 -7 3 -2 5 12 5 14 0 19 -2 13 -5z"/>
<path d="M600 1806 c-27 -34 8 -88 46 -71 17 8 16 9 -8 13 -22 2 -28 9 -28 28
0 19 5 24 25 24 14 0 25 5 25 10 0 15 -46 12 -60 -4z"/>
<path d="M743 1804 c-4 -11 2 -23 18 -35 l24 -19 -22 0 c-13 0 -23 -4 -23 -10
0 -5 11 -10 25 -10 36 0 44 28 14 51 l-24 19 23 0 c13 0 20 4 17 10 -10 16
-45 12 -52 -6z"/>
<path d="M171 1428 c1 -24 3 -35 6 -25 5 20 22 23 29 4 3 -8 19 -14 37 -14 18
0 24 2 15 4 -24 6 -23 23 1 23 10 0 21 -7 25 -15 3 -8 15 -15 26 -15 17 0 21
5 18 27 -2 19 -9 29 -23 30 l-20 3 20 -9 20 -8 -20 -5 c-11 -2 -25 3 -31 11
-15 20 -44 7 -44 -20 0 -12 -3 -19 -7 -15 -5 4 -8 20 -8 34 0 20 -6 28 -22 30
-21 3 -23 0 -22 -40z m31 17 c0 -5 -5 -11 -11 -13 -6 -2 -11 4 -11 13 0 9 5
15 11 13 6 -2 11 -8 11 -13z m65 -11 c-3 -3 -12 -4 -19 -1 -8 3 -5 6 6 6 11 1
17 -2 13 -5z m48 -24 c-3 -5 -10 -10 -16 -10 -5 0 -9 5 -9 10 0 6 7 10 16 10
8 0 12 -4 9 -10z"/>
<path d="M343 1430 c0 -25 2 -35 4 -22 2 12 2 32 0 45 -2 12 -4 2 -4 -23z"/>
<path d="M368 1457 c-7 -19 6 -60 20 -63 7 -1 8 0 2 3 -12 6 -13 40 -1 45 5 2
3 8 -4 15 -10 9 -14 9 -17 0z"/>
<path d="M622 1458 c-24 -24 -6 -69 28 -67 9 0 6 4 -7 9 -14 6 -23 18 -23 30
0 12 9 24 23 30 13 5 16 9 7 9 -9 1 -21 -4 -28 -11z"/>
<path d="M743 1430 c0 -25 2 -35 4 -22 2 12 2 32 0 45 -2 12 -4 2 -4 -23z"/>
<path d="M773 1430 c0 -25 2 -35 4 -22 2 12 2 32 0 45 -2 12 -4 2 -4 -23z"/>
<path d="M852 1432 c-2 -40 0 -43 21 -40 16 2 22 10 22 27 0 13 -6 25 -13 27
-7 1 -8 0 -2 -3 15 -7 12 -43 -4 -43 -10 0 -16 13 -19 38 l-4 37 -1 -43z"/>
<path d="M940 1430 c0 -33 3 -40 20 -40 10 0 25 6 32 14 11 12 15 12 30 -1 22
-19 48 -10 48 17 0 24 -25 37 -43 22 -9 -8 -16 -6 -25 9 -7 10 -23 19 -37 19
-22 0 -25 -4 -25 -40z m45 0 c0 -16 -6 -26 -17 -28 -14 -3 -18 3 -18 28 0 25
4 31 18 28 11 -2 17 -12 17 -28z m70 -10 c0 -7 -6 -15 -12 -17 -8 -3 -13 4
-13 17 0 13 5 20 13 18 6 -3 12 -11 12 -18z"/>
<path d="M412 1420 c0 -19 2 -27 5 -17 2 9 2 25 0 35 -3 9 -5 1 -5 -18z"/>
<path d="M431 1417 c1 -29 2 -30 8 -8 9 35 29 37 34 4 l4 -28 2 28 c0 15 5 27
10 27 5 0 12 -12 14 -27 4 -27 4 -27 6 3 1 30 -1 32 -39 32 -39 1 -40 0 -39
-31z"/>
<path d="M534 1436 c-9 -23 3 -46 23 -45 17 1 17 2 1 6 -22 6 -24 23 -2 23 9
0 14 5 12 12 -7 19 -27 21 -34 4z"/>
<path d="M684 1436 c-9 -24 4 -48 23 -44 12 2 18 12 18 28 0 29 -32 41 -41 16z
m31 -16 c0 -7 -6 -15 -12 -17 -8 -3 -13 4 -13 17 0 13 5 20 13 18 6 -3 12 -11
12 -18z"/>
<path d="M814 1442 c19 -8 19 -9 -3 -15 -28 -7 -23 -31 8 -35 19 -3 22 0 19
25 -2 19 -9 29 -23 30 -19 3 -19 3 -1 -5z m11 -32 c-3 -5 -10 -10 -16 -10 -5
0 -9 5 -9 10 0 6 7 10 16 10 8 0 12 -4 9 -10z"/>
<path d="M1084 1435 c-9 -23 3 -45 23 -44 17 1 17 2 1 6 -10 2 -18 11 -18 18
0 8 8 19 18 24 16 10 16 10 -1 11 -10 0 -20 -7 -23 -15z"/>
<path d="M1130 1436 c0 -8 5 -18 11 -22 8 -4 7 -9 -2 -15 -11 -7 -10 -9 4 -9
19 0 23 26 5 33 -10 4 -9 8 2 16 13 9 13 11 -2 11 -10 0 -18 -6 -18 -14z"/>
<path d="M175 1280 c-3 -6 1 -7 9 -4 18 7 21 14 7 14 -6 0 -13 -4 -16 -10z"/>
<path d="M218 1283 c7 -3 16 -2 19 1 4 3 -2 6 -13 5 -11 0 -14 -3 -6 -6z"/>
<path d="M285 1280 c-3 -6 1 -7 9 -4 18 7 21 14 7 14 -6 0 -13 -4 -16 -10z"/>
<path d="M470 1286 c0 -2 7 -6 15 -10 8 -3 15 -1 15 4 0 6 -7 10 -15 10 -8 0
-15 -2 -15 -4z"/>
<path d="M575 1280 c-3 -6 1 -7 9 -4 18 7 21 14 7 14 -6 0 -13 -4 -16 -10z"/>
<path d="M675 1280 c-3 -6 1 -7 9 -4 18 7 21 14 7 14 -6 0 -13 -4 -16 -10z"/>
<path d="M1080 1281 c0 -5 12 -7 26 -5 37 4 39 11 4 12 -16 0 -30 -3 -30 -7z"/>
<path d="M1165 1280 c-3 -6 1 -7 9 -4 18 7 21 14 7 14 -6 0 -13 -4 -16 -10z"/>
<path d="M1368 1283 c7 -3 16 -2 19 1 4 3 -2 6 -13 5 -11 0 -14 -3 -6 -6z"/>
<path d="M1505 1280 c-3 -6 1 -7 9 -4 18 7 21 14 7 14 -6 0 -13 -4 -16 -10z"/>
<path d="M958 1263 c7 -3 16 -2 19 1 4 3 -2 6 -13 5 -11 0 -14 -3 -6 -6z"/>
<path d="M1048 1263 c7 -3 16 -2 19 1 4 3 -2 6 -13 5 -11 0 -14 -3 -6 -6z"/>
<path d="M1238 1263 c6 -2 18 -2 25 0 6 3 1 5 -13 5 -14 0 -19 -2 -12 -5z"/>
<path d="M280 1248 c0 -4 6 -8 14 -8 8 0 17 4 20 8 2 4 -4 8 -15 8 -10 0 -19
-4 -19 -8z"/>
<path d="M475 1244 c15 -11 15 -13 1 -17 -13 -4 -13 -5 1 -3 26 2 28 32 3 32
-19 0 -20 -2 -5 -12z"/>
<path d="M685 1250 c-16 -7 -17 -9 -3 -9 9 -1 20 4 23 9 7 11 7 11 -20 0z"/>
<path d="M747 1249 c7 -7 15 -10 18 -7 3 3 -2 9 -12 12 -14 6 -15 5 -6 -5z"/>
<path d="M787 1249 c7 -7 15 -10 18 -7 3 3 -2 9 -12 12 -14 6 -15 5 -6 -5z"/>
<path d="M1175 1250 c-16 -7 -17 -9 -3 -9 9 -1 20 4 23 9 7 11 7 11 -20 0z"/>
<path d="M1500 1248 c0 -10 27 -10 34 0 2 4 -4 8 -15 8 -10 0 -19 -4 -19 -8z"/>
<path d="M628 1243 c7 -3 16 -2 19 1 4 3 -2 6 -13 5 -11 0 -14 -3 -6 -6z"/>
<path d="M958 1243 c7 -3 16 -2 19 1 4 3 -2 6 -13 5 -11 0 -14 -3 -6 -6z"/>
<path d="M1048 1243 c7 -3 16 -2 19 1 4 3 -2 6 -13 5 -11 0 -14 -3 -6 -6z"/>
<path d="M1368 1243 c7 -3 16 -2 19 1 4 3 -2 6 -13 5 -11 0 -14 -3 -6 -6z"/>
<path d="M1458 1243 c7 -3 16 -2 19 1 4 3 -2 6 -13 5 -11 0 -14 -3 -6 -6z"/>
<path d="M502 1203 c192 -2 504 -2 695 0 192 1 35 2 -347 2 -382 0 -539 -1
-348 -2z"/>
<path d="M183 1043 c-7 -2 -13 -9 -13 -15 0 -7 4 -7 13 0 6 5 21 12 32 15 l20
5 -20 0 c-11 0 -26 -2 -32 -5z"/>
<path d="M841 1010 c0 -29 2 -40 8 -31 6 9 11 10 15 2 4 -6 11 -11 16 -11 6 0
2 9 -8 20 -9 11 -20 30 -24 43 -4 15 -6 8 -7 -23z"/>
<path d="M1070 1041 c0 -5 -9 -11 -21 -14 -29 -8 -22 -51 9 -55 20 -3 22 1 22
37 0 23 -2 41 -5 41 -3 0 -5 -4 -5 -9z m0 -41 c0 -11 -7 -20 -15 -20 -8 0 -15
9 -15 20 0 11 7 20 15 20 8 0 15 -9 15 -20z"/>
<path d="M1472 1010 c1 -29 2 -35 5 -17 3 20 9 27 19 23 8 -3 14 -1 14 4 0 6
-6 10 -14 10 -8 0 -17 6 -19 13 -3 6 -5 -8 -5 -33z"/>
<path d="M1570 1040 c-24 -15 -7 -18 20 -3 14 7 18 13 10 13 -8 0 -22 -4 -30
-10z"/>
<path d="M1643 1044 c20 -6 23 -31 3 -36 -10 -2 -6 -9 12 -22 14 -11 21 -13
16 -5 -5 8 -9 25 -9 39 0 17 -6 25 -20 27 -15 1 -16 1 -2 -3z"/>
<path d="M1690 1010 c0 -37 2 -41 21 -38 12 2 27 11 33 21 14 22 -3 51 -33 55
-19 3 -21 -1 -21 -38z m45 0 c0 -16 -6 -26 -17 -28 -14 -3 -18 3 -18 28 0 25
4 31 18 28 11 -2 17 -12 17 -28z"/>
<path d="M1757 1042 c6 -4 13 -23 16 -42 l4 -35 1 37 c1 20 8 39 15 41 6 3 -1
6 -18 6 -17 0 -25 -3 -18 -7z"/>
<path d="M244 1016 c-9 -24 4 -48 23 -44 24 4 24 52 0 56 -9 2 -20 -4 -23 -12z
m36 -16 c0 -11 -7 -20 -15 -20 -8 0 -15 9 -15 20 0 11 7 20 15 20 8 0 15 -9
15 -20z"/>
<path d="M304 1016 c-9 -24 4 -48 23 -44 12 2 18 12 18 28 0 29 -32 41 -41 16z
m36 -16 c0 -11 -7 -20 -15 -20 -8 0 -15 9 -15 20 0 11 7 20 15 20 8 0 15 -9
15 -20z"/>
<path d="M367 1023 c-15 -15 -6 -45 16 -51 22 -6 22 -6 -3 -13 l-25 -8 25 2
c21 2 25 8 28 40 3 31 0 37 -16 37 -10 0 -22 -3 -25 -7z m33 -23 c0 -11 -7
-20 -15 -20 -8 0 -15 9 -15 20 0 11 7 20 15 20 8 0 15 -9 15 -20z"/>
<path d="M454 1015 c-9 -23 3 -45 23 -44 17 1 17 2 1 6 -25 6 -22 21 5 26 21
4 21 4 -3 6 -23 2 -24 3 -5 11 18 8 18 9 2 9 -10 1 -20 -6 -23 -14z"/>
<path d="M556 1022 c-2 -4 4 -8 15 -8 10 0 19 4 19 8 0 4 -6 8 -14 8 -8 0 -17
-4 -20 -8z"/>
<path d="M616 1021 c-3 -5 3 -7 14 -4 16 4 20 0 20 -17 0 -18 -4 -21 -21 -17
-16 4 -19 3 -11 -5 17 -17 44 -1 40 24 -3 24 -32 36 -42 19z"/>
<path d="M674 1015 c-9 -23 3 -45 23 -44 17 1 17 2 1 6 -10 2 -18 13 -18 23 0
10 8 21 18 23 16 4 16 5 -1 6 -10 0 -20 -6 -23 -14z"/>
<path d="M728 1023 c7 -3 16 -2 19 1 4 3 -2 6 -13 5 -11 0 -14 -3 -6 -6z"/>
<path d="M865 1020 c-3 -6 1 -7 9 -4 18 7 21 14 7 14 -6 0 -13 -4 -16 -10z"/>
<path d="M920 1021 c12 -9 11 -11 -9 -11 -17 0 -22 -4 -17 -16 3 -9 6 -18 6
-20 0 -2 10 -4 23 -3 21 0 21 1 -3 11 l-25 11 23 5 c25 4 25 23 1 30 -11 3
-11 2 1 -7z"/>
<path d="M987 1024 c-13 -13 -7 -24 14 -24 11 0 19 5 17 12 -5 14 -22 21 -31
12z"/>
<path d="M1128 1023 c7 -3 16 -2 19 1 4 3 -2 6 -13 5 -11 0 -14 -3 -6 -6z"/>
<path d="M1181 995 c1 -29 1 -29 8 -5 4 15 14 24 24 24 9 -1 14 2 12 6 -3 5
-14 8 -25 7 -16 -1 -20 -8 -19 -32z"/>
<path d="M1247 1023 c-15 -15 -6 -45 16 -51 22 -6 22 -6 -3 -13 l-25 -8 25 2
c21 2 25 8 28 40 3 31 0 37 -16 37 -10 0 -22 -3 -25 -7z m33 -23 c0 -11 -7
-20 -15 -20 -8 0 -15 9 -15 20 0 11 7 20 15 20 8 0 15 -9 15 -20z"/>
<path d="M1331 1014 c0 -11 3 -14 6 -6 3 7 2 16 -1 19 -3 4 -6 -2 -5 -13z"/>
<path d="M1360 1021 c0 -6 4 -13 10 -16 6 -3 7 1 4 9 -7 18 -14 21 -14 7z"/>
<path d="M1391 1014 c0 -11 3 -14 6 -6 3 7 2 16 -1 19 -3 4 -6 -2 -5 -13z"/>
<path d="M1438 1023 c7 -3 16 -2 19 1 4 3 -2 6 -13 5 -11 0 -14 -3 -6 -6z"/>
<path d="M1807 1023 c-11 -11 -8 -21 9 -27 14 -5 15 -4 5 8 -9 11 -9 15 1 19
7 3 8 6 2 6 -6 1 -14 -2 -17 -6z"/>
<path d="M208 1003 c6 -2 12 -9 12 -14 0 -12 -37 -11 -43 1 -3 6 -4 5 -3 -2 4
-20 50 -16 54 5 2 11 -3 17 -15 16 -10 0 -13 -3 -5 -6z"/>
<path d="M729 996 c9 -11 9 -15 -1 -19 -8 -4 -7 -6 5 -6 22 -1 22 25 1 33 -14
5 -15 4 -5 -8z"/>
<path d="M1563 990 c2 -8 14 -16 28 -17 19 -1 20 -1 4 4 -11 3 -24 10 -28 17
-6 7 -7 6 -4 -4z"/>
<path d="M550 978 c0 -4 9 -8 20 -8 11 0 20 4 20 8 0 4 -9 8 -20 8 -11 0 -20
-4 -20 -8z"/>
<path d="M988 978 c5 -5 16 -8 23 -6 8 3 3 7 -10 11 -17 4 -21 3 -13 -5z"/>
<path d="M1340 979 c0 -5 5 -7 10 -4 6 3 10 8 10 11 0 2 -4 4 -10 4 -5 0 -10
-5 -10 -11z"/>
<path d="M1375 980 c3 -5 8 -10 11 -10 2 0 4 5 4 10 0 6 -5 10 -11 10 -5 0 -7
-4 -4 -10z"/>
<path d="M1808 973 c7 -3 16 -2 19 1 4 3 -2 6 -13 5 -11 0 -14 -3 -6 -6z"/>
<path d="M270 640 c0 -40 4 -70 10 -70 6 0 10 10 10 23 l1 22 18 -22 c11 -13
25 -23 32 -23 8 0 5 8 -9 22 l-22 22 22 23 c17 18 18 23 6 23 -9 0 -23 -10
-31 -22 -15 -22 -16 -22 -16 25 -1 26 -5 47 -11 47 -6 0 -10 -30 -10 -70z"/>
<path d="M410 640 c0 -40 4 -70 10 -70 6 0 10 30 10 70 0 40 -4 70 -10 70 -6
0 -10 -30 -10 -70z"/>
<path d="M460 640 c0 -40 4 -70 10 -70 6 0 10 30 10 70 0 40 -4 70 -10 70 -6
0 -10 -30 -10 -70z"/>
<path d="M180 685 c-16 -20 -6 -43 25 -57 36 -16 32 -38 -7 -38 -23 0 -29 -3
-21 -11 15 -15 54 -7 67 14 9 15 6 23 -22 45 -39 32 -40 42 -7 42 14 0 25 5
25 10 0 16 -46 12 -60 -5z"/>
<path d="M370 690 c0 -5 5 -10 10 -10 6 0 10 5 10 10 0 6 -4 10 -10 10 -5 0
-10 -4 -10 -10z"/>
<path d="M370 615 c0 -25 5 -45 10 -45 6 0 10 20 10 45 0 25 -4 45 -10 45 -5
0 -10 -20 -10 -45z"/>
<path d="M513 653 c-22 -8 -14 -33 15 -45 l27 -12 -27 -4 c-35 -4 -37 -22 -3
-22 36 0 44 28 14 51 l-24 19 23 0 c12 0 22 5 22 10 0 10 -26 12 -47 3z"/>
<path d="M180 296 c0 -2 9 -6 20 -9 11 -3 18 -1 14 4 -5 9 -34 13 -34 5z"/>
<path d="M480 295 c0 -5 11 -23 25 -40 13 -16 24 -24 25 -17 0 6 -3 12 -8 12
-4 0 -15 12 -24 28 -10 15 -18 23 -18 17z"/>
<path d="M820 290 c0 -5 5 -10 11 -10 5 0 7 5 4 10 -3 6 -8 10 -11 10 -2 0 -4
-4 -4 -10z"/>
<path d="M955 279 c-17 -17 -17 -19 -2 -14 12 5 17 2 17 -10 0 -11 -5 -15 -15
-11 -8 3 -15 1 -15 -4 0 -6 9 -10 20 -10 16 0 20 7 20 35 0 40 1 40 -25 14z"/>
<path d="M1208 293 c6 -2 18 -2 25 0 6 3 1 5 -13 5 -14 0 -19 -2 -12 -5z"/>
<path d="M1475 279 c-17 -17 -17 -19 -2 -14 12 5 17 2 17 -10 0 -11 -5 -15
-16 -11 -8 3 -12 2 -9 -4 15 -24 35 -9 35 25 0 40 1 40 -25 14z"/>
<path d="M1545 289 c-4 -6 -4 -13 -1 -16 3 -4 6 -1 6 5 0 6 8 13 18 15 15 4
15 5 0 6 -9 0 -20 -4 -23 -10z"/>
<path d="M1608 293 c7 -3 16 -2 19 1 4 3 -2 6 -13 5 -11 0 -14 -3 -6 -6z"/>
<path d="M1658 293 c7 -3 16 -2 19 1 4 3 -2 6 -13 5 -11 0 -14 -3 -6 -6z"/>
<path d="M1770 296 c0 -2 9 -6 20 -9 11 -3 18 -1 14 4 -5 9 -34 13 -34 5z"/>
<path d="M2127 293 c-4 -3 -7 -11 -7 -17 0 -6 5 -4 10 4 8 13 12 13 32 1 21
-13 22 -13 9 2 -14 18 -33 22 -44 10z"/>
<path d="M2325 293 c11 -3 24 -10 28 -17 6 -7 7 -6 4 4 -2 8 -14 16 -28 17
-19 1 -20 1 -4 -4z"/>
<path d="M238 273 c7 -3 16 -2 19 1 4 3 -2 6 -13 5 -11 0 -14 -3 -6 -6z"/>
<path d="M288 272 c11 -7 11 -10 -3 -16 -19 -7 -11 -26 11 -26 20 0 15 42 -6
47 -12 4 -12 3 -2 -5z"/>
<path d="M325 270 c-3 -6 1 -7 9 -4 18 7 21 14 7 14 -6 0 -13 -4 -16 -10z"/>
<path d="M679 248 c-3 -22 -1 -34 4 -29 5 5 7 21 5 37 -3 27 -4 26 -9 -8z"/>
<path d="M708 273 c7 -3 16 -2 19 1 4 3 -2 6 -13 5 -11 0 -14 -3 -6 -6z"/>
<path d="M890 276 c0 -2 9 -6 20 -9 11 -3 18 -1 14 4 -5 9 -34 13 -34 5z"/>
<path d="M1059 248 c-3 -22 -1 -34 4 -29 5 5 7 21 5 37 -3 27 -4 26 -9 -8z"/>
<path d="M1248 271 c11 -7 10 -9 -3 -15 -19 -7 -11 -26 11 -26 8 0 14 10 14
25 0 17 -5 25 -17 25 -14 0 -15 -2 -5 -9z"/>
<path d="M1282 255 c0 -16 2 -22 5 -12 2 9 2 23 0 30 -3 6 -5 -1 -5 -18z"/>
<path d="M1392 255 c0 -16 2 -22 5 -12 2 9 2 23 0 30 -3 6 -5 -1 -5 -18z"/>
<path d="M1411 253 c1 -23 2 -24 6 -5 2 12 8 22 13 22 5 0 11 -10 13 -22 5
-20 5 -20 4 2 -1 15 -9 26 -19 28 -14 3 -18 -3 -17 -25z"/>
<path d="M1600 276 c0 -2 8 -10 18 -17 15 -13 16 -12 3 4 -13 16 -21 21 -21
13z"/>
<path d="M1826 272 c-2 -4 4 -8 14 -8 10 0 16 4 14 8 -3 4 -9 8 -14 8 -5 0
-11 -4 -14 -8z"/>
<path d="M1878 273 c7 -3 16 -2 19 1 4 3 -2 6 -13 5 -11 0 -14 -3 -6 -6z"/>
<path d="M1945 270 c-3 -6 1 -7 9 -4 11 4 16 0 16 -11 0 -11 -5 -15 -15 -11
-8 3 -15 1 -15 -4 0 -6 8 -10 18 -11 15 0 14 -2 -3 -10 l-20 -9 20 3 c25 3 36
67 11 67 -8 0 -18 -4 -21 -10z"/>
<path d="M2000 269 c0 -5 5 -7 10 -4 6 3 10 8 10 11 0 2 -4 4 -10 4 -5 0 -10
-5 -10 -11z"/>
<path d="M2083 267 c21 -17 21 -24 2 -30 -12 -4 -11 -5 1 -3 27 2 28 23 2 36
-21 10 -21 10 -5 -3z"/>
<path d="M2376 272 c-2 -4 4 -8 15 -8 10 0 19 4 19 8 0 10 -27 10 -34 0z"/>
<path d="M2438 273 c7 -3 16 -2 19 1 4 3 -2 6 -13 5 -11 0 -14 -3 -6 -6z"/>
<path d="M2481 266 c-9 -10 -7 -17 6 -27 16 -12 17 -12 6 2 -10 12 -10 18 -1
27 7 7 9 12 6 12 -3 0 -11 -6 -17 -14z"/>
<path d="M2560 255 c0 -14 2 -25 4 -25 2 0 6 11 8 25 3 14 1 25 -3 25 -5 0 -9
-11 -9 -25z"/>
<path d="M180 266 c0 -2 7 -6 15 -10 8 -3 15 -1 15 4 0 6 -7 10 -15 10 -8 0
-15 -2 -15 -4z"/>
<path d="M851 253 c7 -12 15 -20 18 -17 3 2 -3 12 -13 22 -17 16 -18 16 -5 -5z"/>
<path d="M1666 256 c3 -8 -2 -16 -13 -19 -14 -4 -14 -5 5 -6 22 -1 31 22 12
34 -5 3 -7 0 -4 -9z"/>
<path d="M1785 260 c-16 -7 -17 -9 -3 -9 9 -1 20 4 23 9 7 11 7 11 -20 0z"/>
<path d="M238 253 c7 -3 16 -2 19 1 4 3 -2 6 -13 5 -11 0 -14 -3 -6 -6z"/>
<path d="M542 248 c2 -6 11 -13 19 -16 12 -3 12 -2 0 6 -11 8 -10 11 5 15 16
4 15 5 -4 6 -14 1 -22 -4 -20 -11z"/>
<path d="M992 248 c2 -6 11 -13 19 -16 12 -3 12 -2 0 6 -11 8 -10 11 5 15 16
4 15 5 -4 6 -14 1 -22 -4 -20 -11z"/>
<path d="M1543 250 c2 -8 12 -16 23 -17 13 -2 15 -1 4 4 -8 3 -19 11 -23 17
-6 7 -7 6 -4 -4z"/>
<path d="M2022 248 c3 -7 12 -14 22 -14 14 -2 14 -1 -1 3 -16 5 -16 6 2 14 19
7 18 8 -3 8 -15 1 -22 -4 -20 -11z"/>
<path d="M2120 252 c0 -21 30 -26 48 -7 16 16 16 16 -6 4 -19 -12 -24 -12 -32
1 -7 10 -10 11 -10 2z"/>
<path d="M2512 248 c2 -6 11 -13 19 -16 12 -3 12 -2 0 6 -11 8 -10 11 5 15 16
4 15 5 -4 6 -14 1 -22 -4 -20 -11z"/>
<path d="M327 239 c7 -7 15 -10 18 -7 3 3 -2 9 -12 12 -14 6 -15 5 -6 -5z"/>
<path d="M586 242 c-2 -4 4 -8 14 -8 10 0 16 4 14 8 -3 4 -9 8 -14 8 -5 0 -11
-4 -14 -8z"/>
<path d="M905 240 c-16 -7 -17 -9 -3 -9 9 -1 20 4 23 9 7 11 7 11 -20 0z"/>
<path d="M1830 236 c7 -7 13 -7 20 0 6 6 3 10 -10 10 -13 0 -16 -4 -10 -10z"/>
<path d="M2330 240 c-23 -7 -23 -8 -3 -9 12 -1 25 4 28 9 3 6 5 10 3 9 -2 -1
-14 -5 -28 -9z"/>
<path d="M2380 236 c7 -7 13 -7 20 0 6 6 3 10 -10 10 -13 0 -16 -4 -10 -10z"/>
<path d="M238 233 c7 -3 16 -2 19 1 4 3 -2 6 -13 5 -11 0 -14 -3 -6 -6z"/>
<path d="M1608 233 c7 -3 16 -2 19 1 4 3 -2 6 -13 5 -11 0 -14 -3 -6 -6z"/>
<path d="M2198 233 c7 -3 16 -2 19 1 4 3 -2 6 -13 5 -11 0 -14 -3 -6 -6z"/>
<path d="M2438 233 c7 -3 16 -2 19 1 4 3 -2 6 -13 5 -11 0 -14 -3 -6 -6z"/>
</g>
</svg>
